;TYPE=PLATED
;Layer: PTH_Through_Via
;EasyEDA Pro v2.2.36.7, 2025-03-08 17:24:09
;Gerber Generator version 0.3
M48
METRIC,LZ,0000.00000
;Hole size 1 = 0.30480 METRIC
T01C0.30480
%
G05
G90
T01
X18.1549Y-24.638
X40.29608Y-5.969
X55.46192Y-6.096
X20.4531Y-24.638
X40.386Y-21.20509
X39.624Y-21.209
X40.35962Y-20.574
X39.624Y-20.574
X31.623Y-20.23008
X33.69793Y-20.193
X32.60146Y-20.25647
X42.291Y-28.32643
X41.14568Y-28.32643
X40.005Y-28.321
X39.116Y-22.479
X38.354Y-22.479
X38.354Y-21.717
X36.322Y-27.051
X36.322Y-28.194
X37.084Y-28.194
X37.846Y-28.194
X38.608Y-28.194
X37.084Y-27.051
X37.846Y-27.051
X38.608Y-27.051
X37.592Y-21.717
X37.592Y-22.479
X40.005Y-29.01306
X41.14568Y-29.01306
X42.291Y-29.01306
X13.49705Y-19.29409
X12.50873Y-19.29409
X14.45181Y-19.29409
X17.01373Y-20.24101
X17.99371Y-20.24101
X35.52292Y-17.78
X35.56Y-19.47393
X35.56Y-18.78881
X56.007Y-28.321
X56.007Y-29.00484
X57.15Y-28.321
X58.29958Y-28.321
X57.15Y-29.00484
X58.29958Y-29.00484
X58.22197Y-21.71309
X57.15Y-21.71309
X56.007Y-21.71309
X62.44107Y-21.844
X64.135Y-21.67992
X62.611Y-18.12392
X61.04407Y-18.161
X87.96401Y-15.16888
X86.97277Y-15.16913
X88.89896Y-15.16913
X80.7659Y-24.638
X83.0641Y-24.638
X81.026Y-19.431
X60.24093Y-22.79396
X59.07067Y-22.79396
X61.976Y-27.305
X61.214Y-27.305
X60.452Y-27.305
X59.69Y-27.305
X59.69Y-28.321
X60.452Y-28.321
X61.214Y-28.321
X61.976Y-28.321
X77.76108Y-2.413
X86.741Y-2.16764
X65.5855Y-14.5365
X66.71192Y-14.53642
X89.66518Y-2.46375
X90.84793Y-2.46375
X69.215Y-16.764
X69.977Y-16.764
X70.739Y-16.764
X71.501Y-16.764
X72.263Y-16.764
X69.215Y-17.526
X69.977Y-17.526
X70.739Y-17.526
X71.501Y-17.526
X72.263Y-17.526
X69.215Y-18.288
X69.215Y-19.05
X69.215Y-19.812
X69.215Y-20.574
X69.977Y-18.288
X70.739Y-18.288
X69.977Y-19.05
X70.739Y-19.05
X69.977Y-19.812
X70.739Y-19.812
X69.977Y-20.574
X70.739Y-20.574
X71.501Y-20.574
X71.501Y-19.812
X71.501Y-19.05
X71.501Y-18.288
X72.263Y-18.288
X72.263Y-19.05
X72.263Y-19.812
X72.263Y-20.574
X68.43876Y-16.764
X68.43876Y-17.526
X68.43876Y-18.288
X68.43876Y-19.05
X68.43876Y-19.812
X68.43876Y-20.574
X7.07695Y-10.74524
X7.07695Y-11.76904
X7.07695Y-12.92487
X8.06693Y-10.74524
X8.06693Y-11.76904
X8.06693Y-12.92487
X9.15674Y-10.74524
X9.15674Y-11.76904
X9.15674Y-12.92487
X6.18355Y-12.92487
X7.07695Y-11.76904
X6.18355Y-11.76904
X7.07695Y-10.74524
X6.18355Y-10.74524
X6.18355Y-10.74524
X5.25368Y-10.74524
X5.25368Y-11.76904
X5.25368Y-12.92487
X7.07695Y-25.56896
X7.07695Y-24.45665
X7.07695Y-26.63628
X8.09227Y-26.63628
X8.09227Y-25.56896
X8.09227Y-24.4313
X9.18209Y-24.4313
X9.18209Y-25.56896
X9.18209Y-26.63628
X6.18355Y-26.63628
X7.07695Y-25.56896
X6.18355Y-25.56896
X6.18355Y-24.45665
X6.18355Y-24.45665
X5.25368Y-24.45665
X5.25368Y-25.56896
X5.25368Y-26.63628
X91.61399Y-11.09391
X91.61399Y-12.12459
X90.65284Y-12.12459
X89.70665Y-12.12459
X90.65284Y-11.09391
X89.70665Y-11.09391
X92.61282Y-11.09391
X92.61282Y-12.12459
X93.54212Y-11.09391
X93.54212Y-12.12459
X91.61399Y-25.28265
X91.61399Y-26.22885
X90.678Y-26.289
X90.678Y-25.28265
X89.72847Y-25.28265
X89.72847Y-26.289
X92.63465Y-25.28265
X92.63465Y-26.22885
X93.64843Y-25.28265
X93.64843Y-26.22885
M30