G04 Layer: DrillDrawingLayer*
G04 EasyEDA Pro v2.2.36.7, 2025-03-08 17:24:09*
G04 Gerber Generator version 0.3*
G04 Scale: 100 percent, Rotated: No, Reflected: No*
G04 Dimensions in millimeters*
G04 Leading zeros omitted, absolute positions, 4 integers and 5 decimals*
%FSLAX45Y45*%
%MOMM*%
%AMIconRect*4,1,4,0.2,-0.2,-0.2,-0.2,-0.2,0.2,0.2,0.2,0.2,-0.2,0*4,0,4,0.166667,-0.166667,0.166667,0.166667,-0.166667,0.166667,-0.166667,-0.166667,0.166667,-0.166667,0*%
%AMIconTriangle*4,1,3,-0.242567,0.171767,0.242567,0.171767,0,-0.2706,-0.242567,0.171767,0*4,0,3,-0.189767,0.1386,0,-0.1953,0.190167,0.1386,-0.189767,0.1386,0*%
%AMIconStar6*4,1,12,0.0862,0.1492,0.213233,0.123367,0.172367,0,0.213233,-0.1229,0.0862,-0.148733,0,-0.245767,-0.085767,-0.148733,-0.213267,-0.1229,-0.171933,0,-0.213267,0.1229,-0.085767,0.1492,0,0.245767,0.0862,0.1492,0*4,0,12,-0.000333,0.195333,-0.064333,0.122667,-0.169667,0.097667,-0.138333,-0.005333,-0.169667,-0.098,-0.064333,-0.122667,-0.000333,-0.195667,0.064333,-0.122667,0.169667,-0.098,0.138667,0.005,0.169667,0.098,0.064333,0.122333,-0.000333,0.195333,0*%
%ADD10IconRect*%
%ADD11C,0.44X0.373333*%
%ADD12IconTriangle*%
%ADD13IconStar6*%
G75*


G04 Drill Drawing Start*
G54D10*
G01X4406900Y-825500D03*
G01X4660900Y-825500D03*
G01X5168900Y-825500D03*
G01X5676900Y-825500D03*
G54D11*
G01X649707Y-2141893D03*
G01X649707Y-1591907D03*
G01X9236405Y-2111908D03*
G01X9236405Y-1621892D03*
G54D12*
G01X2755900Y-2027999D03*
G01X2755900Y-1528000D03*
G01X3390900Y-961199D03*
G01X3390900Y-461200D03*
G01X6870700Y-961199D03*
G01X6870700Y-461200D03*
G54D13*
G01X525368Y-2663628D03*
G01X525368Y-2556896D03*
G01X525368Y-2445665D03*
G01X525368Y-1292487D03*
G01X525368Y-1176904D03*
G01X525368Y-1074524D03*
G01X618355Y-2663628D03*
G01X618355Y-2556896D03*
G01X618355Y-2445665D03*
G01X618355Y-2445665D03*
G01X618355Y-1292487D03*
G01X618355Y-1176904D03*
G01X618355Y-1074524D03*
G01X618355Y-1074524D03*
G01X707695Y-2663628D03*
G01X707695Y-2556896D03*
G01X707695Y-2556896D03*
G01X707695Y-2445665D03*
G01X707695Y-1292487D03*
G01X707695Y-1176904D03*
G01X707695Y-1176904D03*
G01X707695Y-1074524D03*
G01X707695Y-1074524D03*
G01X806693Y-1292487D03*
G01X806693Y-1176904D03*
G01X806693Y-1074524D03*
G01X809227Y-2663628D03*
G01X809227Y-2556896D03*
G01X809227Y-2443130D03*
G01X915674Y-1292487D03*
G01X915674Y-1176904D03*
G01X915674Y-1074524D03*
G01X918209Y-2663628D03*
G01X918209Y-2556896D03*
G01X918209Y-2443130D03*
G01X1250873Y-1929409D03*
G01X1349705Y-1929409D03*
G01X1445181Y-1929409D03*
G01X1701373Y-2024101D03*
G01X1799371Y-2024101D03*
G01X1815490Y-2463800D03*
G01X2045310Y-2463800D03*
G01X3162300Y-2023008D03*
G01X3260146Y-2025647D03*
G01X3369793Y-2019300D03*
G01X3552292Y-1778000D03*
G01X3556000Y-1947393D03*
G01X3556000Y-1878881D03*
G01X3632200Y-2819400D03*
G01X3632200Y-2705100D03*
G01X3708400Y-2819400D03*
G01X3708400Y-2705100D03*
G01X3759200Y-2247900D03*
G01X3759200Y-2171700D03*
G01X3784600Y-2819400D03*
G01X3784600Y-2705100D03*
G01X3835400Y-2247900D03*
G01X3835400Y-2171700D03*
G01X3860800Y-2819400D03*
G01X3860800Y-2705100D03*
G01X3911600Y-2247900D03*
G01X3962400Y-2120900D03*
G01X3962400Y-2057400D03*
G01X4000500Y-2901306D03*
G01X4000500Y-2832100D03*
G01X4029608Y-596900D03*
G01X4035962Y-2057400D03*
G01X4038600Y-2120509D03*
G01X4114568Y-2901306D03*
G01X4114568Y-2832643D03*
G01X4229100Y-2901306D03*
G01X4229100Y-2832643D03*
G01X5546192Y-609600D03*
G01X5600700Y-2900484D03*
G01X5600700Y-2832100D03*
G01X5600700Y-2171309D03*
G01X5715000Y-2900484D03*
G01X5715000Y-2832100D03*
G01X5715000Y-2171309D03*
G01X5822197Y-2171309D03*
G01X5829958Y-2900484D03*
G01X5829958Y-2832100D03*
G01X5907067Y-2279396D03*
G01X5969000Y-2832100D03*
G01X5969000Y-2730500D03*
G01X6024093Y-2279396D03*
G01X6045200Y-2832100D03*
G01X6045200Y-2730500D03*
G01X6104407Y-1816100D03*
G01X6121400Y-2832100D03*
G01X6121400Y-2730500D03*
G01X6197600Y-2832100D03*
G01X6197600Y-2730500D03*
G01X6244107Y-2184400D03*
G01X6261100Y-1812392D03*
G01X6413500Y-2167992D03*
G01X6558550Y-1453650D03*
G01X6671192Y-1453642D03*
G01X6843876Y-2057400D03*
G01X6843876Y-1981200D03*
G01X6843876Y-1905000D03*
G01X6843876Y-1828800D03*
G01X6843876Y-1752600D03*
G01X6843876Y-1676400D03*
G01X6921500Y-2057400D03*
G01X6921500Y-1981200D03*
G01X6921500Y-1905000D03*
G01X6921500Y-1828800D03*
G01X6921500Y-1752600D03*
G01X6921500Y-1676400D03*
G01X6997700Y-2057400D03*
G01X6997700Y-1981200D03*
G01X6997700Y-1905000D03*
G01X6997700Y-1828800D03*
G01X6997700Y-1752600D03*
G01X6997700Y-1676400D03*
G01X7073900Y-2057400D03*
G01X7073900Y-1981200D03*
G01X7073900Y-1905000D03*
G01X7073900Y-1828800D03*
G01X7073900Y-1752600D03*
G01X7073900Y-1676400D03*
G01X7150100Y-2057400D03*
G01X7150100Y-1981200D03*
G01X7150100Y-1905000D03*
G01X7150100Y-1828800D03*
G01X7150100Y-1752600D03*
G01X7150100Y-1676400D03*
G01X7226300Y-2057400D03*
G01X7226300Y-1981200D03*
G01X7226300Y-1905000D03*
G01X7226300Y-1828800D03*
G01X7226300Y-1752600D03*
G01X7226300Y-1676400D03*
G01X7776108Y-241300D03*
G01X8076590Y-2463800D03*
G01X8102600Y-1943100D03*
G01X8306410Y-2463800D03*
G01X8674100Y-216764D03*
G01X8697277Y-1516913D03*
G01X8796401Y-1516888D03*
G01X8889896Y-1516913D03*
G01X8966518Y-246375D03*
G01X8970665Y-1212459D03*
G01X8970665Y-1109391D03*
G01X8972847Y-2628900D03*
G01X8972847Y-2528265D03*
G01X9065284Y-1212459D03*
G01X9065284Y-1109391D03*
G01X9067800Y-2628900D03*
G01X9067800Y-2528265D03*
G01X9084793Y-246375D03*
G01X9161399Y-2622885D03*
G01X9161399Y-2528265D03*
G01X9161399Y-1212459D03*
G01X9161399Y-1109391D03*
G01X9261282Y-1212459D03*
G01X9261282Y-1109391D03*
G01X9263465Y-2622885D03*
G01X9263465Y-2528265D03*
G01X9354212Y-1212459D03*
G01X9354212Y-1109391D03*
G01X9364843Y-2622885D03*
G01X9364843Y-2528265D03*
G04 Drill Drawing End*

M02*

