G04 Layer: BottomLayer*
G04 EasyEDA Pro v2.2.36.7, 2025-03-08 17:24:09*
G04 Gerber Generator version 0.3*
G04 Scale: 100 percent, Rotated: No, Reflected: No*
G04 Dimensions in millimeters*
G04 Leading zeros omitted, absolute positions, 4 integers and 5 decimals*
%FSLAX45Y45*%
%MOMM*%
%ADD10C,0.2032*%
%ADD11R,1.6X1.6*%
%ADD12C,1.6*%
%ADD13C,1.524*%
%ADD14C,0.6096*%
G75*


G04 Copper Start*
G36*
G01X6160541Y-1816100D02*
G01X6160056Y-1812392D01*
G01X6204966Y-1812392D01*
G01X6206879Y-1826920D01*
G01X6212487Y-1840459D01*
G01X6221407Y-1852084D01*
G01X6233033Y-1861005D01*
G01X6246571Y-1866613D01*
G01X6261100Y-1868526D01*
G01X6275629Y-1866613D01*
G01X6289167Y-1861005D01*
G01X6300793Y-1852084D01*
G01X6309713Y-1840459D01*
G01X6315321Y-1826920D01*
G01X6317234Y-1812392D01*
G01X6315321Y-1797863D01*
G01X6309713Y-1784325D01*
G01X6300793Y-1772699D01*
G01X6289167Y-1763778D01*
G01X6275629Y-1758170D01*
G01X6261100Y-1756258D01*
G01X6246571Y-1758170D01*
G01X6233033Y-1763778D01*
G01X6221407Y-1772699D01*
G01X6212487Y-1784325D01*
G01X6206879Y-1797863D01*
G01X6204966Y-1812392D01*
G01X6204966Y-1812392D01*
G01X6160056Y-1812392D01*
G01X6158648Y-1801644D01*
G01X6153096Y-1788164D01*
G01X6144260Y-1776568D01*
G01X6144260Y-1453650D01*
G01X6502416Y-1453650D01*
G01X6504328Y-1468178D01*
G01X6509936Y-1481717D01*
G01X6518857Y-1493342D01*
G01X6530483Y-1502263D01*
G01X6544021Y-1507871D01*
G01X6558550Y-1509784D01*
G01X6573078Y-1507871D01*
G01X6586617Y-1502263D01*
G01X6598242Y-1493342D01*
G01X6607163Y-1481717D01*
G01X6612771Y-1468178D01*
G01X6614684Y-1453650D01*
G01X6614683Y-1453642D01*
G01X6615058Y-1453642D01*
G01X6616971Y-1468171D01*
G01X6622579Y-1481709D01*
G01X6631499Y-1493335D01*
G01X6643125Y-1502255D01*
G01X6656664Y-1507863D01*
G01X6671192Y-1509776D01*
G01X6685721Y-1507863D01*
G01X6699259Y-1502255D01*
G01X6710885Y-1493335D01*
G01X6719806Y-1481709D01*
G01X6725413Y-1468171D01*
G01X6727326Y-1453642D01*
G01X6725413Y-1439113D01*
G01X6719806Y-1425575D01*
G01X6710885Y-1413949D01*
G01X6699259Y-1405029D01*
G01X6685721Y-1399421D01*
G01X6671192Y-1397508D01*
G01X6656664Y-1399421D01*
G01X6643125Y-1405029D01*
G01X6631499Y-1413949D01*
G01X6622579Y-1425575D01*
G01X6616971Y-1439113D01*
G01X6615058Y-1453642D01*
G01X6615058Y-1453642D01*
G01X6614683Y-1453642D01*
G01X6612771Y-1439121D01*
G01X6607163Y-1425583D01*
G01X6598242Y-1413957D01*
G01X6586617Y-1405036D01*
G01X6573078Y-1399428D01*
G01X6558550Y-1397516D01*
G01X6544021Y-1399428D01*
G01X6530483Y-1405036D01*
G01X6518857Y-1413957D01*
G01X6509936Y-1425583D01*
G01X6504328Y-1439121D01*
G01X6502416Y-1453650D01*
G01X6502416Y-1453650D01*
G01X6144260Y-1453650D01*
G01X6144260Y-1401208D01*
G01X6227208Y-1318260D01*
G01X7869792Y-1318260D01*
G01X7940040Y-1388508D01*
G01X7940040Y-2319892D01*
G01X7857092Y-2402840D01*
G01X6214508Y-2402840D01*
G01X6144260Y-2332592D01*
G01X6144260Y-2184400D01*
G01X6187973Y-2184400D01*
G01X6189886Y-2198929D01*
G01X6195494Y-2212467D01*
G01X6204415Y-2224093D01*
G01X6216040Y-2233013D01*
G01X6229579Y-2238621D01*
G01X6244107Y-2240534D01*
G01X6258636Y-2238621D01*
G01X6272174Y-2233013D01*
G01X6283800Y-2224093D01*
G01X6292721Y-2212467D01*
G01X6298329Y-2198929D01*
G01X6300241Y-2184400D01*
G01X6298329Y-2169871D01*
G01X6297550Y-2167992D01*
G01X6357366Y-2167992D01*
G01X6359279Y-2182520D01*
G01X6364887Y-2196059D01*
G01X6373807Y-2207684D01*
G01X6385433Y-2216605D01*
G01X6398971Y-2222213D01*
G01X6413500Y-2224126D01*
G01X6428029Y-2222213D01*
G01X6441567Y-2216605D01*
G01X6453193Y-2207684D01*
G01X6462113Y-2196059D01*
G01X6467721Y-2182520D01*
G01X6469634Y-2167992D01*
G01X6467721Y-2153463D01*
G01X6462113Y-2139925D01*
G01X6453193Y-2128299D01*
G01X6441567Y-2119378D01*
G01X6428029Y-2113770D01*
G01X6413500Y-2111858D01*
G01X6398971Y-2113770D01*
G01X6385433Y-2119378D01*
G01X6373807Y-2128299D01*
G01X6364887Y-2139925D01*
G01X6359279Y-2153463D01*
G01X6357366Y-2167992D01*
G01X6357366Y-2167992D01*
G01X6297550Y-2167992D01*
G01X6292721Y-2156333D01*
G01X6283800Y-2144707D01*
G01X6272174Y-2135787D01*
G01X6258636Y-2130179D01*
G01X6244107Y-2128266D01*
G01X6229579Y-2130179D01*
G01X6216040Y-2135787D01*
G01X6204415Y-2144707D01*
G01X6195494Y-2156333D01*
G01X6189886Y-2169871D01*
G01X6187973Y-2184400D01*
G01X6187973Y-2184400D01*
G01X6144260Y-2184400D01*
G01X6144260Y-1855632D01*
G01X6153096Y-1844036D01*
G01X6158648Y-1830556D01*
G01X6160541Y-1816100D01*
G37*
G54D10*
G01X6160541Y-1816100D02*
G03X6144260Y-1776568I-56134J0D01*
G01X6144260Y-1401208D01*
G01X6227208Y-1318260D01*
G01X7869792Y-1318260D01*
G01X7940040Y-1388508D01*
G01X7940040Y-2319892D01*
G01X7857092Y-2402840D01*
G01X6214508Y-2402840D01*
G01X6144260Y-2332592D01*
G01X6144260Y-1855632D01*
G03X6160541Y-1816100I-39853J39532D01*
G01X6187973Y-2184400D02*
G03X6300241Y-2184400I56134J0D01*
G03X6187973Y-2184400I-56134J0D01*
G01X6204966Y-1812392D02*
G03X6317234Y-1812392I56134J0D01*
G03X6204966Y-1812392I-56134J0D01*
G01X6357366Y-2167992D02*
G03X6469634Y-2167992I56134J0D01*
G03X6357366Y-2167992I-56134J0D01*
G01X6502416Y-1453650D02*
G03X6614684Y-1453650I56134J0D01*
G03X6502416Y-1453650I-56134J0D01*
G01X6615058Y-1453642D02*
G03X6727326Y-1453642I56134J0D01*
G03X6615058Y-1453642I-56134J0D01*
G04 Copper End*

G04 Pad Start*
G54D11*
G01X4406895Y-825500D03*
G54D12*
G01X4660895Y-825500D03*
G01X5168895Y-825500D03*
G01X5676895Y-825500D03*
G54D13*
G01X2755900Y-1528000D03*
G01X2755900Y-2027999D03*
G01X6870700Y-961199D03*
G01X6870700Y-461200D03*
G01X3390900Y-961199D03*
G01X3390900Y-461200D03*
G04 Pad End*

G04 Via Start*
G54D14*
G01X1815490Y-2463800D03*
G01X4029608Y-596900D03*
G01X5546192Y-609600D03*
G01X2045310Y-2463800D03*
G01X4038600Y-2120509D03*
G01X3962400Y-2120900D03*
G01X4035962Y-2057400D03*
G01X3962400Y-2057400D03*
G01X3162300Y-2023008D03*
G01X3369793Y-2019300D03*
G01X3260146Y-2025647D03*
G01X4229100Y-2832643D03*
G01X4114568Y-2832643D03*
G01X4000500Y-2832100D03*
G01X3911600Y-2247900D03*
G01X3835400Y-2247900D03*
G01X3835400Y-2171700D03*
G01X3632200Y-2705100D03*
G01X3632200Y-2819400D03*
G01X3708400Y-2819400D03*
G01X3784600Y-2819400D03*
G01X3860800Y-2819400D03*
G01X3708400Y-2705100D03*
G01X3784600Y-2705100D03*
G01X3860800Y-2705100D03*
G01X3759200Y-2171700D03*
G01X3759200Y-2247900D03*
G01X4000500Y-2901306D03*
G01X4114568Y-2901306D03*
G01X4229100Y-2901306D03*
G01X1349705Y-1929409D03*
G01X1250873Y-1929409D03*
G01X1445181Y-1929409D03*
G01X1701373Y-2024101D03*
G01X1799371Y-2024101D03*
G01X3552292Y-1778000D03*
G01X3556000Y-1947393D03*
G01X3556000Y-1878881D03*
G01X5600700Y-2832100D03*
G01X5600700Y-2900484D03*
G01X5715000Y-2832100D03*
G01X5829958Y-2832100D03*
G01X5715000Y-2900484D03*
G01X5829958Y-2900484D03*
G01X5822197Y-2171309D03*
G01X5715000Y-2171309D03*
G01X5600700Y-2171309D03*
G01X6244107Y-2184400D03*
G01X6413500Y-2167992D03*
G01X6261100Y-1812392D03*
G01X6104407Y-1816100D03*
G01X8796401Y-1516888D03*
G01X8697277Y-1516913D03*
G01X8889896Y-1516913D03*
G01X8076590Y-2463800D03*
G01X8306410Y-2463800D03*
G01X8102600Y-1943100D03*
G01X6024093Y-2279396D03*
G01X5907067Y-2279396D03*
G01X6197600Y-2730500D03*
G01X6121400Y-2730500D03*
G01X6045200Y-2730500D03*
G01X5969000Y-2730500D03*
G01X5969000Y-2832100D03*
G01X6045200Y-2832100D03*
G01X6121400Y-2832100D03*
G01X6197600Y-2832100D03*
G01X7776108Y-241300D03*
G01X8674100Y-216764D03*
G01X6558550Y-1453650D03*
G01X6671192Y-1453642D03*
G01X8966518Y-246375D03*
G01X9084793Y-246375D03*
G01X6921500Y-1676400D03*
G01X6997700Y-1676400D03*
G01X7073900Y-1676400D03*
G01X7150100Y-1676400D03*
G01X7226300Y-1676400D03*
G01X6921500Y-1752600D03*
G01X6997700Y-1752600D03*
G01X7073900Y-1752600D03*
G01X7150100Y-1752600D03*
G01X7226300Y-1752600D03*
G01X6921500Y-1828800D03*
G01X6921500Y-1905000D03*
G01X6921500Y-1981200D03*
G01X6921500Y-2057400D03*
G01X6997700Y-1828800D03*
G01X7073900Y-1828800D03*
G01X6997700Y-1905000D03*
G01X7073900Y-1905000D03*
G01X6997700Y-1981200D03*
G01X7073900Y-1981200D03*
G01X6997700Y-2057400D03*
G01X7073900Y-2057400D03*
G01X7150100Y-2057400D03*
G01X7150100Y-1981200D03*
G01X7150100Y-1905000D03*
G01X7150100Y-1828800D03*
G01X7226300Y-1828800D03*
G01X7226300Y-1905000D03*
G01X7226300Y-1981200D03*
G01X7226300Y-2057400D03*
G01X6843876Y-1676400D03*
G01X6843876Y-1752600D03*
G01X6843876Y-1828800D03*
G01X6843876Y-1905000D03*
G01X6843876Y-1981200D03*
G01X6843876Y-2057400D03*
G01X707695Y-1074524D03*
G01X707695Y-1176904D03*
G01X707695Y-1292487D03*
G01X806693Y-1074524D03*
G01X806693Y-1176904D03*
G01X806693Y-1292487D03*
G01X915674Y-1074524D03*
G01X915674Y-1176904D03*
G01X915674Y-1292487D03*
G01X618355Y-1292487D03*
G01X707695Y-1176904D03*
G01X618355Y-1176904D03*
G01X707695Y-1074524D03*
G01X618355Y-1074524D03*
G01X618355Y-1074524D03*
G01X525368Y-1074524D03*
G01X525368Y-1176904D03*
G01X525368Y-1292487D03*
G01X707695Y-2556896D03*
G01X707695Y-2445665D03*
G01X707695Y-2663628D03*
G01X809227Y-2663628D03*
G01X809227Y-2556896D03*
G01X809227Y-2443130D03*
G01X918209Y-2443130D03*
G01X918209Y-2556896D03*
G01X918209Y-2663628D03*
G01X618355Y-2663628D03*
G01X707695Y-2556896D03*
G01X618355Y-2556896D03*
G01X618355Y-2445665D03*
G01X618355Y-2445665D03*
G01X525368Y-2445665D03*
G01X525368Y-2556896D03*
G01X525368Y-2663628D03*
G01X9161399Y-1109391D03*
G01X9161399Y-1212459D03*
G01X9065284Y-1212459D03*
G01X8970665Y-1212459D03*
G01X9065284Y-1109391D03*
G01X8970665Y-1109391D03*
G01X9261282Y-1109391D03*
G01X9261282Y-1212459D03*
G01X9354212Y-1109391D03*
G01X9354212Y-1212459D03*
G01X9161399Y-2528265D03*
G01X9161399Y-2622885D03*
G01X9067800Y-2628900D03*
G01X9067800Y-2528265D03*
G01X8972847Y-2528265D03*
G01X8972847Y-2628900D03*
G01X9263465Y-2528265D03*
G01X9263465Y-2622885D03*
G01X9364843Y-2528265D03*
G01X9364843Y-2622885D03*
G04 Via End*

M02*

