G04 Layer: TopSolderMaskLayer*
G04 EasyEDA Pro v2.2.36.7, 2025-03-08 17:24:09*
G04 Gerber Generator version 0.3*
G04 Scale: 100 percent, Rotated: No, Reflected: No*
G04 Dimensions in millimeters*
G04 Leading zeros omitted, absolute positions, 4 integers and 5 decimals*
%FSLAX45Y45*%
%MOMM*%
%AMRoundRect*1,1,$1,$2,$3*1,1,$1,$4,$5*1,1,$1,0-$2,0-$3*1,1,$1,0-$4,0-$5*20,1,$1,$2,$3,$4,$5,0*20,1,$1,$4,$5,0-$2,0-$3,0*20,1,$1,0-$2,0-$3,0-$4,0-$5,0*20,1,$1,0-$4,0-$5,$2,$3,0*4,1,4,$2,$3,$4,$5,0-$2,0-$3,0-$4,0-$5,$2,$3,0*%
%ADD10RoundRect,0.08756X0.54302X0.27302X0.54302X-0.27302*%
%ADD11O,2.11709X0.46561*%
%ADD12RoundRect,0.09388X0.57086X1.68313X0.57086X-1.68313*%
%ADD13RoundRect,0.1002X5.2839X3.59096X5.2839X-3.59096*%
%ADD14RoundRect,0.09588X-0.80286X0.80286X0.80286X0.80286*%
%ADD15C,1.7016*%
%ADD16RoundRect,0.09702X-2.75229X-1.02729X-2.75229X1.02729*%
%ADD17RoundRect,0.0982X-1.50468X-0.45468X-1.50468X0.45468*%
%ADD18RoundRect,0.09224X-1.50468X-0.45468X-1.50468X0.45468*%
%ADD19RoundRect,0.08202X-0.17179X-0.194X-0.17179X0.194*%
%ADD20RoundRect,0.08202X0.17179X0.194X0.17179X-0.194*%
%ADD21RoundRect,0.08771X0.40199X-0.27695X-0.40199X-0.27695*%
%ADD22RoundRect,0.08771X-0.27695X-0.40199X-0.27695X0.40199*%
%ADD23RoundRect,0.08771X-0.40199X0.27695X0.40199X0.27695*%
%ADD24RoundRect,0.09419X-0.8677X-0.59875X-0.8677X0.59875*%
%ADD25RoundRect,0.09131X-0.43715X-0.40514X-0.43715X0.40514*%
%ADD26RoundRect,0.09138X0.43712X0.40835X0.43712X-0.40835*%
%ADD27RoundRect,0.09138X-0.43712X-0.40835X-0.43712X0.40835*%
%ADD28RoundRect,0.08752X-0.50625X-0.30625X-0.50625X0.30625*%
%ADD29RoundRect,0.08752X0.30625X-0.50625X-0.30625X-0.50625*%
%ADD30C,1.6256*%
%ADD31RoundRect,0.09017X1.50571X0.35571X1.50571X-0.35571*%
%ADD32RoundRect,0.09874X3.02643X1.70143X3.02643X-1.70143*%
%ADD33RoundRect,0.09549X-0.86705X-0.74556X-0.86705X0.74556*%
G75*


G04 Image Start*
G36*
G01X1397000Y-590550D02*
G01X1397000Y-801981D01*
G01X1596549Y-801981D01*
G01X1596549Y-593950D01*
G01X1596549Y-385921D01*
G01X1596871Y-385599D01*
G01X1597193Y-385277D01*
G01X1620088Y-385400D01*
G01X1642982Y-385525D01*
G01X1643280Y-541496D01*
G01X1643280Y-541496D01*
G01X1643576Y-697468D01*
G01X1643994Y-700326D01*
G01X1644412Y-703183D01*
G01X1649055Y-693894D01*
G01X1653699Y-684605D01*
G01X1653699Y-684012D01*
G01X1653699Y-683418D01*
G01X1654056Y-683414D01*
G01X1654413Y-683411D01*
G01X1655008Y-682130D01*
G01X1655604Y-680847D01*
G01X1655604Y-680228D01*
G01X1655604Y-679609D01*
G01X1656080Y-679609D01*
G01X1656556Y-679609D01*
G01X1656556Y-678655D01*
G01X1656556Y-677703D01*
G01X1657033Y-677703D01*
G01X1657508Y-677703D01*
G01X1657508Y-676751D01*
G01X1657508Y-675798D01*
G01X1657985Y-675798D01*
G01X1658461Y-675798D01*
G01X1658461Y-674846D01*
G01X1658461Y-673893D01*
G01X1658937Y-673893D01*
G01X1659413Y-673893D01*
G01X1659413Y-672941D01*
G01X1659413Y-671989D01*
G01X1659890Y-671989D01*
G01X1660367Y-671989D01*
G01X1660367Y-671036D01*
G01X1660367Y-670084D01*
G01X1660842Y-670084D01*
G01X1661319Y-670084D01*
G01X1661319Y-669462D01*
G01X1661319Y-668839D01*
G01X1665129Y-661272D01*
G01X1668938Y-653706D01*
G01X1668938Y-653084D01*
G01X1668938Y-652462D01*
G01X1669415Y-652462D01*
G01X1669892Y-652462D01*
G01X1669892Y-651509D01*
G01X1669892Y-650557D01*
G01X1670367Y-650557D01*
G01X1670844Y-650557D01*
G01X1670844Y-649605D01*
G01X1670844Y-648652D01*
G01X1671320Y-648652D01*
G01X1671796Y-648652D01*
G01X1671801Y-648057D01*
G01X1671804Y-647462D01*
G01X1675610Y-639853D01*
G01X1679417Y-632244D01*
G01X1679417Y-631677D01*
G01X1679417Y-631110D01*
G01X1679773Y-630952D01*
G01X1680130Y-630793D01*
G01X1681679Y-627750D01*
G01X1683226Y-624706D01*
G01X1683226Y-624058D01*
G01X1683226Y-623411D01*
G01X1683702Y-623411D01*
G01X1684179Y-623411D01*
G01X1684179Y-622459D01*
G01X1684179Y-621506D01*
G01X1684655Y-621506D01*
G01X1685131Y-621506D01*
G01X1685131Y-620554D01*
G01X1685131Y-619602D01*
G01X1685488Y-619597D01*
G01X1685846Y-619593D01*
G01X1686441Y-618312D01*
G01X1687036Y-617030D01*
G01X1687036Y-616410D01*
G01X1687036Y-615791D01*
G01X1687512Y-615791D01*
G01X1687988Y-615791D01*
G01X1687988Y-615122D01*
G01X1687988Y-614452D01*
G01X1689060Y-612383D01*
G01X1690132Y-610314D01*
G01X1690489Y-610155D01*
G01X1690846Y-609997D01*
G01X1690846Y-609112D01*
G01X1690846Y-608227D01*
G01X1691322Y-607933D01*
G01X1691799Y-607639D01*
G01X1691799Y-606754D01*
G01X1691799Y-605869D01*
G01X1692180Y-605711D01*
G01X1692560Y-605551D01*
G01X1694084Y-602367D01*
G01X1695608Y-599182D01*
G01X1695608Y-598677D01*
G01X1695608Y-598170D01*
G01X1696085Y-598170D01*
G01X1696561Y-598170D01*
G01X1696561Y-597550D01*
G01X1696561Y-596931D01*
G01X1700847Y-588406D01*
G01X1705133Y-579882D01*
G01X1705133Y-579263D01*
G01X1705133Y-578643D01*
G01X1705610Y-578643D01*
G01X1706086Y-578643D01*
G01X1706086Y-577691D01*
G01X1706086Y-576738D01*
G01X1706443Y-576734D01*
G01X1706800Y-576731D01*
G01X1707395Y-575450D01*
G01X1707992Y-574167D01*
G01X1707992Y-573548D01*
G01X1707992Y-572929D01*
G01X1708467Y-572929D01*
G01X1708944Y-572929D01*
G01X1708944Y-571975D01*
G01X1708944Y-571023D01*
G01X1709420Y-571023D01*
G01X1709896Y-571023D01*
G01X1709896Y-570386D01*
G01X1709896Y-569747D01*
G01X1712277Y-565071D01*
G01X1714658Y-560393D01*
G01X1714658Y-559755D01*
G01X1714658Y-559118D01*
G01X1715135Y-559118D01*
G01X1715611Y-559118D01*
G01X1715611Y-558595D01*
G01X1715611Y-558073D01*
G01X1719421Y-550365D01*
G01X1723231Y-542655D01*
G01X1723231Y-542076D01*
G01X1723231Y-541496D01*
G01X1723588Y-541493D01*
G01X1723946Y-541488D01*
G01X1724541Y-540207D01*
G01X1725136Y-538925D01*
G01X1725136Y-538305D01*
G01X1725136Y-537686D01*
G01X1725613Y-537686D01*
G01X1726088Y-537686D01*
G01X1726088Y-536734D01*
G01X1726088Y-535781D01*
G01X1726565Y-535781D01*
G01X1727042Y-535781D01*
G01X1727042Y-534829D01*
G01X1727042Y-533876D01*
G01X1727517Y-533876D01*
G01X1727994Y-533876D01*
G01X1727994Y-532924D01*
G01X1727994Y-531972D01*
G01X1728350Y-531968D01*
G01X1728708Y-531963D01*
G01X1729304Y-530682D01*
G01X1729899Y-529400D01*
G01X1729899Y-528780D01*
G01X1729899Y-528161D01*
G01X1730375Y-528161D01*
G01X1730851Y-528161D01*
G01X1730851Y-527461D01*
G01X1730851Y-526761D01*
G01X1731804Y-525065D01*
G01X1732756Y-523370D01*
G01X1732756Y-522669D01*
G01X1732756Y-521970D01*
G01X1733113Y-521966D01*
G01X1733471Y-521963D01*
G01X1734066Y-520680D01*
G01X1734661Y-519398D01*
G01X1734661Y-518779D01*
G01X1734661Y-518159D01*
G01X1735138Y-518159D01*
G01X1735613Y-518159D01*
G01X1735613Y-517207D01*
G01X1735613Y-516254D01*
G01X1736090Y-516254D01*
G01X1736566Y-516254D01*
G01X1736566Y-515632D01*
G01X1736566Y-515011D01*
G01X1740376Y-507444D01*
G01X1744186Y-499878D01*
G01X1744186Y-499256D01*
G01X1744186Y-498634D01*
G01X1744543Y-498629D01*
G01X1744900Y-498626D01*
G01X1745496Y-497345D01*
G01X1746091Y-496062D01*
G01X1746091Y-495443D01*
G01X1746091Y-494824D01*
G01X1746567Y-494824D01*
G01X1747043Y-494824D01*
G01X1747043Y-493872D01*
G01X1747043Y-492918D01*
G01X1747520Y-492918D01*
G01X1747995Y-492918D01*
G01X1747993Y-492323D01*
G01X1747991Y-491728D01*
G01X1750897Y-485775D01*
G01X1753806Y-479821D01*
G01X1754235Y-478988D01*
G01X1754663Y-478154D01*
G01X1755104Y-477321D01*
G01X1755543Y-476487D01*
G01X1760818Y-465767D01*
G01X1766093Y-455047D01*
G01X1766093Y-454457D01*
G01X1766093Y-453866D01*
G01X1766570Y-453866D01*
G01X1767047Y-453866D01*
G01X1767047Y-452913D01*
G01X1767047Y-451961D01*
G01X1767522Y-451961D01*
G01X1767999Y-451961D01*
G01X1767999Y-451330D01*
G01X1767999Y-450700D01*
G01X1770856Y-445055D01*
G01X1773713Y-439412D01*
G01X1773713Y-438781D01*
G01X1773713Y-438150D01*
G01X1774190Y-438150D01*
G01X1774666Y-438150D01*
G01X1774666Y-437533D01*
G01X1774666Y-436917D01*
G01X1779429Y-427434D01*
G01X1784191Y-417952D01*
G01X1784191Y-417336D01*
G01X1784191Y-416719D01*
G01X1784667Y-416719D01*
G01X1785143Y-416719D01*
G01X1785143Y-415767D01*
G01X1785143Y-414813D01*
G01X1785620Y-414813D01*
G01X1786097Y-414813D01*
G01X1786097Y-413861D01*
G01X1786097Y-412908D01*
G01X1786572Y-412908D01*
G01X1787049Y-412908D01*
G01X1787049Y-411956D01*
G01X1787049Y-411004D01*
G01X1787525Y-411004D01*
G01X1788001Y-411004D01*
G01X1788001Y-410377D01*
G01X1788001Y-409751D01*
G01X1790379Y-405020D01*
G01X1792756Y-400288D01*
G01X1792759Y-399692D01*
G01X1792763Y-399097D01*
G01X1793240Y-399097D01*
G01X1793716Y-399097D01*
G01X1793716Y-398505D01*
G01X1793716Y-397913D01*
G01X1796860Y-391600D01*
G01X1800005Y-385286D01*
G01X1821836Y-385286D01*
G01X1843666Y-385286D01*
G01X1843960Y-385762D01*
G01X1844255Y-386238D01*
G01X1847084Y-386238D01*
G01X1849913Y-386238D01*
G01X1849913Y-387085D01*
G01X1849913Y-387932D01*
G01X1842293Y-403146D01*
G01X1834673Y-418359D01*
G01X1834673Y-418927D01*
G01X1834673Y-419497D01*
G01X1834305Y-419656D01*
G01X1833936Y-419814D01*
G01X1820969Y-445770D01*
G01X1808003Y-471725D01*
G01X1808003Y-472321D01*
G01X1808004Y-472916D01*
G01X1807527Y-472916D01*
G01X1807051Y-472916D01*
G01X1807051Y-473868D01*
G01X1807051Y-474820D01*
G01X1806694Y-474825D01*
G01X1806337Y-474829D01*
G01X1805742Y-476110D01*
G01X1805147Y-477392D01*
G01X1805147Y-477972D01*
G01X1805147Y-478551D01*
G01X1804785Y-478711D01*
G01X1804423Y-478869D01*
G01X1802399Y-482917D01*
G01X1800376Y-486966D01*
G01X1800379Y-487561D01*
G01X1800384Y-488156D01*
G01X1799907Y-488156D01*
G01X1799431Y-488156D01*
G01X1799431Y-489109D01*
G01X1799431Y-490061D01*
G01X1798954Y-490061D01*
G01X1798479Y-490061D01*
G01X1798479Y-490974D01*
G01X1798479Y-491887D01*
G01X1798117Y-492045D01*
G01X1797755Y-492205D01*
G01X1795732Y-496252D01*
G01X1793708Y-500300D01*
G01X1793711Y-500896D01*
G01X1793716Y-501491D01*
G01X1793240Y-501491D01*
G01X1792763Y-501491D01*
G01X1792763Y-502443D01*
G01X1792763Y-503397D01*
G01X1792288Y-503397D01*
G01X1791811Y-503397D01*
G01X1791811Y-504349D01*
G01X1791811Y-505301D01*
G01X1791334Y-505301D01*
G01X1790859Y-505301D01*
G01X1790859Y-506254D01*
G01X1790859Y-507206D01*
G01X1790382Y-507206D01*
G01X1789906Y-507206D01*
G01X1789906Y-508159D01*
G01X1789906Y-509111D01*
G01X1789549Y-509115D01*
G01X1789192Y-509118D01*
G01X1788596Y-510401D01*
G01X1788001Y-511682D01*
G01X1788001Y-512301D01*
G01X1788001Y-512922D01*
G01X1787525Y-512922D01*
G01X1787049Y-512922D01*
G01X1787049Y-513874D01*
G01X1787049Y-514826D01*
G01X1786572Y-514826D01*
G01X1786097Y-514826D01*
G01X1786097Y-515779D01*
G01X1786097Y-516731D01*
G01X1785620Y-516731D01*
G01X1785143Y-516731D01*
G01X1785143Y-517684D01*
G01X1785143Y-518636D01*
G01X1784667Y-518636D01*
G01X1784191Y-518636D01*
G01X1784191Y-519588D01*
G01X1784191Y-520541D01*
G01X1783715Y-520541D01*
G01X1783238Y-520541D01*
G01X1783238Y-521493D01*
G01X1783238Y-522447D01*
G01X1782763Y-522447D01*
G01X1782286Y-522447D01*
G01X1782286Y-523399D01*
G01X1782286Y-524351D01*
G01X1781810Y-524351D01*
G01X1781334Y-524351D01*
G01X1781334Y-525304D01*
G01X1781334Y-526256D01*
G01X1780857Y-526256D01*
G01X1780381Y-526256D01*
G01X1780381Y-526875D01*
G01X1780381Y-527495D01*
G01X1779786Y-528777D01*
G01X1779191Y-530059D01*
G01X1778834Y-530063D01*
G01X1778476Y-530066D01*
G01X1778476Y-531018D01*
G01X1778476Y-531972D01*
G01X1778000Y-531972D01*
G01X1777524Y-531972D01*
G01X1777524Y-532924D01*
G01X1777524Y-533876D01*
G01X1777047Y-533876D01*
G01X1776572Y-533876D01*
G01X1776572Y-534829D01*
G01X1776572Y-535781D01*
G01X1776095Y-535781D01*
G01X1775618Y-535781D01*
G01X1775618Y-536734D01*
G01X1775618Y-537686D01*
G01X1775142Y-537686D01*
G01X1774666Y-537686D01*
G01X1774666Y-538638D01*
G01X1774666Y-539591D01*
G01X1774190Y-539591D01*
G01X1773713Y-539591D01*
G01X1773713Y-540543D01*
G01X1773713Y-541496D01*
G01X1773238Y-541496D01*
G01X1772761Y-541496D01*
G01X1772761Y-542116D01*
G01X1772761Y-542735D01*
G01X1772166Y-544016D01*
G01X1771571Y-545299D01*
G01X1771213Y-545302D01*
G01X1770856Y-545306D01*
G01X1770856Y-546259D01*
G01X1770856Y-547211D01*
G01X1770379Y-547211D01*
G01X1769904Y-547211D01*
G01X1769904Y-547830D01*
G01X1769904Y-548450D01*
G01X1769309Y-549732D01*
G01X1768712Y-551013D01*
G01X1768356Y-551018D01*
G01X1767999Y-551021D01*
G01X1767999Y-551973D01*
G01X1767999Y-552925D01*
G01X1767522Y-552925D01*
G01X1767047Y-552925D01*
G01X1767047Y-553879D01*
G01X1767047Y-554831D01*
G01X1766570Y-554831D01*
G01X1766093Y-554831D01*
G01X1766093Y-555478D01*
G01X1766093Y-556126D01*
G01X1764546Y-559170D01*
G01X1762998Y-562213D01*
G01X1762641Y-562372D01*
G01X1762284Y-562530D01*
G01X1762284Y-563093D01*
G01X1762284Y-563655D01*
G01X1747043Y-594122D01*
G01X1731804Y-624588D01*
G01X1731804Y-625150D01*
G01X1731804Y-625713D01*
G01X1731446Y-625871D01*
G01X1731089Y-626030D01*
G01X1729542Y-629154D01*
G01X1727994Y-632279D01*
G01X1727994Y-632845D01*
G01X1727994Y-633412D01*
G01X1727517Y-633412D01*
G01X1727042Y-633412D01*
G01X1727042Y-634324D01*
G01X1727042Y-635238D01*
G01X1726669Y-635396D01*
G01X1726298Y-635556D01*
G01X1723812Y-640645D01*
G01X1721326Y-645735D01*
G01X1721326Y-646241D01*
G01X1721326Y-646747D01*
G01X1720850Y-646747D01*
G01X1720374Y-646747D01*
G01X1720374Y-647700D01*
G01X1720374Y-648652D01*
G01X1719897Y-648652D01*
G01X1719421Y-648652D01*
G01X1719421Y-649605D01*
G01X1719421Y-650557D01*
G01X1718945Y-650557D01*
G01X1718469Y-650557D01*
G01X1718469Y-651509D01*
G01X1718469Y-652462D01*
G01X1717992Y-652462D01*
G01X1717517Y-652462D01*
G01X1717517Y-653082D01*
G01X1717517Y-653701D01*
G01X1716921Y-654983D01*
G01X1716325Y-656264D01*
G01X1715968Y-656268D01*
G01X1715611Y-656272D01*
G01X1715611Y-657225D01*
G01X1715611Y-658177D01*
G01X1715135Y-658177D01*
G01X1714658Y-658177D01*
G01X1714658Y-658796D01*
G01X1714658Y-659416D01*
G01X1714063Y-660698D01*
G01X1713468Y-661980D01*
G01X1713111Y-661984D01*
G01X1712754Y-661987D01*
G01X1712754Y-662607D01*
G01X1712754Y-663226D01*
G01X1712158Y-664508D01*
G01X1711563Y-665789D01*
G01X1711206Y-665793D01*
G01X1710849Y-665798D01*
G01X1710849Y-666750D01*
G01X1710849Y-667702D01*
G01X1710372Y-667702D01*
G01X1709896Y-667702D01*
G01X1709896Y-668285D01*
G01X1709896Y-668867D01*
G01X1707395Y-673881D01*
G01X1704896Y-678894D01*
G01X1704538Y-679053D01*
G01X1704181Y-679212D01*
G01X1704181Y-680124D01*
G01X1704181Y-681037D01*
G01X1703704Y-681037D01*
G01X1703229Y-681037D01*
G01X1703229Y-681989D01*
G01X1703229Y-682943D01*
G01X1702752Y-682943D01*
G01X1702276Y-682943D01*
G01X1702276Y-683545D01*
G01X1702276Y-684147D01*
G01X1688465Y-711756D01*
G01X1674654Y-739363D01*
G01X1674654Y-739965D01*
G01X1674654Y-740569D01*
G01X1674178Y-740569D01*
G01X1673701Y-740569D01*
G01X1673701Y-741481D01*
G01X1673701Y-742394D01*
G01X1673344Y-742553D01*
G01X1672987Y-742711D01*
G01X1671439Y-745755D01*
G01X1669892Y-748798D01*
G01X1669892Y-749406D01*
G01X1669892Y-750014D01*
G01X1669534Y-750173D01*
G01X1669177Y-750331D01*
G01X1668105Y-752401D01*
G01X1667033Y-754469D01*
G01X1667033Y-755100D01*
G01X1667033Y-755729D01*
G01X1666667Y-755888D01*
G01X1666300Y-756047D01*
G01X1660950Y-766762D01*
G01X1655601Y-777477D01*
G01X1655602Y-778073D01*
G01X1655604Y-778669D01*
G01X1655128Y-778669D01*
G01X1654651Y-778669D01*
G01X1654651Y-779581D01*
G01X1654651Y-780494D01*
G01X1654287Y-780653D01*
G01X1653923Y-780811D01*
G01X1650951Y-786765D01*
G01X1647978Y-792718D01*
G01X1647981Y-793313D01*
G01X1647983Y-793908D01*
G01X1647508Y-793908D01*
G01X1647031Y-793908D01*
G01X1647031Y-794860D01*
G01X1647031Y-795814D01*
G01X1646674Y-795817D01*
G01X1646316Y-795821D01*
G01X1645721Y-797103D01*
G01X1645126Y-798384D01*
G01X1645126Y-799004D01*
G01X1645126Y-799623D01*
G01X1644649Y-799623D01*
G01X1644174Y-799623D01*
G01X1644174Y-800372D01*
G01X1644174Y-801120D01*
G01X1643374Y-801920D01*
G01X1643051Y-802243D01*
G01X1702038Y-802243D01*
G01X1702200Y-800576D01*
G01X1702361Y-798909D01*
G01X1702795Y-798751D01*
G01X1703229Y-798591D01*
G01X1703229Y-797719D01*
G01X1703229Y-796845D01*
G01X1703591Y-796687D01*
G01X1703951Y-796527D01*
G01X1705975Y-792480D01*
G01X1707999Y-788431D01*
G01X1707995Y-787876D01*
G01X1707992Y-787320D01*
G01X1708348Y-787162D01*
G01X1708705Y-787002D01*
G01X1710254Y-783959D01*
G01X1711801Y-780916D01*
G01X1711801Y-780308D01*
G01X1711801Y-779701D01*
G01X1712166Y-779541D01*
G01X1712533Y-779383D01*
G01X1716456Y-771525D01*
G01X1720379Y-763666D01*
G01X1720376Y-763111D01*
G01X1720374Y-762555D01*
G01X1720742Y-762396D01*
G01X1721110Y-762238D01*
G01X1755142Y-694134D01*
G01X1789175Y-626030D01*
G01X1789541Y-625871D01*
G01X1789906Y-625713D01*
G01X1789906Y-625159D01*
G01X1789906Y-624605D01*
G01X1793358Y-617698D01*
G01X1796812Y-610790D01*
G01X1797169Y-610632D01*
G01X1797526Y-610473D01*
G01X1797524Y-609917D01*
G01X1797523Y-609362D01*
G01X1800025Y-604361D01*
G01X1802526Y-599360D01*
G01X1802883Y-599202D01*
G01X1803241Y-599043D01*
G01X1803241Y-598464D01*
G01X1803241Y-597883D01*
G01X1803836Y-596602D01*
G01X1804432Y-595320D01*
G01X1804788Y-595316D01*
G01X1805147Y-595312D01*
G01X1805147Y-594611D01*
G01X1805147Y-593909D01*
G01X1806308Y-591872D01*
G01X1807469Y-589835D01*
G01X1811657Y-581500D01*
G01X1815846Y-573167D01*
G01X1816210Y-573007D01*
G01X1816576Y-572849D01*
G01X1816576Y-571937D01*
G01X1816576Y-571023D01*
G01X1817052Y-571023D01*
G01X1817529Y-571023D01*
G01X1817529Y-570071D01*
G01X1817529Y-569118D01*
G01X1818004Y-569118D01*
G01X1818481Y-569118D01*
G01X1818481Y-568499D01*
G01X1818481Y-567879D01*
G01X1819076Y-566597D01*
G01X1819671Y-565316D01*
G01X1820029Y-565313D01*
G01X1820386Y-565309D01*
G01X1820386Y-564356D01*
G01X1820386Y-563404D01*
G01X1820863Y-563404D01*
G01X1821338Y-563404D01*
G01X1821338Y-562450D01*
G01X1821338Y-561498D01*
G01X1821815Y-561498D01*
G01X1822291Y-561498D01*
G01X1822291Y-560546D01*
G01X1822291Y-559593D01*
G01X1822768Y-559593D01*
G01X1823243Y-559593D01*
G01X1823243Y-558641D01*
G01X1823243Y-557688D01*
G01X1823720Y-557688D01*
G01X1824196Y-557688D01*
G01X1824196Y-556736D01*
G01X1824196Y-555784D01*
G01X1824672Y-555784D01*
G01X1825149Y-555784D01*
G01X1825149Y-554831D01*
G01X1825149Y-553879D01*
G01X1825625Y-553879D01*
G01X1826101Y-553879D01*
G01X1826101Y-552925D01*
G01X1826101Y-551973D01*
G01X1826577Y-551973D01*
G01X1827054Y-551973D01*
G01X1827054Y-551021D01*
G01X1827054Y-550068D01*
G01X1827530Y-550068D01*
G01X1828006Y-550068D01*
G01X1828006Y-549116D01*
G01X1828006Y-548163D01*
G01X1828482Y-548163D01*
G01X1828959Y-548163D01*
G01X1828959Y-547211D01*
G01X1828959Y-546259D01*
G01X1829434Y-546259D01*
G01X1829911Y-546259D01*
G01X1829911Y-545306D01*
G01X1829911Y-544354D01*
G01X1830388Y-544354D01*
G01X1830863Y-544354D01*
G01X1830863Y-543401D01*
G01X1830863Y-542449D01*
G01X1831340Y-542449D01*
G01X1831816Y-542449D01*
G01X1831816Y-541496D01*
G01X1831816Y-540543D01*
G01X1832293Y-540543D01*
G01X1832768Y-540543D01*
G01X1832768Y-539591D01*
G01X1832768Y-538638D01*
G01X1833245Y-538638D01*
G01X1833721Y-538638D01*
G01X1833721Y-537686D01*
G01X1833721Y-536734D01*
G01X1834197Y-536734D01*
G01X1834673Y-536734D01*
G01X1834673Y-535781D01*
G01X1834673Y-534829D01*
G01X1835150Y-534829D01*
G01X1835625Y-534829D01*
G01X1835625Y-533876D01*
G01X1835625Y-532924D01*
G01X1836102Y-532924D01*
G01X1836579Y-532924D01*
G01X1836579Y-531972D01*
G01X1836579Y-531018D01*
G01X1837055Y-531018D01*
G01X1837531Y-531018D01*
G01X1837531Y-530066D01*
G01X1837531Y-529113D01*
G01X1838007Y-529113D01*
G01X1838484Y-529113D01*
G01X1838484Y-528161D01*
G01X1838484Y-527209D01*
G01X1838959Y-527209D01*
G01X1839436Y-527209D01*
G01X1839436Y-526256D01*
G01X1839436Y-525304D01*
G01X1839793Y-525300D01*
G01X1840151Y-525297D01*
G01X1840746Y-524014D01*
G01X1841341Y-522732D01*
G01X1841341Y-522113D01*
G01X1841341Y-521493D01*
G01X1841818Y-521493D01*
G01X1842293Y-521493D01*
G01X1842293Y-520541D01*
G01X1842293Y-519588D01*
G01X1842770Y-519588D01*
G01X1843246Y-519588D01*
G01X1843246Y-518636D01*
G01X1843246Y-517684D01*
G01X1843722Y-517684D01*
G01X1844198Y-517684D01*
G01X1844198Y-516731D01*
G01X1844198Y-515779D01*
G01X1844675Y-515779D01*
G01X1845150Y-515779D01*
G01X1845150Y-514826D01*
G01X1845150Y-513874D01*
G01X1845509Y-513870D01*
G01X1845865Y-513866D01*
G01X1846461Y-512584D01*
G01X1847056Y-511302D01*
G01X1847056Y-510682D01*
G01X1847056Y-510063D01*
G01X1847532Y-510063D01*
G01X1848009Y-510063D01*
G01X1848009Y-509111D01*
G01X1848009Y-508159D01*
G01X1848484Y-508159D01*
G01X1848961Y-508159D01*
G01X1848961Y-507246D01*
G01X1848961Y-506332D01*
G01X1849318Y-506174D01*
G01X1849676Y-506016D01*
G01X1851223Y-502972D01*
G01X1852771Y-499928D01*
G01X1852771Y-499321D01*
G01X1852771Y-498713D01*
G01X1853139Y-498554D01*
G01X1853507Y-498396D01*
G01X1860862Y-483632D01*
G01X1868215Y-468868D01*
G01X1868471Y-468629D01*
G01X1868726Y-468392D01*
G01X1869799Y-466249D01*
G01X1870871Y-464105D01*
G01X1870869Y-463550D01*
G01X1870868Y-462995D01*
G01X1871235Y-462835D01*
G01X1871600Y-462677D01*
G01X1875631Y-454580D01*
G01X1879662Y-446484D01*
G01X1880028Y-446325D01*
G01X1880393Y-446167D01*
G01X1880393Y-445254D01*
G01X1880393Y-444342D01*
G01X1880870Y-444342D01*
G01X1881346Y-444342D01*
G01X1881346Y-443388D01*
G01X1881346Y-442436D01*
G01X1881822Y-442436D01*
G01X1882298Y-442436D01*
G01X1882298Y-441483D01*
G01X1882298Y-440531D01*
G01X1882775Y-440531D01*
G01X1883252Y-440531D01*
G01X1883252Y-439579D01*
G01X1883252Y-438626D01*
G01X1883727Y-438626D01*
G01X1884204Y-438626D01*
G01X1884204Y-437674D01*
G01X1884204Y-436721D01*
G01X1884680Y-436721D01*
G01X1885156Y-436721D01*
G01X1885156Y-435769D01*
G01X1885156Y-434817D01*
G01X1885632Y-434817D01*
G01X1886109Y-434817D01*
G01X1886109Y-433863D01*
G01X1886109Y-432911D01*
G01X1886584Y-432911D01*
G01X1887061Y-432911D01*
G01X1887061Y-431958D01*
G01X1887061Y-431006D01*
G01X1887537Y-431006D01*
G01X1888014Y-431006D01*
G01X1888014Y-430054D01*
G01X1888014Y-429101D01*
G01X1888489Y-429101D01*
G01X1888966Y-429101D01*
G01X1888966Y-428149D01*
G01X1888966Y-427196D01*
G01X1889443Y-427196D01*
G01X1889918Y-427196D01*
G01X1889918Y-426244D01*
G01X1889918Y-425292D01*
G01X1890395Y-425292D01*
G01X1890871Y-425292D01*
G01X1890871Y-424338D01*
G01X1890871Y-423386D01*
G01X1891347Y-423386D01*
G01X1891823Y-423386D01*
G01X1891823Y-422433D01*
G01X1891823Y-421481D01*
G01X1892300Y-421481D01*
G01X1892777Y-421481D01*
G01X1892777Y-420529D01*
G01X1892777Y-419576D01*
G01X1893252Y-419576D01*
G01X1893729Y-419576D01*
G01X1893729Y-418624D01*
G01X1893729Y-417671D01*
G01X1894205Y-417671D01*
G01X1894681Y-417671D01*
G01X1894681Y-416719D01*
G01X1894681Y-415767D01*
G01X1895157Y-415767D01*
G01X1895634Y-415767D01*
G01X1895634Y-414813D01*
G01X1895634Y-413861D01*
G01X1896109Y-413861D01*
G01X1896586Y-413861D01*
G01X1896586Y-412908D01*
G01X1896586Y-411956D01*
G01X1897062Y-411956D01*
G01X1897539Y-411956D01*
G01X1897539Y-411004D01*
G01X1897539Y-410051D01*
G01X1898014Y-410051D01*
G01X1898491Y-410051D01*
G01X1898491Y-409099D01*
G01X1898491Y-408146D01*
G01X1898968Y-408146D01*
G01X1899443Y-408146D01*
G01X1899443Y-407194D01*
G01X1899443Y-406242D01*
G01X1899920Y-406242D01*
G01X1900396Y-406242D01*
G01X1900396Y-405328D01*
G01X1900396Y-404415D01*
G01X1900753Y-404257D01*
G01X1901110Y-404098D01*
G01X1902182Y-402028D01*
G01X1903254Y-399960D01*
G01X1903254Y-399291D01*
G01X1903254Y-398621D01*
G01X1903730Y-398621D01*
G01X1904206Y-398621D01*
G01X1904206Y-397669D01*
G01X1904206Y-396717D01*
G01X1904682Y-396717D01*
G01X1905159Y-396717D01*
G01X1905159Y-395763D01*
G01X1905159Y-394811D01*
G01X1905634Y-394811D01*
G01X1906111Y-394811D01*
G01X1906111Y-393858D01*
G01X1906111Y-392906D01*
G01X1906468Y-392903D01*
G01X1906826Y-392899D01*
G01X1907421Y-391617D01*
G01X1908016Y-390334D01*
G01X1908016Y-389715D01*
G01X1908016Y-389096D01*
G01X1908493Y-389096D01*
G01X1908968Y-389096D01*
G01X1908968Y-388348D01*
G01X1908968Y-387599D01*
G01X1909606Y-386962D01*
G01X1910243Y-386324D01*
G01X1915916Y-386011D01*
G01X1921589Y-385696D01*
G01X1937543Y-385349D01*
G01X1953497Y-385002D01*
G01X1955403Y-385025D01*
G01X1957308Y-385048D01*
G01X1957662Y-516017D01*
G01X1957662Y-516017D01*
G01X1958017Y-646985D01*
G01X1958376Y-671036D01*
G01X1958736Y-695086D01*
G01X1960082Y-692229D01*
G01X1961427Y-689372D01*
G01X1962344Y-687540D01*
G01X1963261Y-685710D01*
G01X1963261Y-685040D01*
G01X1963261Y-684371D01*
G01X1963737Y-684371D01*
G01X1964214Y-684371D01*
G01X1964214Y-683418D01*
G01X1964214Y-682466D01*
G01X1964689Y-682466D01*
G01X1965166Y-682466D01*
G01X1965166Y-681514D01*
G01X1965166Y-680561D01*
G01X1965643Y-680561D01*
G01X1966118Y-680561D01*
G01X1966118Y-679840D01*
G01X1966118Y-679119D01*
G01X1966535Y-678293D01*
G01X1966951Y-677465D01*
G01X1967964Y-675397D01*
G01X1968976Y-673327D01*
G01X1968976Y-672658D01*
G01X1968976Y-671989D01*
G01X1969452Y-671989D01*
G01X1969928Y-671989D01*
G01X1969928Y-671036D01*
G01X1969928Y-670084D01*
G01X1970405Y-670084D01*
G01X1970880Y-670084D01*
G01X1970880Y-669130D01*
G01X1970880Y-668178D01*
G01X1971357Y-668178D01*
G01X1971834Y-668178D01*
G01X1971834Y-667226D01*
G01X1971834Y-666273D01*
G01X1972310Y-666273D01*
G01X1972786Y-666273D01*
G01X1972786Y-665552D01*
G01X1972786Y-664831D01*
G01X1973208Y-664005D01*
G01X1973629Y-663178D01*
G01X1975113Y-660134D01*
G01X1976596Y-657091D01*
G01X1976596Y-656443D01*
G01X1976596Y-655796D01*
G01X1977073Y-655796D01*
G01X1977548Y-655796D01*
G01X1977548Y-654843D01*
G01X1977548Y-653891D01*
G01X1978025Y-653891D01*
G01X1978501Y-653891D01*
G01X1978501Y-653170D01*
G01X1978501Y-652449D01*
G01X1978922Y-651623D01*
G01X1979344Y-650795D01*
G01X1980828Y-647752D01*
G01X1982311Y-644708D01*
G01X1982311Y-644061D01*
G01X1982311Y-643414D01*
G01X1982787Y-643414D01*
G01X1983264Y-643414D01*
G01X1983264Y-642461D01*
G01X1983264Y-641509D01*
G01X1983739Y-641509D01*
G01X1984216Y-641509D01*
G01X1984216Y-640585D01*
G01X1984216Y-639659D01*
G01X1984692Y-639365D01*
G01X1985168Y-639071D01*
G01X1985168Y-638147D01*
G01X1985168Y-637222D01*
G01X1985644Y-637222D01*
G01X1986121Y-637222D01*
G01X1986121Y-636522D01*
G01X1986121Y-635822D01*
G01X1987073Y-634126D01*
G01X1988026Y-632431D01*
G01X1988026Y-631731D01*
G01X1988026Y-631031D01*
G01X1988502Y-631031D01*
G01X1988978Y-631031D01*
G01X1988978Y-630079D01*
G01X1988978Y-629127D01*
G01X1989455Y-629127D01*
G01X1989930Y-629127D01*
G01X1989930Y-628173D01*
G01X1989930Y-627221D01*
G01X1990407Y-627221D01*
G01X1990884Y-627221D01*
G01X1990884Y-626500D01*
G01X1990884Y-625779D01*
G01X1991305Y-624952D01*
G01X1991727Y-624126D01*
G01X1993210Y-621082D01*
G01X1994693Y-618039D01*
G01X1994693Y-617391D01*
G01X1994693Y-616743D01*
G01X1995169Y-616743D01*
G01X1995646Y-616743D01*
G01X1995646Y-615791D01*
G01X1995646Y-614839D01*
G01X1996123Y-614839D01*
G01X1996598Y-614839D01*
G01X1996598Y-614118D01*
G01X1996598Y-613397D01*
G01X1997058Y-612570D01*
G01X1997516Y-611742D01*
G01X1998486Y-609629D01*
G01X1999455Y-607516D01*
G01X1999455Y-606891D01*
G01X1999455Y-606266D01*
G01X1999932Y-606266D01*
G01X2000409Y-606266D01*
G01X2000409Y-605314D01*
G01X2000409Y-604361D01*
G01X2000885Y-604361D01*
G01X2001361Y-604361D01*
G01X2001361Y-603409D01*
G01X2001361Y-602456D01*
G01X2001837Y-602456D01*
G01X2002314Y-602456D01*
G01X2002314Y-601735D01*
G01X2002314Y-601015D01*
G01X2002730Y-600187D01*
G01X2003147Y-599360D01*
G01X2004159Y-597292D01*
G01X2005171Y-595222D01*
G01X2005171Y-594553D01*
G01X2005171Y-593884D01*
G01X2005648Y-593884D01*
G01X2006123Y-593884D01*
G01X2006123Y-592931D01*
G01X2006123Y-591979D01*
G01X2006600Y-591979D01*
G01X2007076Y-591979D01*
G01X2007076Y-591025D01*
G01X2007076Y-590073D01*
G01X2007552Y-590073D01*
G01X2008028Y-590073D01*
G01X2008028Y-589352D01*
G01X2008028Y-588631D01*
G01X2008450Y-587805D01*
G01X2008871Y-586978D01*
G01X2010356Y-583934D01*
G01X2011839Y-580891D01*
G01X2011839Y-580244D01*
G01X2011839Y-579596D01*
G01X2012314Y-579596D01*
G01X2012791Y-579596D01*
G01X2012791Y-578643D01*
G01X2012791Y-577691D01*
G01X2013267Y-577691D01*
G01X2013744Y-577691D01*
G01X2013744Y-576970D01*
G01X2013744Y-576249D01*
G01X2014160Y-575422D01*
G01X2014576Y-574596D01*
G01X2015589Y-572526D01*
G01X2016601Y-570457D01*
G01X2016601Y-569788D01*
G01X2016601Y-569118D01*
G01X2017077Y-569118D01*
G01X2017553Y-569118D01*
G01X2017553Y-568166D01*
G01X2017553Y-567213D01*
G01X2018030Y-567213D01*
G01X2018506Y-567213D01*
G01X2018506Y-566544D01*
G01X2018506Y-565875D01*
G01X2019458Y-563925D01*
G01X2020411Y-561975D01*
G01X2021364Y-560025D01*
G01X2022316Y-558075D01*
G01X2022316Y-557405D01*
G01X2022316Y-556736D01*
G01X2022792Y-556736D01*
G01X2023269Y-556736D01*
G01X2023269Y-555784D01*
G01X2023269Y-554831D01*
G01X2023744Y-554831D01*
G01X2024221Y-554831D01*
G01X2024221Y-553907D01*
G01X2024221Y-552982D01*
G01X2024698Y-552688D01*
G01X2025173Y-552393D01*
G01X2025173Y-551469D01*
G01X2025173Y-550545D01*
G01X2025650Y-550545D01*
G01X2026126Y-550545D01*
G01X2026126Y-549844D01*
G01X2026126Y-549145D01*
G01X2027078Y-547449D01*
G01X2028031Y-545753D01*
G01X2028031Y-545053D01*
G01X2028031Y-544354D01*
G01X2028507Y-544354D01*
G01X2028983Y-544354D01*
G01X2028983Y-543401D01*
G01X2028983Y-542449D01*
G01X2029460Y-542449D01*
G01X2029935Y-542449D01*
G01X2029935Y-541524D01*
G01X2029935Y-540600D01*
G01X2030412Y-540305D01*
G01X2030889Y-540011D01*
G01X2030889Y-539087D01*
G01X2030889Y-538163D01*
G01X2031364Y-538163D01*
G01X2031841Y-538163D01*
G01X2031841Y-537238D01*
G01X2031841Y-536313D01*
G01X2032317Y-536019D01*
G01X2032794Y-535725D01*
G01X2032794Y-534801D01*
G01X2032794Y-533876D01*
G01X2033269Y-533876D01*
G01X2033746Y-533876D01*
G01X2033746Y-532924D01*
G01X2033746Y-531972D01*
G01X2034223Y-531972D01*
G01X2034698Y-531972D01*
G01X2034698Y-531018D01*
G01X2034698Y-530066D01*
G01X2035175Y-530066D01*
G01X2035651Y-530066D01*
G01X2035651Y-528876D01*
G01X2035651Y-527684D01*
G01X2036127Y-527684D01*
G01X2036603Y-527684D01*
G01X2036603Y-526985D01*
G01X2036603Y-526285D01*
G01X2037556Y-524589D01*
G01X2038508Y-522893D01*
G01X2038508Y-522194D01*
G01X2038508Y-521493D01*
G01X2038985Y-521493D01*
G01X2039460Y-521493D01*
G01X2039460Y-520541D01*
G01X2039460Y-519588D01*
G01X2039937Y-519588D01*
G01X2040414Y-519588D01*
G01X2040414Y-518867D01*
G01X2040414Y-518147D01*
G01X2040830Y-517320D01*
G01X2041247Y-516493D01*
G01X2042258Y-514424D01*
G01X2043271Y-512354D01*
G01X2043271Y-511685D01*
G01X2043271Y-511016D01*
G01X2043748Y-511016D01*
G01X2044223Y-511016D01*
G01X2044223Y-510063D01*
G01X2044223Y-509111D01*
G01X2044700Y-509111D01*
G01X2045176Y-509111D01*
G01X2045176Y-508159D01*
G01X2045176Y-507206D01*
G01X2045652Y-507206D01*
G01X2046128Y-507206D01*
G01X2046144Y-506372D01*
G01X2046158Y-505539D01*
G01X2047573Y-502694D01*
G01X2048985Y-499849D01*
G01X2048985Y-499241D01*
G01X2048985Y-498634D01*
G01X2049462Y-498634D01*
G01X2049939Y-498634D01*
G01X2049939Y-497681D01*
G01X2049939Y-496729D01*
G01X2050414Y-496729D01*
G01X2050891Y-496729D01*
G01X2050891Y-496103D01*
G01X2050891Y-495479D01*
G01X2051866Y-493365D01*
G01X2052842Y-491251D01*
G01X2053771Y-489421D01*
G01X2054701Y-487590D01*
G01X2054701Y-486921D01*
G01X2054701Y-486251D01*
G01X2055177Y-486251D01*
G01X2055653Y-486251D01*
G01X2055653Y-485299D01*
G01X2055653Y-484347D01*
G01X2056130Y-484347D01*
G01X2056606Y-484347D01*
G01X2056621Y-483513D01*
G01X2056635Y-482680D01*
G01X2058050Y-479833D01*
G01X2059464Y-476988D01*
G01X2059464Y-476381D01*
G01X2059464Y-475774D01*
G01X2059939Y-475774D01*
G01X2060416Y-475774D01*
G01X2060416Y-474820D01*
G01X2060416Y-473868D01*
G01X2060892Y-473868D01*
G01X2061369Y-473868D01*
G01X2061369Y-473147D01*
G01X2061369Y-472427D01*
G01X2061827Y-471600D01*
G01X2062286Y-470773D01*
G01X2063256Y-468660D01*
G01X2064226Y-466546D01*
G01X2064226Y-465921D01*
G01X2064226Y-465295D01*
G01X2064703Y-465295D01*
G01X2065178Y-465295D01*
G01X2065178Y-464343D01*
G01X2065178Y-463391D01*
G01X2065655Y-463391D01*
G01X2066131Y-463391D01*
G01X2066131Y-462438D01*
G01X2066131Y-461486D01*
G01X2066607Y-461486D01*
G01X2067083Y-461486D01*
G01X2067083Y-460765D01*
G01X2067083Y-460044D01*
G01X2067500Y-459217D01*
G01X2067917Y-458391D01*
G01X2068929Y-456321D01*
G01X2069941Y-454252D01*
G01X2069941Y-453583D01*
G01X2069941Y-452913D01*
G01X2070417Y-452913D01*
G01X2070894Y-452913D01*
G01X2070894Y-451961D01*
G01X2070894Y-451008D01*
G01X2071369Y-451008D01*
G01X2071846Y-451008D01*
G01X2071846Y-450056D01*
G01X2071846Y-449104D01*
G01X2072322Y-449104D01*
G01X2072798Y-449104D01*
G01X2072798Y-448383D01*
G01X2072798Y-447662D01*
G01X2073349Y-446596D01*
G01X2073900Y-445532D01*
G01X2074302Y-444704D01*
G01X2074703Y-443878D01*
G01X2074703Y-443157D01*
G01X2074703Y-442436D01*
G01X2075180Y-442436D01*
G01X2075656Y-442436D01*
G01X2075656Y-441483D01*
G01X2075656Y-440531D01*
G01X2076132Y-440531D01*
G01X2076608Y-440531D01*
G01X2076608Y-439579D01*
G01X2076608Y-438626D01*
G01X2077085Y-438626D01*
G01X2077560Y-438626D01*
G01X2077560Y-437957D01*
G01X2077560Y-437288D01*
G01X2078514Y-435338D01*
G01X2079466Y-433388D01*
G01X2080419Y-431438D01*
G01X2081371Y-429488D01*
G01X2081371Y-428818D01*
G01X2081371Y-428149D01*
G01X2081847Y-428149D01*
G01X2082323Y-428149D01*
G01X2082323Y-427196D01*
G01X2082323Y-426244D01*
G01X2082799Y-426244D01*
G01X2083276Y-426244D01*
G01X2083276Y-425523D01*
G01X2083276Y-424802D01*
G01X2083697Y-423975D01*
G01X2084119Y-423148D01*
G01X2085602Y-420104D01*
G01X2087085Y-417061D01*
G01X2087085Y-416414D01*
G01X2087085Y-415767D01*
G01X2087562Y-415767D01*
G01X2088039Y-415767D01*
G01X2088039Y-414841D01*
G01X2088039Y-413917D01*
G01X2088515Y-413623D01*
G01X2088991Y-413329D01*
G01X2088991Y-412404D01*
G01X2088991Y-411479D01*
G01X2089467Y-411479D01*
G01X2089944Y-411479D01*
G01X2089944Y-410555D01*
G01X2089944Y-409631D01*
G01X2090419Y-409337D01*
G01X2090896Y-409042D01*
G01X2090896Y-408118D01*
G01X2090896Y-407194D01*
G01X2091372Y-407194D01*
G01X2091848Y-407194D01*
G01X2091848Y-406242D01*
G01X2091848Y-405288D01*
G01X2092324Y-405288D01*
G01X2092801Y-405288D01*
G01X2092801Y-404336D01*
G01X2092801Y-403383D01*
G01X2093278Y-403383D01*
G01X2093753Y-403383D01*
G01X2093753Y-402662D01*
G01X2093753Y-401942D01*
G01X2094175Y-401115D01*
G01X2094596Y-400288D01*
G01X2096080Y-397244D01*
G01X2097564Y-394200D01*
G01X2097564Y-393553D01*
G01X2097564Y-392906D01*
G01X2098040Y-392906D01*
G01X2098516Y-392906D01*
G01X2098516Y-391954D01*
G01X2098516Y-391001D01*
G01X2098992Y-391001D01*
G01X2099469Y-391001D01*
G01X2099469Y-389811D01*
G01X2099469Y-388620D01*
G01X2099944Y-388620D01*
G01X2100421Y-388620D01*
G01X2100437Y-387787D01*
G01X2100451Y-386953D01*
G01X2101084Y-386120D01*
G01X2101716Y-385286D01*
G01X2125834Y-385286D01*
G01X2149951Y-385286D01*
G01X2149951Y-594112D01*
G01X2149951Y-802939D01*
G01X2148879Y-803199D01*
G01X2147807Y-803459D01*
G01X2124710Y-803327D01*
G01X2101611Y-803195D01*
G01X2101288Y-704373D01*
G01X2100964Y-605551D01*
G01X2100651Y-550188D01*
G01X2100336Y-494824D01*
G01X2099903Y-494824D01*
G01X2099469Y-494824D01*
G01X2099469Y-495776D01*
G01X2099469Y-496729D01*
G01X2098992Y-496729D01*
G01X2098516Y-496729D01*
G01X2098516Y-497681D01*
G01X2098516Y-498634D01*
G01X2098040Y-498634D01*
G01X2097564Y-498634D01*
G01X2097564Y-499354D01*
G01X2097564Y-500075D01*
G01X2097146Y-500902D01*
G01X2096730Y-501730D01*
G01X2095718Y-503798D01*
G01X2094706Y-505867D01*
G01X2094706Y-506537D01*
G01X2094706Y-507206D01*
G01X2094230Y-507206D01*
G01X2093753Y-507206D01*
G01X2093753Y-508159D01*
G01X2093753Y-509111D01*
G01X2093278Y-509111D01*
G01X2092801Y-509111D01*
G01X2092801Y-509832D01*
G01X2092801Y-510553D01*
G01X2092373Y-511379D01*
G01X2091946Y-512207D01*
G01X2089989Y-516254D01*
G01X2088030Y-520303D01*
G01X2088035Y-520898D01*
G01X2088039Y-521493D01*
G01X2087562Y-521493D01*
G01X2087085Y-521493D01*
G01X2087085Y-522447D01*
G01X2087085Y-523399D01*
G01X2086610Y-523399D01*
G01X2086133Y-523399D01*
G01X2086133Y-524120D01*
G01X2086133Y-524840D01*
G01X2085675Y-525667D01*
G01X2085216Y-526494D01*
G01X2084246Y-528607D01*
G01X2083276Y-530721D01*
G01X2083276Y-531346D01*
G01X2083276Y-531972D01*
G01X2082799Y-531972D01*
G01X2082323Y-531972D01*
G01X2082323Y-532924D01*
G01X2082323Y-533876D01*
G01X2081847Y-533876D01*
G01X2081371Y-533876D01*
G01X2081371Y-534829D01*
G01X2081371Y-535781D01*
G01X2080894Y-535781D01*
G01X2080419Y-535781D01*
G01X2080419Y-536502D01*
G01X2080419Y-537223D01*
G01X2079959Y-538050D01*
G01X2079501Y-538876D01*
G01X2078531Y-540990D01*
G01X2077560Y-543104D01*
G01X2077560Y-543728D01*
G01X2077560Y-544354D01*
G01X2077085Y-544354D01*
G01X2076608Y-544354D01*
G01X2076608Y-545306D01*
G01X2076608Y-546259D01*
G01X2076132Y-546259D01*
G01X2075656Y-546259D01*
G01X2075656Y-547211D01*
G01X2075656Y-548163D01*
G01X2075180Y-548163D01*
G01X2074703Y-548163D01*
G01X2074703Y-549088D01*
G01X2074703Y-550013D01*
G01X2074228Y-550307D01*
G01X2073751Y-550601D01*
G01X2073751Y-551526D01*
G01X2073751Y-552450D01*
G01X2073274Y-552450D01*
G01X2072798Y-552450D01*
G01X2072798Y-553149D01*
G01X2072798Y-553850D01*
G01X2071846Y-555546D01*
G01X2070894Y-557242D01*
G01X2070894Y-557941D01*
G01X2070894Y-558641D01*
G01X2070417Y-558641D01*
G01X2069941Y-558641D01*
G01X2069941Y-559593D01*
G01X2069941Y-560546D01*
G01X2069465Y-560546D01*
G01X2068989Y-560546D01*
G01X2068989Y-561498D01*
G01X2068989Y-562450D01*
G01X2068512Y-562450D01*
G01X2068035Y-562450D01*
G01X2068035Y-563171D01*
G01X2068035Y-563892D01*
G01X2067619Y-564720D01*
G01X2067203Y-565546D01*
G01X2066191Y-567616D01*
G01X2065178Y-569684D01*
G01X2065178Y-570354D01*
G01X2065178Y-571023D01*
G01X2064703Y-571023D01*
G01X2064226Y-571023D01*
G01X2064226Y-571975D01*
G01X2064226Y-572929D01*
G01X2063750Y-572929D01*
G01X2063273Y-572929D01*
G01X2063273Y-573881D01*
G01X2063273Y-574834D01*
G01X2062798Y-574834D01*
G01X2062321Y-574834D01*
G01X2062321Y-575555D01*
G01X2062321Y-576275D01*
G01X2061899Y-577102D01*
G01X2061478Y-577929D01*
G01X2059995Y-580973D01*
G01X2058510Y-584017D01*
G01X2058510Y-584664D01*
G01X2058510Y-585311D01*
G01X2058035Y-585311D01*
G01X2057558Y-585311D01*
G01X2057558Y-586263D01*
G01X2057558Y-587216D01*
G01X2057082Y-587216D01*
G01X2056606Y-587216D01*
G01X2056606Y-587937D01*
G01X2056606Y-588658D01*
G01X2056184Y-589484D01*
G01X2055762Y-590312D01*
G01X2054279Y-593355D01*
G01X2052796Y-596399D01*
G01X2052796Y-597046D01*
G01X2052796Y-597693D01*
G01X2052319Y-597693D01*
G01X2051844Y-597693D01*
G01X2051844Y-598646D01*
G01X2051844Y-599598D01*
G01X2051367Y-599598D01*
G01X2050891Y-599598D01*
G01X2050891Y-600523D01*
G01X2050891Y-601447D01*
G01X2050414Y-601742D01*
G01X2049939Y-602036D01*
G01X2049939Y-602960D01*
G01X2049939Y-603884D01*
G01X2049462Y-603884D01*
G01X2048985Y-603884D01*
G01X2048985Y-604810D01*
G01X2048985Y-605734D01*
G01X2048510Y-606028D01*
G01X2048033Y-606322D01*
G01X2048033Y-607247D01*
G01X2048033Y-608171D01*
G01X2047557Y-608171D01*
G01X2047081Y-608171D01*
G01X2047081Y-609123D01*
G01X2047081Y-610077D01*
G01X2046605Y-610077D01*
G01X2046128Y-610077D01*
G01X2046128Y-611029D01*
G01X2046128Y-611981D01*
G01X2045652Y-611981D01*
G01X2045176Y-611981D01*
G01X2045176Y-612702D01*
G01X2045176Y-613423D01*
G01X2044759Y-614250D01*
G01X2044343Y-615076D01*
G01X2043330Y-617146D01*
G01X2042319Y-619214D01*
G01X2042319Y-619885D01*
G01X2042319Y-620554D01*
G01X2041842Y-620554D01*
G01X2041366Y-620554D01*
G01X2041366Y-621506D01*
G01X2041366Y-622459D01*
G01X2040889Y-622459D01*
G01X2040414Y-622459D01*
G01X2040414Y-623411D01*
G01X2040414Y-624364D01*
G01X2039937Y-624364D01*
G01X2039460Y-624364D01*
G01X2039460Y-625316D01*
G01X2039460Y-626268D01*
G01X2038985Y-626268D01*
G01X2038508Y-626268D01*
G01X2038508Y-626989D01*
G01X2038508Y-627710D01*
G01X2038092Y-628537D01*
G01X2037675Y-629364D01*
G01X2036662Y-631433D01*
G01X2035651Y-633502D01*
G01X2035651Y-634172D01*
G01X2035651Y-634841D01*
G01X2035175Y-634841D01*
G01X2034698Y-634841D01*
G01X2034698Y-635793D01*
G01X2034698Y-636746D01*
G01X2034223Y-636746D01*
G01X2033746Y-636746D01*
G01X2033746Y-637698D01*
G01X2033746Y-638651D01*
G01X2033269Y-638651D01*
G01X2032794Y-638651D01*
G01X2032794Y-639576D01*
G01X2032794Y-640500D01*
G01X2032317Y-640794D01*
G01X2031841Y-641089D01*
G01X2031841Y-642013D01*
G01X2031841Y-642937D01*
G01X2031364Y-642937D01*
G01X2030889Y-642937D01*
G01X2030889Y-643862D01*
G01X2030889Y-644786D01*
G01X2030412Y-645081D01*
G01X2029935Y-645375D01*
G01X2029935Y-646299D01*
G01X2029935Y-647223D01*
G01X2029460Y-647223D01*
G01X2028983Y-647223D01*
G01X2028983Y-648176D01*
G01X2028983Y-649128D01*
G01X2028507Y-649128D01*
G01X2028031Y-649128D01*
G01X2028031Y-650080D01*
G01X2028031Y-651034D01*
G01X2027555Y-651034D01*
G01X2027078Y-651034D01*
G01X2027078Y-651755D01*
G01X2027078Y-652476D01*
G01X2026662Y-653302D01*
G01X2026245Y-654129D01*
G01X2025233Y-656198D01*
G01X2024221Y-658268D01*
G01X2024221Y-658937D01*
G01X2024221Y-659605D01*
G01X2023744Y-659605D01*
G01X2023269Y-659605D01*
G01X2023269Y-660559D01*
G01X2023269Y-661511D01*
G01X2022792Y-661511D01*
G01X2022316Y-661511D01*
G01X2022316Y-662464D01*
G01X2022316Y-663416D01*
G01X2021839Y-663416D01*
G01X2021364Y-663416D01*
G01X2021364Y-664137D01*
G01X2021364Y-664858D01*
G01X2020942Y-665684D01*
G01X2020521Y-666512D01*
G01X2019036Y-669555D01*
G01X2017553Y-672599D01*
G01X2017553Y-673246D01*
G01X2017553Y-673893D01*
G01X2017077Y-673893D01*
G01X2016601Y-673893D01*
G01X2016601Y-674846D01*
G01X2016601Y-675798D01*
G01X2016125Y-675798D01*
G01X2015648Y-675798D01*
G01X2015648Y-676519D01*
G01X2015648Y-677240D01*
G01X2015227Y-678068D01*
G01X2014805Y-678894D01*
G01X2013322Y-681937D01*
G01X2011839Y-684981D01*
G01X2011839Y-685628D01*
G01X2011839Y-686276D01*
G01X2011362Y-686276D01*
G01X2010886Y-686276D01*
G01X2010886Y-687228D01*
G01X2010886Y-688180D01*
G01X2010410Y-688180D01*
G01X2009934Y-688180D01*
G01X2009934Y-688901D01*
G01X2009934Y-689622D01*
G01X2009475Y-690450D01*
G01X2009015Y-691277D01*
G01X2008046Y-693390D01*
G01X2007076Y-695504D01*
G01X2007076Y-696128D01*
G01X2007076Y-696753D01*
G01X2006718Y-696757D01*
G01X2006361Y-696761D01*
G01X2005766Y-698043D01*
G01X2005171Y-699325D01*
G01X2005171Y-699944D01*
G01X2005171Y-700564D01*
G01X2004694Y-700564D01*
G01X2004219Y-700564D01*
G01X2004219Y-701516D01*
G01X2004219Y-702468D01*
G01X2003742Y-702468D01*
G01X2003266Y-702468D01*
G01X2003266Y-703093D01*
G01X2003266Y-703719D01*
G01X2002314Y-705689D01*
G01X2001361Y-707661D01*
G01X2001361Y-708399D01*
G01X2001361Y-709136D01*
G01X2000885Y-709136D01*
G01X2000409Y-709136D01*
G01X2000409Y-710089D01*
G01X2000409Y-711041D01*
G01X1999932Y-711041D01*
G01X1999455Y-711041D01*
G01X1999455Y-711993D01*
G01X1999455Y-712946D01*
G01X1998980Y-712946D01*
G01X1998503Y-712946D01*
G01X1998503Y-713898D01*
G01X1998503Y-714851D01*
G01X1998027Y-714851D01*
G01X1997551Y-714851D01*
G01X1997551Y-715775D01*
G01X1997551Y-716700D01*
G01X1997075Y-716994D01*
G01X1996598Y-717289D01*
G01X1996598Y-718213D01*
G01X1996598Y-719137D01*
G01X1996123Y-719137D01*
G01X1995646Y-719137D01*
G01X1995646Y-719838D01*
G01X1995646Y-720537D01*
G01X1994693Y-722233D01*
G01X1993741Y-723929D01*
G01X1993741Y-724629D01*
G01X1993741Y-725328D01*
G01X1993264Y-725328D01*
G01X1992789Y-725328D01*
G01X1992789Y-726282D01*
G01X1992789Y-727234D01*
G01X1992312Y-727234D01*
G01X1991836Y-727234D01*
G01X1991836Y-728186D01*
G01X1991836Y-729139D01*
G01X1991360Y-729139D01*
G01X1990884Y-729139D01*
G01X1990884Y-729860D01*
G01X1990884Y-730581D01*
G01X1990466Y-731407D01*
G01X1990050Y-732234D01*
G01X1989038Y-734303D01*
G01X1988026Y-736373D01*
G01X1988026Y-737042D01*
G01X1988026Y-737711D01*
G01X1987550Y-737711D01*
G01X1987073Y-737711D01*
G01X1987073Y-738664D01*
G01X1987073Y-739616D01*
G01X1986598Y-739616D01*
G01X1986121Y-739616D01*
G01X1986121Y-740569D01*
G01X1986121Y-741521D01*
G01X1985644Y-741521D01*
G01X1985168Y-741521D01*
G01X1985168Y-742227D01*
G01X1985168Y-742934D01*
G01X1983739Y-745884D01*
G01X1982311Y-748833D01*
G01X1982311Y-749464D01*
G01X1982311Y-750094D01*
G01X1981835Y-750094D01*
G01X1981359Y-750094D01*
G01X1981359Y-751046D01*
G01X1981359Y-751998D01*
G01X1980882Y-751998D01*
G01X1980405Y-751998D01*
G01X1980405Y-752951D01*
G01X1980405Y-753903D01*
G01X1979930Y-753903D01*
G01X1979453Y-753903D01*
G01X1979453Y-754827D01*
G01X1979453Y-755752D01*
G01X1978977Y-756047D01*
G01X1978501Y-756341D01*
G01X1978501Y-757265D01*
G01X1978501Y-758189D01*
G01X1978025Y-758189D01*
G01X1977548Y-758189D01*
G01X1977548Y-758856D01*
G01X1977548Y-759522D01*
G01X1976119Y-762238D01*
G01X1974691Y-764954D01*
G01X1974691Y-765620D01*
G01X1974691Y-766285D01*
G01X1974214Y-766285D01*
G01X1973739Y-766285D01*
G01X1973739Y-767239D01*
G01X1973739Y-768191D01*
G01X1973262Y-768191D01*
G01X1972786Y-768191D01*
G01X1972786Y-768912D01*
G01X1972786Y-769633D01*
G01X1972370Y-770460D01*
G01X1971952Y-771286D01*
G01X1970941Y-773356D01*
G01X1969928Y-775425D01*
G01X1969928Y-776093D01*
G01X1969928Y-776764D01*
G01X1969452Y-776764D01*
G01X1968976Y-776764D01*
G01X1968976Y-777716D01*
G01X1968976Y-778669D01*
G01X1968500Y-778669D01*
G01X1968023Y-778669D01*
G01X1968023Y-779621D01*
G01X1968023Y-780573D01*
G01X1967548Y-780573D01*
G01X1967071Y-780573D01*
G01X1967071Y-781288D01*
G01X1967071Y-782002D01*
G01X1965166Y-785929D01*
G01X1963261Y-789856D01*
G01X1963261Y-790454D01*
G01X1963261Y-791051D01*
G01X1962785Y-791051D01*
G01X1962309Y-791051D01*
G01X1962309Y-792003D01*
G01X1962309Y-792956D01*
G01X1961832Y-792956D01*
G01X1961355Y-792956D01*
G01X1961355Y-793908D01*
G01X1961355Y-794860D01*
G01X1960880Y-794860D01*
G01X1960403Y-794860D01*
G01X1960403Y-795561D01*
G01X1960403Y-796261D01*
G01X1959214Y-798862D01*
G01X1958024Y-801463D01*
G01X1953380Y-801758D01*
G01X1948735Y-802053D01*
G01X1934695Y-802281D01*
G01X1920656Y-802509D01*
G01X1920194Y-802971D01*
G01X1919732Y-803433D01*
G01X1915310Y-803433D01*
G01X1910888Y-803433D01*
G01X1910650Y-774502D01*
G01X1910411Y-745569D01*
G01X1909942Y-623887D01*
G01X1909471Y-502205D01*
G01X1909101Y-494109D01*
G01X1908730Y-486012D01*
G01X1904087Y-495332D01*
G01X1899443Y-504651D01*
G01X1899443Y-505215D01*
G01X1899443Y-505777D01*
G01X1898968Y-505777D01*
G01X1898491Y-505777D01*
G01X1898492Y-506372D01*
G01X1898493Y-506968D01*
G01X1897421Y-509111D01*
G01X1896348Y-511255D01*
G01X1895991Y-511413D01*
G01X1895634Y-511572D01*
G01X1895634Y-512144D01*
G01X1895634Y-512716D01*
G01X1889443Y-525065D01*
G01X1883252Y-537415D01*
G01X1883252Y-537987D01*
G01X1883252Y-538559D01*
G01X1882894Y-538718D01*
G01X1882537Y-538876D01*
G01X1881465Y-540946D01*
G01X1880393Y-543015D01*
G01X1880393Y-543684D01*
G01X1880393Y-544354D01*
G01X1879918Y-544354D01*
G01X1879441Y-544354D01*
G01X1879441Y-545306D01*
G01X1879441Y-546259D01*
G01X1878965Y-546259D01*
G01X1878488Y-546259D01*
G01X1878488Y-547211D01*
G01X1878488Y-548163D01*
G01X1878012Y-548163D01*
G01X1877536Y-548163D01*
G01X1877536Y-549116D01*
G01X1877536Y-550068D01*
G01X1877059Y-550068D01*
G01X1876584Y-550068D01*
G01X1876584Y-551021D01*
G01X1876584Y-551973D01*
G01X1876107Y-551973D01*
G01X1875631Y-551973D01*
G01X1875631Y-552925D01*
G01X1875631Y-553879D01*
G01X1875155Y-553879D01*
G01X1874679Y-553879D01*
G01X1874679Y-554831D01*
G01X1874679Y-555784D01*
G01X1874202Y-555784D01*
G01X1873725Y-555784D01*
G01X1873725Y-556736D01*
G01X1873725Y-557688D01*
G01X1873250Y-557688D01*
G01X1872773Y-557688D01*
G01X1872773Y-558641D01*
G01X1872773Y-559593D01*
G01X1872297Y-559593D01*
G01X1871821Y-559593D01*
G01X1871821Y-560546D01*
G01X1871821Y-561498D01*
G01X1871345Y-561498D01*
G01X1870868Y-561498D01*
G01X1870868Y-562450D01*
G01X1870868Y-563404D01*
G01X1870393Y-563404D01*
G01X1869916Y-563404D01*
G01X1869916Y-564356D01*
G01X1869916Y-565309D01*
G01X1869440Y-565309D01*
G01X1868963Y-565309D01*
G01X1868963Y-566261D01*
G01X1868963Y-567213D01*
G01X1868488Y-567213D01*
G01X1868011Y-567213D01*
G01X1868011Y-567834D01*
G01X1868011Y-568453D01*
G01X1867416Y-569734D01*
G01X1866821Y-571016D01*
G01X1866464Y-571020D01*
G01X1866106Y-571023D01*
G01X1866106Y-571640D01*
G01X1866106Y-572257D01*
G01X1861343Y-581739D01*
G01X1856581Y-591221D01*
G01X1856581Y-591838D01*
G01X1856581Y-592455D01*
G01X1856221Y-592455D01*
G01X1855861Y-592455D01*
G01X1855223Y-594002D01*
G01X1854585Y-595551D01*
G01X1848914Y-606980D01*
G01X1843243Y-618410D01*
G01X1843244Y-619005D01*
G01X1843246Y-619602D01*
G01X1842770Y-619602D01*
G01X1842293Y-619602D01*
G01X1842293Y-620554D01*
G01X1842293Y-621506D01*
G01X1841818Y-621506D01*
G01X1841341Y-621506D01*
G01X1841341Y-622459D01*
G01X1841341Y-623411D01*
G01X1840865Y-623411D01*
G01X1840388Y-623411D01*
G01X1840388Y-624364D01*
G01X1840388Y-625316D01*
G01X1839913Y-625316D01*
G01X1839436Y-625316D01*
G01X1839436Y-626268D01*
G01X1839436Y-627221D01*
G01X1838959Y-627221D01*
G01X1838484Y-627221D01*
G01X1838484Y-628173D01*
G01X1838484Y-629127D01*
G01X1838007Y-629127D01*
G01X1837531Y-629127D01*
G01X1837531Y-630079D01*
G01X1837531Y-631031D01*
G01X1837055Y-631031D01*
G01X1836579Y-631031D01*
G01X1836579Y-631984D01*
G01X1836579Y-632936D01*
G01X1836102Y-632936D01*
G01X1835625Y-632936D01*
G01X1835625Y-633889D01*
G01X1835625Y-634841D01*
G01X1835150Y-634841D01*
G01X1834673Y-634841D01*
G01X1834673Y-635793D01*
G01X1834673Y-636746D01*
G01X1834197Y-636746D01*
G01X1833721Y-636746D01*
G01X1833721Y-637698D01*
G01X1833721Y-638651D01*
G01X1833245Y-638651D01*
G01X1832768Y-638651D01*
G01X1832768Y-639604D01*
G01X1832768Y-640556D01*
G01X1832293Y-640556D01*
G01X1831816Y-640556D01*
G01X1831816Y-641509D01*
G01X1831816Y-642461D01*
G01X1831340Y-642461D01*
G01X1830863Y-642461D01*
G01X1830863Y-643414D01*
G01X1830863Y-644366D01*
G01X1830388Y-644366D01*
G01X1829911Y-644366D01*
G01X1829911Y-645318D01*
G01X1829911Y-646271D01*
G01X1829434Y-646271D01*
G01X1828959Y-646271D01*
G01X1828959Y-647223D01*
G01X1828959Y-648176D01*
G01X1828482Y-648176D01*
G01X1828006Y-648176D01*
G01X1828006Y-649128D01*
G01X1828006Y-650080D01*
G01X1827530Y-650080D01*
G01X1827054Y-650080D01*
G01X1827054Y-650700D01*
G01X1827054Y-651320D01*
G01X1826459Y-652601D01*
G01X1825863Y-653884D01*
G01X1825505Y-653887D01*
G01X1825149Y-653891D01*
G01X1825149Y-654557D01*
G01X1825149Y-655223D01*
G01X1823720Y-657939D01*
G01X1822291Y-660655D01*
G01X1822291Y-661282D01*
G01X1822291Y-661907D01*
G01X1821934Y-662067D01*
G01X1821576Y-662226D01*
G01X1820566Y-664368D01*
G01X1819555Y-666512D01*
G01X1813778Y-678180D01*
G01X1808000Y-689847D01*
G01X1808001Y-690444D01*
G01X1808004Y-691039D01*
G01X1807527Y-691039D01*
G01X1807051Y-691039D01*
G01X1807051Y-691991D01*
G01X1807051Y-692943D01*
G01X1806694Y-692948D01*
G01X1806337Y-692951D01*
G01X1805742Y-694232D01*
G01X1805147Y-695515D01*
G01X1805147Y-696134D01*
G01X1805147Y-696753D01*
G01X1804670Y-696753D01*
G01X1804193Y-696753D01*
G01X1804193Y-697705D01*
G01X1804193Y-698659D01*
G01X1803717Y-698659D01*
G01X1803241Y-698659D01*
G01X1803241Y-699611D01*
G01X1803241Y-700564D01*
G01X1802765Y-700564D01*
G01X1802288Y-700564D01*
G01X1802288Y-701516D01*
G01X1802288Y-702468D01*
G01X1801813Y-702468D01*
G01X1801336Y-702468D01*
G01X1801336Y-703421D01*
G01X1801336Y-704373D01*
G01X1800859Y-704373D01*
G01X1800384Y-704373D01*
G01X1800384Y-705326D01*
G01X1800384Y-706278D01*
G01X1799907Y-706278D01*
G01X1799431Y-706278D01*
G01X1799431Y-707230D01*
G01X1799431Y-708184D01*
G01X1798954Y-708184D01*
G01X1798479Y-708184D01*
G01X1798479Y-709136D01*
G01X1798479Y-710089D01*
G01X1798002Y-710089D01*
G01X1797526Y-710089D01*
G01X1797526Y-711041D01*
G01X1797526Y-711993D01*
G01X1797050Y-711993D01*
G01X1796574Y-711993D01*
G01X1796574Y-712946D01*
G01X1796574Y-713898D01*
G01X1796097Y-713898D01*
G01X1795622Y-713898D01*
G01X1795622Y-714851D01*
G01X1795622Y-715803D01*
G01X1795145Y-715803D01*
G01X1794668Y-715803D01*
G01X1794668Y-716755D01*
G01X1794668Y-717709D01*
G01X1794192Y-717709D01*
G01X1793716Y-717709D01*
G01X1793716Y-718661D01*
G01X1793716Y-719614D01*
G01X1793240Y-719614D01*
G01X1792763Y-719614D01*
G01X1792763Y-720566D01*
G01X1792763Y-721519D01*
G01X1792288Y-721519D01*
G01X1791811Y-721519D01*
G01X1791811Y-722114D01*
G01X1791812Y-722709D01*
G01X1788905Y-728662D01*
G01X1785999Y-734615D01*
G01X1779378Y-747950D01*
G01X1772759Y-761286D01*
G01X1772760Y-761881D01*
G01X1772761Y-762476D01*
G01X1772285Y-762476D01*
G01X1771809Y-762476D01*
G01X1771809Y-763428D01*
G01X1771809Y-764381D01*
G01X1771333Y-764381D01*
G01X1770856Y-764381D01*
G01X1770856Y-765333D01*
G01X1770856Y-766285D01*
G01X1770379Y-766285D01*
G01X1769904Y-766285D01*
G01X1769904Y-767239D01*
G01X1769904Y-768191D01*
G01X1769427Y-768191D01*
G01X1768951Y-768191D01*
G01X1768951Y-769144D01*
G01X1768951Y-770096D01*
G01X1768475Y-770096D01*
G01X1767999Y-770096D01*
G01X1767999Y-771048D01*
G01X1767999Y-772001D01*
G01X1767522Y-772001D01*
G01X1767047Y-772001D01*
G01X1767047Y-772953D01*
G01X1767047Y-773906D01*
G01X1766570Y-773906D01*
G01X1766093Y-773906D01*
G01X1766093Y-774858D01*
G01X1766093Y-775810D01*
G01X1765617Y-775810D01*
G01X1765141Y-775810D01*
G01X1765141Y-776764D01*
G01X1765141Y-777716D01*
G01X1764665Y-777716D01*
G01X1764188Y-777716D01*
G01X1764188Y-778669D01*
G01X1764188Y-779621D01*
G01X1763713Y-779621D01*
G01X1763236Y-779621D01*
G01X1763236Y-780573D01*
G01X1763236Y-781526D01*
G01X1762760Y-781526D01*
G01X1762284Y-781526D01*
G01X1762284Y-782478D01*
G01X1762284Y-783431D01*
G01X1761808Y-783431D01*
G01X1761331Y-783431D01*
G01X1761331Y-784383D01*
G01X1761331Y-785335D01*
G01X1760854Y-785335D01*
G01X1760379Y-785335D01*
G01X1760379Y-786289D01*
G01X1760379Y-787241D01*
G01X1759902Y-787241D01*
G01X1759426Y-787241D01*
G01X1759426Y-788194D01*
G01X1759426Y-789146D01*
G01X1758950Y-789146D01*
G01X1758474Y-789146D01*
G01X1758474Y-790098D01*
G01X1758474Y-791051D01*
G01X1757997Y-791051D01*
G01X1757520Y-791051D01*
G01X1757520Y-791720D01*
G01X1757520Y-792390D01*
G01X1756625Y-794220D01*
G01X1755729Y-796052D01*
G01X1754624Y-798355D01*
G01X1753519Y-800657D01*
G01X1752355Y-801574D01*
G01X1751190Y-802490D01*
G01X1726614Y-802366D01*
G01X1702038Y-802243D01*
G01X1643051Y-802243D01*
G01X1642576Y-802718D01*
G01X1620872Y-802957D01*
G01X1599168Y-803195D01*
G01X1597858Y-802588D01*
G01X1596549Y-801981D01*
G01X1397000Y-801981D01*
G01X1397000Y-1066800D01*
G01X1873250Y-1066800D01*
G01X2349500Y-1066800D01*
G01X2349500Y-590550D01*
G01X2349500Y-114300D01*
G01X1873250Y-114300D01*
G01X1397000Y-114300D01*
G01X1397000Y-590550D01*
G37*
G04 Image End*

G04 Pad Start*
G54D10*
G01X1815490Y-2368804D03*
G01X1815490Y-2463800D03*
G01X1815490Y-2558796D03*
G01X2045310Y-2558796D03*
G01X2045310Y-2463800D03*
G01X2045310Y-2368804D03*
G01X8076590Y-2368804D03*
G01X8076590Y-2463800D03*
G01X8076590Y-2558796D03*
G01X8306410Y-2558796D03*
G01X8306410Y-2463800D03*
G01X8306410Y-2368804D03*
G54D11*
G01X5394914Y-2886319D03*
G01X5394914Y-2821320D03*
G01X5394914Y-2756322D03*
G01X5394914Y-2691323D03*
G01X5394914Y-2626324D03*
G01X5394914Y-2561326D03*
G01X5394914Y-2496327D03*
G01X5394914Y-2431329D03*
G01X5394914Y-2366305D03*
G01X5394914Y-2301306D03*
G01X5394914Y-2236307D03*
G01X5394914Y-2171309D03*
G01X5394914Y-2106310D03*
G01X5394914Y-2041312D03*
G01X4434896Y-2886319D03*
G01X4434896Y-2821320D03*
G01X4434896Y-2756322D03*
G01X4434896Y-2691323D03*
G01X4434896Y-2626324D03*
G01X4434896Y-2561326D03*
G01X4434896Y-2496327D03*
G01X4434896Y-2431329D03*
G01X4434896Y-2366305D03*
G01X4434896Y-2301306D03*
G01X4434896Y-2236307D03*
G01X4434896Y-2171309D03*
G01X4434896Y-2106310D03*
G01X4434896Y-2041312D03*
G54D12*
G01X8166100Y-538218D03*
G01X7658100Y-538218D03*
G54D13*
G01X7912100Y-1595366D03*
G54D14*
G01X4406895Y-825500D03*
G54D15*
G01X4660895Y-825500D03*
G01X5168895Y-825500D03*
G01X5676895Y-825500D03*
G54D16*
G01X9161399Y-1164412D03*
G01X9161399Y-2569388D03*
G54D18*
G01X8796401Y-1516888D03*
G01X8796401Y-1766900D03*
G01X8796401Y-1966900D03*
G01X8796401Y-2216912D03*
G54D19*
G01X4229100Y-2017268D03*
G01X4229100Y-2072132D03*
G54D20*
G01X4114800Y-2211832D03*
G01X4114800Y-2156968D03*
G01X4229100Y-2211832D03*
G01X4229100Y-2156968D03*
G54D19*
G01X4229100Y-2690368D03*
G01X4229100Y-2745232D03*
G01X4114800Y-2690368D03*
G01X4114800Y-2745232D03*
G01X4000500Y-2156968D03*
G01X4000500Y-2211832D03*
G54D20*
G01X4000500Y-2745232D03*
G01X4000500Y-2690368D03*
G54D21*
G01X3996792Y-1536700D03*
G01X4105808Y-1536700D03*
G01X3552292Y-1778000D03*
G01X3661308Y-1778000D03*
G54D20*
G01X4114800Y-2072132D03*
G01X4114800Y-2017268D03*
G01X5715000Y-2097532D03*
G01X5715000Y-2042668D03*
G54D22*
G01X6413500Y-2167992D03*
G01X6413500Y-2277008D03*
G01X6261100Y-1812392D03*
G01X6261100Y-1921408D03*
G54D20*
G01X5829300Y-2745232D03*
G01X5829300Y-2690368D03*
G54D19*
G01X5829300Y-2182368D03*
G01X5829300Y-2237232D03*
G01X5715000Y-2690368D03*
G01X5715000Y-2745232D03*
G01X5600700Y-2690368D03*
G01X5600700Y-2745232D03*
G54D20*
G01X5600700Y-2237232D03*
G01X5600700Y-2182368D03*
G01X5715000Y-2237232D03*
G01X5715000Y-2182368D03*
G54D19*
G01X5600700Y-2042668D03*
G01X5600700Y-2097532D03*
G54D23*
G01X7776108Y-241300D03*
G01X7667092Y-241300D03*
G54D24*
G01X1752600Y-2024101D03*
G01X1752600Y-1735099D03*
G54D25*
G01X1981200Y-1733398D03*
G01X1981200Y-1873402D03*
G54D26*
G01X8674100Y-723036D03*
G01X8674100Y-572364D03*
G54D27*
G01X8674100Y-216764D03*
G01X8674100Y-367436D03*
G54D28*
G01X6104407Y-1816100D03*
G01X6104407Y-1721104D03*
G01X6104407Y-1911096D03*
G01X5884393Y-1721104D03*
G01X5884393Y-1911096D03*
G54D29*
G01X4000500Y-1667993D03*
G01X3905504Y-1667993D03*
G01X4095496Y-1667993D03*
G01X3905504Y-1888007D03*
G01X4095496Y-1888007D03*
G54D22*
G01X4025900Y-605892D03*
G01X4025900Y-714908D03*
G54D30*
G01X2755900Y-1528000D03*
G01X2755900Y-2027999D03*
G54D21*
G01X5558892Y-609600D03*
G01X5667908Y-609600D03*
G54D30*
G01X6870700Y-961199D03*
G01X6870700Y-461200D03*
G01X3390900Y-961199D03*
G01X3390900Y-461200D03*
G54D29*
G01X3556000Y-1947393D03*
G01X3461004Y-1947393D03*
G01X3650996Y-1947393D03*
G01X3461004Y-2167407D03*
G01X3650996Y-2167407D03*
G54D28*
G01X6244107Y-2184400D03*
G01X6244107Y-2089404D03*
G01X6244107Y-2279396D03*
G01X6024093Y-2089404D03*
G01X6024093Y-2279396D03*
G54D31*
G01X1349705Y-2054403D03*
G01X1349705Y-1804416D03*
G01X1349705Y-1679397D03*
G01X1349705Y-1929409D03*
G54D32*
G01X707695Y-1186891D03*
G01X707695Y-2546909D03*
G54D33*
G01X6616700Y-1453642D03*
G01X6616700Y-1772158D03*
G01X9025374Y-246367D03*
G01X9025374Y-564883D03*
G04 Pad End*

M02*

