G04 Layer: TopSilkscreenLayer*
G04 EasyEDA Pro v2.2.36.7, 2025-03-08 17:24:09*
G04 Gerber Generator version 0.3*
G04 Scale: 100 percent, Rotated: No, Reflected: No*
G04 Dimensions in millimeters*
G04 Leading zeros omitted, absolute positions, 4 integers and 5 decimals*
%FSLAX45Y45*%
%MOMM*%
%ADD10C,0.1524*%
%ADD11C,0.254*%
%ADD12C,0.0762*%
%ADD13C,0.15199*%
%ADD14C,0.3*%
G75*


G04 Text Start*
G54D10*
G01X1874520Y-2217166D02*
G01X1874520Y-2282190D01*
G01X1874520Y-2217166D02*
G01X1896110Y-2217166D01*
G01X1905508Y-2220214D01*
G01X1911604Y-2226310D01*
G01X1914652Y-2232660D01*
G01X1917954Y-2241804D01*
G01X1917954Y-2257298D01*
G01X1914652Y-2266696D01*
G01X1911604Y-2272792D01*
G01X1905508Y-2279142D01*
G01X1896110Y-2282190D01*
G01X1874520Y-2282190D01*
G01X1948180Y-2229612D02*
G01X1954276Y-2226310D01*
G01X1963420Y-2217166D01*
G01X1963420Y-2282190D01*
G01X8514334Y-2573020D02*
G01X8449310Y-2573020D01*
G01X8514334Y-2573020D02*
G01X8514334Y-2594610D01*
G01X8511286Y-2604008D01*
G01X8505190Y-2610104D01*
G01X8498840Y-2613152D01*
G01X8489696Y-2616454D01*
G01X8474202Y-2616454D01*
G01X8464804Y-2613152D01*
G01X8458708Y-2610104D01*
G01X8452358Y-2604008D01*
G01X8449310Y-2594610D01*
G01X8449310Y-2573020D01*
G01X8498840Y-2649728D02*
G01X8501888Y-2649728D01*
G01X8508238Y-2652776D01*
G01X8511286Y-2655824D01*
G01X8514334Y-2661920D01*
G01X8514334Y-2674366D01*
G01X8511286Y-2680716D01*
G01X8508238Y-2683764D01*
G01X8501888Y-2686812D01*
G01X8495792Y-2686812D01*
G01X8489696Y-2683764D01*
G01X8480298Y-2677414D01*
G01X8449310Y-2646680D01*
G01X8449310Y-2689860D01*
G01X4971034Y-1798320D02*
G01X4924552Y-1798320D01*
G01X4915408Y-1801368D01*
G01X4909058Y-1807718D01*
G01X4906010Y-1816862D01*
G01X4906010Y-1823212D01*
G01X4909058Y-1832356D01*
G01X4915408Y-1838452D01*
G01X4924552Y-1841754D01*
G01X4971034Y-1841754D01*
G01X4958588Y-1871980D02*
G01X4961890Y-1878076D01*
G01X4971034Y-1887220D01*
G01X4906010Y-1887220D01*
G01X8565134Y-1671320D02*
G01X8518652Y-1671320D01*
G01X8509508Y-1674368D01*
G01X8503158Y-1680718D01*
G01X8500110Y-1689862D01*
G01X8500110Y-1696212D01*
G01X8503158Y-1705356D01*
G01X8509508Y-1711452D01*
G01X8518652Y-1714754D01*
G01X8565134Y-1714754D01*
G01X8565134Y-1775714D02*
G01X8521954Y-1744980D01*
G01X8521954Y-1791208D01*
G01X8565134Y-1775714D02*
G01X8500110Y-1775714D01*
G01X5151115Y-604266D02*
G01X5151115Y-650748D01*
G01X5154163Y-659892D01*
G01X5160513Y-666242D01*
G01X5169657Y-669290D01*
G01X5176007Y-669290D01*
G01X5185151Y-666242D01*
G01X5191247Y-659892D01*
G01X5194549Y-650748D01*
G01X5194549Y-604266D01*
G01X5267955Y-604266D02*
G01X5236967Y-669290D01*
G01X5224775Y-604266D02*
G01X5267955Y-604266D01*
G01X8510372Y-1884680D02*
G01X8556854Y-1884680D01*
G01X8565998Y-1881632D01*
G01X8572348Y-1875282D01*
G01X8575396Y-1866138D01*
G01X8575396Y-1859788D01*
G01X8572348Y-1850644D01*
G01X8565998Y-1844548D01*
G01X8556854Y-1841246D01*
G01X8510372Y-1841246D01*
G01X8519516Y-1767840D02*
G01X8513420Y-1773936D01*
G01X8510372Y-1783334D01*
G01X8510372Y-1795780D01*
G01X8513420Y-1804924D01*
G01X8519516Y-1811020D01*
G01X8525866Y-1811020D01*
G01X8531962Y-1807972D01*
G01X8535010Y-1804924D01*
G01X8538058Y-1798828D01*
G01X8544408Y-1780286D01*
G01X8547456Y-1773936D01*
G01X8550504Y-1770888D01*
G01X8556854Y-1767840D01*
G01X8565998Y-1767840D01*
G01X8572348Y-1773936D01*
G01X8575396Y-1783334D01*
G01X8575396Y-1795780D01*
G01X8572348Y-1804924D01*
G01X8565998Y-1811020D01*
G01X8510372Y-1737614D02*
G01X8575396Y-1737614D01*
G01X8510372Y-1737614D02*
G01X8510372Y-1709928D01*
G01X8513420Y-1700530D01*
G01X8516468Y-1697482D01*
G01X8522818Y-1694434D01*
G01X8528914Y-1694434D01*
G01X8535010Y-1697482D01*
G01X8538058Y-1700530D01*
G01X8541360Y-1709928D01*
G01X8541360Y-1737614D02*
G01X8541360Y-1709928D01*
G01X8544408Y-1700530D01*
G01X8547456Y-1697482D01*
G01X8553552Y-1694434D01*
G01X8562950Y-1694434D01*
G01X8569046Y-1697482D01*
G01X8572348Y-1700530D01*
G01X8575396Y-1709928D01*
G01X8575396Y-1737614D01*
G01X8525866Y-1661160D02*
G01X8522818Y-1661160D01*
G01X8516468Y-1658112D01*
G01X8513420Y-1655064D01*
G01X8510372Y-1648968D01*
G01X8510372Y-1636522D01*
G01X8513420Y-1630172D01*
G01X8516468Y-1627124D01*
G01X8522818Y-1624076D01*
G01X8528914Y-1624076D01*
G01X8535010Y-1627124D01*
G01X8544408Y-1633474D01*
G01X8575396Y-1664208D01*
G01X8575396Y-1621028D01*
G01X4328160Y-1660398D02*
G01X4321810Y-1663446D01*
G01X4315714Y-1669796D01*
G01X4312666Y-1675892D01*
G01X4312666Y-1688338D01*
G01X4315714Y-1694434D01*
G01X4321810Y-1700784D01*
G01X4328160Y-1703832D01*
G01X4337304Y-1706880D01*
G01X4352798Y-1706880D01*
G01X4362196Y-1703832D01*
G01X4368292Y-1700784D01*
G01X4374642Y-1694434D01*
G01X4377690Y-1688338D01*
G01X4377690Y-1675892D01*
G01X4374642Y-1669796D01*
G01X4368292Y-1663446D01*
G01X4362196Y-1660398D01*
G01X4328160Y-1627124D02*
G01X4325112Y-1627124D01*
G01X4318762Y-1624076D01*
G01X4315714Y-1621028D01*
G01X4312666Y-1614932D01*
G01X4312666Y-1602486D01*
G01X4315714Y-1596136D01*
G01X4318762Y-1593088D01*
G01X4325112Y-1590040D01*
G01X4331208Y-1590040D01*
G01X4337304Y-1593088D01*
G01X4346702Y-1599438D01*
G01X4377690Y-1630172D01*
G01X4377690Y-1586992D01*
G01X4086860Y-2354326D02*
G01X4080510Y-2357374D01*
G01X4074414Y-2363724D01*
G01X4071366Y-2369820D01*
G01X4071366Y-2382266D01*
G01X4074414Y-2388362D01*
G01X4080510Y-2394712D01*
G01X4086860Y-2397760D01*
G01X4096004Y-2400808D01*
G01X4111498Y-2400808D01*
G01X4120896Y-2397760D01*
G01X4126992Y-2394712D01*
G01X4133342Y-2388362D01*
G01X4136390Y-2382266D01*
G01X4136390Y-2369820D01*
G01X4133342Y-2363724D01*
G01X4126992Y-2357374D01*
G01X4120896Y-2354326D01*
G01X4071366Y-2318004D02*
G01X4071366Y-2283968D01*
G01X4096004Y-2302510D01*
G01X4096004Y-2293366D01*
G01X4099052Y-2287016D01*
G01X4102354Y-2283968D01*
G01X4111498Y-2280920D01*
G01X4117848Y-2280920D01*
G01X4126992Y-2283968D01*
G01X4133342Y-2290064D01*
G01X4136390Y-2299462D01*
G01X4136390Y-2308860D01*
G01X4133342Y-2318004D01*
G01X4130040Y-2321052D01*
G01X4123944Y-2324100D01*
G01X4201160Y-2357374D02*
G01X4194810Y-2360422D01*
G01X4188714Y-2366772D01*
G01X4185666Y-2372868D01*
G01X4185666Y-2385314D01*
G01X4188714Y-2391410D01*
G01X4194810Y-2397760D01*
G01X4201160Y-2400808D01*
G01X4210304Y-2403856D01*
G01X4225798Y-2403856D01*
G01X4235196Y-2400808D01*
G01X4241292Y-2397760D01*
G01X4247642Y-2391410D01*
G01X4250690Y-2385314D01*
G01X4250690Y-2372868D01*
G01X4247642Y-2366772D01*
G01X4241292Y-2360422D01*
G01X4235196Y-2357374D01*
G01X4185666Y-2296414D02*
G01X4228846Y-2327148D01*
G01X4228846Y-2280920D01*
G01X4185666Y-2296414D02*
G01X4250690Y-2296414D01*
G01X4213860Y-2879598D02*
G01X4207510Y-2882646D01*
G01X4201414Y-2888996D01*
G01X4198366Y-2895092D01*
G01X4198366Y-2907538D01*
G01X4201414Y-2913634D01*
G01X4207510Y-2919984D01*
G01X4213860Y-2923032D01*
G01X4223004Y-2926080D01*
G01X4238498Y-2926080D01*
G01X4247896Y-2923032D01*
G01X4253992Y-2919984D01*
G01X4260342Y-2913634D01*
G01X4263390Y-2907538D01*
G01X4263390Y-2895092D01*
G01X4260342Y-2888996D01*
G01X4253992Y-2882646D01*
G01X4247896Y-2879598D01*
G01X4198366Y-2812288D02*
G01X4198366Y-2843276D01*
G01X4226052Y-2846324D01*
G01X4223004Y-2843276D01*
G01X4219956Y-2834132D01*
G01X4219956Y-2824734D01*
G01X4223004Y-2815336D01*
G01X4229354Y-2809240D01*
G01X4238498Y-2806192D01*
G01X4244848Y-2806192D01*
G01X4253992Y-2809240D01*
G01X4260342Y-2815336D01*
G01X4263390Y-2824734D01*
G01X4263390Y-2834132D01*
G01X4260342Y-2843276D01*
G01X4257040Y-2846324D01*
G01X4250944Y-2849372D01*
G01X4099560Y-2879598D02*
G01X4093210Y-2882646D01*
G01X4087114Y-2888996D01*
G01X4084066Y-2895092D01*
G01X4084066Y-2907538D01*
G01X4087114Y-2913634D01*
G01X4093210Y-2919984D01*
G01X4099560Y-2923032D01*
G01X4108704Y-2926080D01*
G01X4124198Y-2926080D01*
G01X4133596Y-2923032D01*
G01X4139692Y-2919984D01*
G01X4146042Y-2913634D01*
G01X4149090Y-2907538D01*
G01X4149090Y-2895092D01*
G01X4146042Y-2888996D01*
G01X4139692Y-2882646D01*
G01X4133596Y-2879598D01*
G01X4093210Y-2812288D02*
G01X4087114Y-2815336D01*
G01X4084066Y-2824734D01*
G01X4084066Y-2830830D01*
G01X4087114Y-2840228D01*
G01X4096512Y-2846324D01*
G01X4111752Y-2849372D01*
G01X4127246Y-2849372D01*
G01X4139692Y-2846324D01*
G01X4146042Y-2840228D01*
G01X4149090Y-2830830D01*
G01X4149090Y-2827782D01*
G01X4146042Y-2818638D01*
G01X4139692Y-2812288D01*
G01X4130548Y-2809240D01*
G01X4127246Y-2809240D01*
G01X4118102Y-2812288D01*
G01X4111752Y-2818638D01*
G01X4108704Y-2827782D01*
G01X4108704Y-2830830D01*
G01X4111752Y-2840228D01*
G01X4118102Y-2846324D01*
G01X4127246Y-2849372D01*
G01X3985260Y-2358898D02*
G01X3978910Y-2361946D01*
G01X3972814Y-2368296D01*
G01X3969766Y-2374392D01*
G01X3969766Y-2386838D01*
G01X3972814Y-2392934D01*
G01X3978910Y-2399284D01*
G01X3985260Y-2402332D01*
G01X3994404Y-2405380D01*
G01X4009898Y-2405380D01*
G01X4019296Y-2402332D01*
G01X4025392Y-2399284D01*
G01X4031742Y-2392934D01*
G01X4034790Y-2386838D01*
G01X4034790Y-2374392D01*
G01X4031742Y-2368296D01*
G01X4025392Y-2361946D01*
G01X4019296Y-2358898D01*
G01X3969766Y-2285492D02*
G01X4034790Y-2316480D01*
G01X3969766Y-2328672D02*
G01X3969766Y-2285492D01*
G01X3985260Y-2879598D02*
G01X3978910Y-2882646D01*
G01X3972814Y-2888996D01*
G01X3969766Y-2895092D01*
G01X3969766Y-2907538D01*
G01X3972814Y-2913634D01*
G01X3978910Y-2919984D01*
G01X3985260Y-2923032D01*
G01X3994404Y-2926080D01*
G01X4009898Y-2926080D01*
G01X4019296Y-2923032D01*
G01X4025392Y-2919984D01*
G01X4031742Y-2913634D01*
G01X4034790Y-2907538D01*
G01X4034790Y-2895092D01*
G01X4031742Y-2888996D01*
G01X4025392Y-2882646D01*
G01X4019296Y-2879598D01*
G01X3969766Y-2834132D02*
G01X3972814Y-2843276D01*
G01X3978910Y-2846324D01*
G01X3985260Y-2846324D01*
G01X3991356Y-2843276D01*
G01X3994404Y-2837180D01*
G01X3997452Y-2824734D01*
G01X4000754Y-2815336D01*
G01X4006850Y-2809240D01*
G01X4012946Y-2806192D01*
G01X4022344Y-2806192D01*
G01X4028440Y-2809240D01*
G01X4031742Y-2812288D01*
G01X4034790Y-2821686D01*
G01X4034790Y-2834132D01*
G01X4031742Y-2843276D01*
G01X4028440Y-2846324D01*
G01X4022344Y-2849372D01*
G01X4012946Y-2849372D01*
G01X4006850Y-2846324D01*
G01X4000754Y-2840228D01*
G01X3997452Y-2830830D01*
G01X3994404Y-2818638D01*
G01X3991356Y-2812288D01*
G01X3985260Y-2809240D01*
G01X3978910Y-2809240D01*
G01X3972814Y-2812288D01*
G01X3969766Y-2821686D01*
G01X3969766Y-2834132D01*
G01X3833622Y-1508760D02*
G01X3830574Y-1502410D01*
G01X3824224Y-1496314D01*
G01X3818128Y-1493266D01*
G01X3805682Y-1493266D01*
G01X3799586Y-1496314D01*
G01X3793236Y-1502410D01*
G01X3790188Y-1508760D01*
G01X3787140Y-1517904D01*
G01X3787140Y-1533398D01*
G01X3790188Y-1542796D01*
G01X3793236Y-1548892D01*
G01X3799586Y-1555242D01*
G01X3805682Y-1558290D01*
G01X3818128Y-1558290D01*
G01X3824224Y-1555242D01*
G01X3830574Y-1548892D01*
G01X3833622Y-1542796D01*
G01X3903980Y-1514856D02*
G01X3900932Y-1524254D01*
G01X3894582Y-1530350D01*
G01X3885438Y-1533398D01*
G01X3882390Y-1533398D01*
G01X3872992Y-1530350D01*
G01X3866896Y-1524254D01*
G01X3863848Y-1514856D01*
G01X3863848Y-1511808D01*
G01X3866896Y-1502410D01*
G01X3872992Y-1496314D01*
G01X3882390Y-1493266D01*
G01X3885438Y-1493266D01*
G01X3894582Y-1496314D01*
G01X3900932Y-1502410D01*
G01X3903980Y-1514856D01*
G01X3903980Y-1530350D01*
G01X3900932Y-1545844D01*
G01X3894582Y-1555242D01*
G01X3885438Y-1558290D01*
G01X3879088Y-1558290D01*
G01X3869944Y-1555242D01*
G01X3866896Y-1548892D01*
G01X3340608Y-1762760D02*
G01X3337560Y-1756410D01*
G01X3331210Y-1750314D01*
G01X3325114Y-1747266D01*
G01X3312668Y-1747266D01*
G01X3306572Y-1750314D01*
G01X3300222Y-1756410D01*
G01X3297174Y-1762760D01*
G01X3294126Y-1771904D01*
G01X3294126Y-1787398D01*
G01X3297174Y-1796796D01*
G01X3300222Y-1802892D01*
G01X3306572Y-1809242D01*
G01X3312668Y-1812290D01*
G01X3325114Y-1812290D01*
G01X3331210Y-1809242D01*
G01X3337560Y-1802892D01*
G01X3340608Y-1796796D01*
G01X3370834Y-1759712D02*
G01X3376930Y-1756410D01*
G01X3386074Y-1747266D01*
G01X3386074Y-1812290D01*
G01X3434842Y-1747266D02*
G01X3425444Y-1750314D01*
G01X3419348Y-1759712D01*
G01X3416300Y-1774952D01*
G01X3416300Y-1784350D01*
G01X3419348Y-1799844D01*
G01X3425444Y-1809242D01*
G01X3434842Y-1812290D01*
G01X3440938Y-1812290D01*
G01X3450336Y-1809242D01*
G01X3456432Y-1799844D01*
G01X3459480Y-1784350D01*
G01X3459480Y-1774952D01*
G01X3456432Y-1759712D01*
G01X3450336Y-1750314D01*
G01X3440938Y-1747266D01*
G01X3434842Y-1747266D01*
G01X4213860Y-1647698D02*
G01X4207510Y-1650746D01*
G01X4201414Y-1657096D01*
G01X4198366Y-1663192D01*
G01X4198366Y-1675638D01*
G01X4201414Y-1681734D01*
G01X4207510Y-1688084D01*
G01X4213860Y-1691132D01*
G01X4223004Y-1694180D01*
G01X4238498Y-1694180D01*
G01X4247896Y-1691132D01*
G01X4253992Y-1688084D01*
G01X4260342Y-1681734D01*
G01X4263390Y-1675638D01*
G01X4263390Y-1663192D01*
G01X4260342Y-1657096D01*
G01X4253992Y-1650746D01*
G01X4247896Y-1647698D01*
G01X4210812Y-1617472D02*
G01X4207510Y-1611376D01*
G01X4198366Y-1602232D01*
G01X4263390Y-1602232D01*
G01X4210812Y-1572006D02*
G01X4207510Y-1565910D01*
G01X4198366Y-1556766D01*
G01X4263390Y-1556766D01*
G01X5699760Y-1917192D02*
G01X5693410Y-1920240D01*
G01X5687314Y-1926590D01*
G01X5684266Y-1932686D01*
G01X5684266Y-1945132D01*
G01X5687314Y-1951228D01*
G01X5693410Y-1957578D01*
G01X5699760Y-1960626D01*
G01X5708904Y-1963674D01*
G01X5724398Y-1963674D01*
G01X5733796Y-1960626D01*
G01X5739892Y-1957578D01*
G01X5746242Y-1951228D01*
G01X5749290Y-1945132D01*
G01X5749290Y-1932686D01*
G01X5746242Y-1926590D01*
G01X5739892Y-1920240D01*
G01X5733796Y-1917192D01*
G01X5696712Y-1886966D02*
G01X5693410Y-1880870D01*
G01X5684266Y-1871726D01*
G01X5749290Y-1871726D01*
G01X5699760Y-1838452D02*
G01X5696712Y-1838452D01*
G01X5690362Y-1835404D01*
G01X5687314Y-1832356D01*
G01X5684266Y-1826260D01*
G01X5684266Y-1813814D01*
G01X5687314Y-1807464D01*
G01X5690362Y-1804416D01*
G01X5696712Y-1801368D01*
G01X5702808Y-1801368D01*
G01X5708904Y-1804416D01*
G01X5718302Y-1810766D01*
G01X5749290Y-1841500D01*
G01X5749290Y-1798320D01*
G01X6258560Y-2168398D02*
G01X6252210Y-2171446D01*
G01X6246114Y-2177796D01*
G01X6243066Y-2183892D01*
G01X6243066Y-2196338D01*
G01X6246114Y-2202434D01*
G01X6252210Y-2208784D01*
G01X6258560Y-2211832D01*
G01X6267704Y-2214880D01*
G01X6283198Y-2214880D01*
G01X6292596Y-2211832D01*
G01X6298692Y-2208784D01*
G01X6305042Y-2202434D01*
G01X6308090Y-2196338D01*
G01X6308090Y-2183892D01*
G01X6305042Y-2177796D01*
G01X6298692Y-2171446D01*
G01X6292596Y-2168398D01*
G01X6255512Y-2138172D02*
G01X6252210Y-2132076D01*
G01X6243066Y-2122932D01*
G01X6308090Y-2122932D01*
G01X6243066Y-2086610D02*
G01X6243066Y-2052574D01*
G01X6267704Y-2071116D01*
G01X6267704Y-2061972D01*
G01X6270752Y-2055622D01*
G01X6274054Y-2052574D01*
G01X6283198Y-2049526D01*
G01X6289548Y-2049526D01*
G01X6298692Y-2052574D01*
G01X6305042Y-2058670D01*
G01X6308090Y-2068068D01*
G01X6308090Y-2077466D01*
G01X6305042Y-2086610D01*
G01X6301740Y-2089658D01*
G01X6295644Y-2092706D01*
G01X6106160Y-1812798D02*
G01X6099810Y-1815846D01*
G01X6093714Y-1822196D01*
G01X6090666Y-1828292D01*
G01X6090666Y-1840738D01*
G01X6093714Y-1846834D01*
G01X6099810Y-1853184D01*
G01X6106160Y-1856232D01*
G01X6115304Y-1859280D01*
G01X6130798Y-1859280D01*
G01X6140196Y-1856232D01*
G01X6146292Y-1853184D01*
G01X6152642Y-1846834D01*
G01X6155690Y-1840738D01*
G01X6155690Y-1828292D01*
G01X6152642Y-1822196D01*
G01X6146292Y-1815846D01*
G01X6140196Y-1812798D01*
G01X6103112Y-1782572D02*
G01X6099810Y-1776476D01*
G01X6090666Y-1767332D01*
G01X6155690Y-1767332D01*
G01X6090666Y-1706372D02*
G01X6133846Y-1737106D01*
G01X6133846Y-1690878D01*
G01X6090666Y-1706372D02*
G01X6155690Y-1706372D01*
G01X5814060Y-2930398D02*
G01X5807710Y-2933446D01*
G01X5801614Y-2939796D01*
G01X5798566Y-2945892D01*
G01X5798566Y-2958338D01*
G01X5801614Y-2964434D01*
G01X5807710Y-2970784D01*
G01X5814060Y-2973832D01*
G01X5823204Y-2976880D01*
G01X5838698Y-2976880D01*
G01X5848096Y-2973832D01*
G01X5854192Y-2970784D01*
G01X5860542Y-2964434D01*
G01X5863590Y-2958338D01*
G01X5863590Y-2945892D01*
G01X5860542Y-2939796D01*
G01X5854192Y-2933446D01*
G01X5848096Y-2930398D01*
G01X5811012Y-2900172D02*
G01X5807710Y-2894076D01*
G01X5798566Y-2884932D01*
G01X5863590Y-2884932D01*
G01X5798566Y-2817622D02*
G01X5798566Y-2848610D01*
G01X5826252Y-2851658D01*
G01X5823204Y-2848610D01*
G01X5820156Y-2839466D01*
G01X5820156Y-2830068D01*
G01X5823204Y-2820670D01*
G01X5829554Y-2814574D01*
G01X5838698Y-2811526D01*
G01X5845048Y-2811526D01*
G01X5854192Y-2814574D01*
G01X5860542Y-2820670D01*
G01X5863590Y-2830068D01*
G01X5863590Y-2839466D01*
G01X5860542Y-2848610D01*
G01X5857240Y-2851658D01*
G01X5851144Y-2854706D01*
G01X5844540Y-2353056D02*
G01X5850890Y-2350008D01*
G01X5856986Y-2343658D01*
G01X5860034Y-2337562D01*
G01X5860034Y-2325116D01*
G01X5856986Y-2319020D01*
G01X5850890Y-2312670D01*
G01X5844540Y-2309622D01*
G01X5835396Y-2306574D01*
G01X5819902Y-2306574D01*
G01X5810504Y-2309622D01*
G01X5804408Y-2312670D01*
G01X5798058Y-2319020D01*
G01X5795010Y-2325116D01*
G01X5795010Y-2337562D01*
G01X5798058Y-2343658D01*
G01X5804408Y-2350008D01*
G01X5810504Y-2353056D01*
G01X5847588Y-2383282D02*
G01X5850890Y-2389378D01*
G01X5860034Y-2398522D01*
G01X5795010Y-2398522D01*
G01X5850890Y-2465832D02*
G01X5856986Y-2462784D01*
G01X5860034Y-2453386D01*
G01X5860034Y-2447290D01*
G01X5856986Y-2437892D01*
G01X5847588Y-2431796D01*
G01X5832348Y-2428748D01*
G01X5816854Y-2428748D01*
G01X5804408Y-2431796D01*
G01X5798058Y-2437892D01*
G01X5795010Y-2447290D01*
G01X5795010Y-2450338D01*
G01X5798058Y-2459482D01*
G01X5804408Y-2465832D01*
G01X5813552Y-2468880D01*
G01X5816854Y-2468880D01*
G01X5825998Y-2465832D01*
G01X5832348Y-2459482D01*
G01X5835396Y-2450338D01*
G01X5835396Y-2447290D01*
G01X5832348Y-2437892D01*
G01X5825998Y-2431796D01*
G01X5816854Y-2428748D01*
G01X5699760Y-2930398D02*
G01X5693410Y-2933446D01*
G01X5687314Y-2939796D01*
G01X5684266Y-2945892D01*
G01X5684266Y-2958338D01*
G01X5687314Y-2964434D01*
G01X5693410Y-2970784D01*
G01X5699760Y-2973832D01*
G01X5708904Y-2976880D01*
G01X5724398Y-2976880D01*
G01X5733796Y-2973832D01*
G01X5739892Y-2970784D01*
G01X5746242Y-2964434D01*
G01X5749290Y-2958338D01*
G01X5749290Y-2945892D01*
G01X5746242Y-2939796D01*
G01X5739892Y-2933446D01*
G01X5733796Y-2930398D01*
G01X5696712Y-2900172D02*
G01X5693410Y-2894076D01*
G01X5684266Y-2884932D01*
G01X5749290Y-2884932D01*
G01X5684266Y-2811526D02*
G01X5749290Y-2842514D01*
G01X5684266Y-2854706D02*
G01X5684266Y-2811526D01*
G01X5585460Y-2930398D02*
G01X5579110Y-2933446D01*
G01X5573014Y-2939796D01*
G01X5569966Y-2945892D01*
G01X5569966Y-2958338D01*
G01X5573014Y-2964434D01*
G01X5579110Y-2970784D01*
G01X5585460Y-2973832D01*
G01X5594604Y-2976880D01*
G01X5610098Y-2976880D01*
G01X5619496Y-2973832D01*
G01X5625592Y-2970784D01*
G01X5631942Y-2964434D01*
G01X5634990Y-2958338D01*
G01X5634990Y-2945892D01*
G01X5631942Y-2939796D01*
G01X5625592Y-2933446D01*
G01X5619496Y-2930398D01*
G01X5582412Y-2900172D02*
G01X5579110Y-2894076D01*
G01X5569966Y-2884932D01*
G01X5634990Y-2884932D01*
G01X5569966Y-2839466D02*
G01X5573014Y-2848610D01*
G01X5579110Y-2851658D01*
G01X5585460Y-2851658D01*
G01X5591556Y-2848610D01*
G01X5594604Y-2842514D01*
G01X5597652Y-2830068D01*
G01X5600954Y-2820670D01*
G01X5607050Y-2814574D01*
G01X5613146Y-2811526D01*
G01X5622544Y-2811526D01*
G01X5628640Y-2814574D01*
G01X5631942Y-2817622D01*
G01X5634990Y-2827020D01*
G01X5634990Y-2839466D01*
G01X5631942Y-2848610D01*
G01X5628640Y-2851658D01*
G01X5622544Y-2854706D01*
G01X5613146Y-2854706D01*
G01X5607050Y-2851658D01*
G01X5600954Y-2845562D01*
G01X5597652Y-2836164D01*
G01X5594604Y-2823972D01*
G01X5591556Y-2817622D01*
G01X5585460Y-2814574D01*
G01X5579110Y-2814574D01*
G01X5573014Y-2817622D01*
G01X5569966Y-2827020D01*
G01X5569966Y-2839466D01*
G01X5615940Y-2352802D02*
G01X5622290Y-2349754D01*
G01X5628386Y-2343404D01*
G01X5631434Y-2337308D01*
G01X5631434Y-2324862D01*
G01X5628386Y-2318766D01*
G01X5622290Y-2312416D01*
G01X5615940Y-2309368D01*
G01X5606796Y-2306320D01*
G01X5591302Y-2306320D01*
G01X5581904Y-2309368D01*
G01X5575808Y-2312416D01*
G01X5569458Y-2318766D01*
G01X5566410Y-2324862D01*
G01X5566410Y-2337308D01*
G01X5569458Y-2343404D01*
G01X5575808Y-2349754D01*
G01X5581904Y-2352802D01*
G01X5618988Y-2383028D02*
G01X5622290Y-2389124D01*
G01X5631434Y-2398268D01*
G01X5566410Y-2398268D01*
G01X5609844Y-2468626D02*
G01X5600446Y-2465578D01*
G01X5594350Y-2459228D01*
G01X5591302Y-2450084D01*
G01X5591302Y-2447036D01*
G01X5594350Y-2437638D01*
G01X5600446Y-2431542D01*
G01X5609844Y-2428494D01*
G01X5612892Y-2428494D01*
G01X5622290Y-2431542D01*
G01X5628386Y-2437638D01*
G01X5631434Y-2447036D01*
G01X5631434Y-2450084D01*
G01X5628386Y-2459228D01*
G01X5622290Y-2465578D01*
G01X5609844Y-2468626D01*
G01X5594350Y-2468626D01*
G01X5578856Y-2465578D01*
G01X5569458Y-2459228D01*
G01X5566410Y-2450084D01*
G01X5566410Y-2443734D01*
G01X5569458Y-2434590D01*
G01X5575808Y-2431542D01*
G01X5730240Y-2352802D02*
G01X5736590Y-2349754D01*
G01X5742686Y-2343404D01*
G01X5745734Y-2337308D01*
G01X5745734Y-2324862D01*
G01X5742686Y-2318766D01*
G01X5736590Y-2312416D01*
G01X5730240Y-2309368D01*
G01X5721096Y-2306320D01*
G01X5705602Y-2306320D01*
G01X5696204Y-2309368D01*
G01X5690108Y-2312416D01*
G01X5683758Y-2318766D01*
G01X5680710Y-2324862D01*
G01X5680710Y-2337308D01*
G01X5683758Y-2343404D01*
G01X5690108Y-2349754D01*
G01X5696204Y-2352802D01*
G01X5730240Y-2386076D02*
G01X5733288Y-2386076D01*
G01X5739638Y-2389124D01*
G01X5742686Y-2392172D01*
G01X5745734Y-2398268D01*
G01X5745734Y-2410714D01*
G01X5742686Y-2417064D01*
G01X5739638Y-2420112D01*
G01X5733288Y-2423160D01*
G01X5727192Y-2423160D01*
G01X5721096Y-2420112D01*
G01X5711698Y-2413762D01*
G01X5680710Y-2383028D01*
G01X5680710Y-2426208D01*
G01X5745734Y-2474976D02*
G01X5742686Y-2465578D01*
G01X5733288Y-2459482D01*
G01X5718048Y-2456434D01*
G01X5708650Y-2456434D01*
G01X5693156Y-2459482D01*
G01X5683758Y-2465578D01*
G01X5680710Y-2474976D01*
G01X5680710Y-2481072D01*
G01X5683758Y-2490470D01*
G01X5693156Y-2496566D01*
G01X5708650Y-2499614D01*
G01X5718048Y-2499614D01*
G01X5733288Y-2496566D01*
G01X5742686Y-2490470D01*
G01X5745734Y-2481072D01*
G01X5745734Y-2474976D01*
G01X5572760Y-1914398D02*
G01X5566410Y-1917446D01*
G01X5560314Y-1923796D01*
G01X5557266Y-1929892D01*
G01X5557266Y-1942338D01*
G01X5560314Y-1948434D01*
G01X5566410Y-1954784D01*
G01X5572760Y-1957832D01*
G01X5581904Y-1960880D01*
G01X5597398Y-1960880D01*
G01X5606796Y-1957832D01*
G01X5612892Y-1954784D01*
G01X5619242Y-1948434D01*
G01X5622290Y-1942338D01*
G01X5622290Y-1929892D01*
G01X5619242Y-1923796D01*
G01X5612892Y-1917446D01*
G01X5606796Y-1914398D01*
G01X5572760Y-1881124D02*
G01X5569712Y-1881124D01*
G01X5563362Y-1878076D01*
G01X5560314Y-1875028D01*
G01X5557266Y-1868932D01*
G01X5557266Y-1856486D01*
G01X5560314Y-1850136D01*
G01X5563362Y-1847088D01*
G01X5569712Y-1844040D01*
G01X5575808Y-1844040D01*
G01X5581904Y-1847088D01*
G01X5591302Y-1853438D01*
G01X5622290Y-1884172D01*
G01X5622290Y-1840992D01*
G01X5569712Y-1810766D02*
G01X5566410Y-1804670D01*
G01X5557266Y-1795526D01*
G01X5622290Y-1795526D01*
G01X7775702Y-86360D02*
G01X7772654Y-80010D01*
G01X7766304Y-73914D01*
G01X7760208Y-70866D01*
G01X7747762Y-70866D01*
G01X7741666Y-73914D01*
G01X7735316Y-80010D01*
G01X7732268Y-86360D01*
G01X7729220Y-95504D01*
G01X7729220Y-110998D01*
G01X7732268Y-120396D01*
G01X7735316Y-126492D01*
G01X7741666Y-132842D01*
G01X7747762Y-135890D01*
G01X7760208Y-135890D01*
G01X7766304Y-132842D01*
G01X7772654Y-126492D01*
G01X7775702Y-120396D01*
G01X7808976Y-86360D02*
G01X7808976Y-83312D01*
G01X7812024Y-76962D01*
G01X7815072Y-73914D01*
G01X7821168Y-70866D01*
G01X7833614Y-70866D01*
G01X7839964Y-73914D01*
G01X7843012Y-76962D01*
G01X7846060Y-83312D01*
G01X7846060Y-89408D01*
G01X7843012Y-95504D01*
G01X7836662Y-104902D01*
G01X7805928Y-135890D01*
G01X7849108Y-135890D01*
G01X7885430Y-70866D02*
G01X7919466Y-70866D01*
G01X7900924Y-95504D01*
G01X7910068Y-95504D01*
G01X7916418Y-98552D01*
G01X7919466Y-101854D01*
G01X7922514Y-110998D01*
G01X7922514Y-117348D01*
G01X7919466Y-126492D01*
G01X7913370Y-132842D01*
G01X7903972Y-135890D01*
G01X7894574Y-135890D01*
G01X7885430Y-132842D01*
G01X7882382Y-129540D01*
G01X7879334Y-123444D01*
G01X1721866Y-1579880D02*
G01X1786890Y-1579880D01*
G01X1721866Y-1579880D02*
G01X1721866Y-1539748D01*
G01X1752854Y-1579880D02*
G01X1752854Y-1554988D01*
G01X1734312Y-1509522D02*
G01X1731010Y-1503426D01*
G01X1721866Y-1494282D01*
G01X1786890Y-1494282D01*
G01X1937766Y-1579880D02*
G01X2002790Y-1579880D01*
G01X2002790Y-1579880D02*
G01X2002790Y-1542796D01*
G01X1950212Y-1512570D02*
G01X1946910Y-1506474D01*
G01X1937766Y-1497330D01*
G01X2002790Y-1497330D01*
G01X8774692Y-691655D02*
G01X8839716Y-691655D01*
G01X8774692Y-691655D02*
G01X8774692Y-663715D01*
G01X8777740Y-654571D01*
G01X8780788Y-651523D01*
G01X8787138Y-648221D01*
G01X8793234Y-648221D01*
G01X8799330Y-651523D01*
G01X8802378Y-654571D01*
G01X8805680Y-663715D01*
G01X8805680Y-691655D01*
G01X8805680Y-670065D02*
G01X8839716Y-648221D01*
G01X8787138Y-617995D02*
G01X8783836Y-611899D01*
G01X8774692Y-602755D01*
G01X8839716Y-602755D01*
G01X8774692Y-348755D02*
G01X8839716Y-348755D01*
G01X8774692Y-348755D02*
G01X8774692Y-320815D01*
G01X8777740Y-311671D01*
G01X8780788Y-308623D01*
G01X8787138Y-305321D01*
G01X8793234Y-305321D01*
G01X8799330Y-308623D01*
G01X8802378Y-311671D01*
G01X8805680Y-320815D01*
G01X8805680Y-348755D01*
G01X8805680Y-327165D02*
G01X8839716Y-305321D01*
G01X8790186Y-272047D02*
G01X8787138Y-272047D01*
G01X8780788Y-268999D01*
G01X8777740Y-265951D01*
G01X8774692Y-259855D01*
G01X8774692Y-247409D01*
G01X8777740Y-241059D01*
G01X8780788Y-238011D01*
G01X8787138Y-234963D01*
G01X8793234Y-234963D01*
G01X8799330Y-238011D01*
G01X8808728Y-244361D01*
G01X8839716Y-275095D01*
G01X8839716Y-231915D01*
G01X5938520Y-1556766D02*
G01X5938520Y-1603248D01*
G01X5941568Y-1612392D01*
G01X5947918Y-1618742D01*
G01X5957062Y-1621790D01*
G01X5963412Y-1621790D01*
G01X5972556Y-1618742D01*
G01X5978652Y-1612392D01*
G01X5981954Y-1603248D01*
G01X5981954Y-1556766D01*
G01X6049264Y-1565910D02*
G01X6046216Y-1559814D01*
G01X6036818Y-1556766D01*
G01X6030722Y-1556766D01*
G01X6021324Y-1559814D01*
G01X6015228Y-1569212D01*
G01X6012180Y-1584452D01*
G01X6012180Y-1599946D01*
G01X6015228Y-1612392D01*
G01X6021324Y-1618742D01*
G01X6030722Y-1621790D01*
G01X6033770Y-1621790D01*
G01X6042914Y-1618742D01*
G01X6049264Y-1612392D01*
G01X6052312Y-1603248D01*
G01X6052312Y-1599946D01*
G01X6049264Y-1590802D01*
G01X6042914Y-1584452D01*
G01X6033770Y-1581404D01*
G01X6030722Y-1581404D01*
G01X6021324Y-1584452D01*
G01X6015228Y-1590802D01*
G01X6012180Y-1599946D01*
G01X4272534Y-1722120D02*
G01X4226052Y-1722120D01*
G01X4216908Y-1725168D01*
G01X4210558Y-1731518D01*
G01X4207510Y-1740662D01*
G01X4207510Y-1747012D01*
G01X4210558Y-1756156D01*
G01X4216908Y-1762252D01*
G01X4226052Y-1765554D01*
G01X4272534Y-1765554D01*
G01X4257040Y-1798828D02*
G01X4260088Y-1798828D01*
G01X4266438Y-1801876D01*
G01X4269486Y-1804924D01*
G01X4272534Y-1811020D01*
G01X4272534Y-1823466D01*
G01X4269486Y-1829816D01*
G01X4266438Y-1832864D01*
G01X4260088Y-1835912D01*
G01X4253992Y-1835912D01*
G01X4247896Y-1832864D01*
G01X4238498Y-1826514D01*
G01X4207510Y-1795780D01*
G01X4207510Y-1838960D01*
G01X4010660Y-466598D02*
G01X4004310Y-469646D01*
G01X3998214Y-475996D01*
G01X3995166Y-482092D01*
G01X3995166Y-494538D01*
G01X3998214Y-500634D01*
G01X4004310Y-506984D01*
G01X4010660Y-510032D01*
G01X4019804Y-513080D01*
G01X4035298Y-513080D01*
G01X4044696Y-510032D01*
G01X4050792Y-506984D01*
G01X4057142Y-500634D01*
G01X4060190Y-494538D01*
G01X4060190Y-482092D01*
G01X4057142Y-475996D01*
G01X4050792Y-469646D01*
G01X4044696Y-466598D01*
G01X4010660Y-433324D02*
G01X4007612Y-433324D01*
G01X4001262Y-430276D01*
G01X3998214Y-427228D01*
G01X3995166Y-421132D01*
G01X3995166Y-408686D01*
G01X3998214Y-402336D01*
G01X4001262Y-399288D01*
G01X4007612Y-396240D01*
G01X4013708Y-396240D01*
G01X4019804Y-399288D01*
G01X4029202Y-405638D01*
G01X4060190Y-436372D01*
G01X4060190Y-393192D01*
G01X3995166Y-325882D02*
G01X3995166Y-356870D01*
G01X4022852Y-359918D01*
G01X4019804Y-356870D01*
G01X4016756Y-347726D01*
G01X4016756Y-338328D01*
G01X4019804Y-328930D01*
G01X4026154Y-322834D01*
G01X4035298Y-319786D01*
G01X4041648Y-319786D01*
G01X4050792Y-322834D01*
G01X4057142Y-328930D01*
G01X4060190Y-338328D01*
G01X4060190Y-347726D01*
G01X4057142Y-356870D01*
G01X4053840Y-359918D01*
G01X4047744Y-362966D01*
G01X2721102Y-2334260D02*
G01X2718054Y-2327910D01*
G01X2711704Y-2321814D01*
G01X2705608Y-2318766D01*
G01X2693162Y-2318766D01*
G01X2687066Y-2321814D01*
G01X2680716Y-2327910D01*
G01X2677668Y-2334260D01*
G01X2674620Y-2343404D01*
G01X2674620Y-2358898D01*
G01X2677668Y-2368296D01*
G01X2680716Y-2374392D01*
G01X2687066Y-2380742D01*
G01X2693162Y-2383790D01*
G01X2705608Y-2383790D01*
G01X2711704Y-2380742D01*
G01X2718054Y-2374392D01*
G01X2721102Y-2368296D01*
G01X2754376Y-2334260D02*
G01X2754376Y-2331212D01*
G01X2757424Y-2324862D01*
G01X2760472Y-2321814D01*
G01X2766568Y-2318766D01*
G01X2779014Y-2318766D01*
G01X2785364Y-2321814D01*
G01X2788412Y-2324862D01*
G01X2791460Y-2331212D01*
G01X2791460Y-2337308D01*
G01X2788412Y-2343404D01*
G01X2782062Y-2352802D01*
G01X2751328Y-2383790D01*
G01X2794508Y-2383790D01*
G01X2861818Y-2327910D02*
G01X2858770Y-2321814D01*
G01X2849372Y-2318766D01*
G01X2843276Y-2318766D01*
G01X2833878Y-2321814D01*
G01X2827782Y-2331212D01*
G01X2824734Y-2346452D01*
G01X2824734Y-2361946D01*
G01X2827782Y-2374392D01*
G01X2833878Y-2380742D01*
G01X2843276Y-2383790D01*
G01X2846324Y-2383790D01*
G01X2855468Y-2380742D01*
G01X2861818Y-2374392D01*
G01X2864866Y-2365248D01*
G01X2864866Y-2361946D01*
G01X2861818Y-2352802D01*
G01X2855468Y-2346452D01*
G01X2846324Y-2343404D01*
G01X2843276Y-2343404D01*
G01X2833878Y-2346452D01*
G01X2827782Y-2352802D01*
G01X2824734Y-2361946D01*
G01X5622798Y-447040D02*
G01X5625846Y-453390D01*
G01X5632196Y-459486D01*
G01X5638292Y-462534D01*
G01X5650738Y-462534D01*
G01X5656834Y-459486D01*
G01X5663184Y-453390D01*
G01X5666232Y-447040D01*
G01X5669280Y-437896D01*
G01X5669280Y-422402D01*
G01X5666232Y-413004D01*
G01X5663184Y-406908D01*
G01X5656834Y-400558D01*
G01X5650738Y-397510D01*
G01X5638292Y-397510D01*
G01X5632196Y-400558D01*
G01X5625846Y-406908D01*
G01X5622798Y-413004D01*
G01X5589524Y-447040D02*
G01X5589524Y-450088D01*
G01X5586476Y-456438D01*
G01X5583428Y-459486D01*
G01X5577332Y-462534D01*
G01X5564886Y-462534D01*
G01X5558536Y-459486D01*
G01X5555488Y-456438D01*
G01X5552440Y-450088D01*
G01X5552440Y-443992D01*
G01X5555488Y-437896D01*
G01X5561838Y-428498D01*
G01X5592572Y-397510D01*
G01X5549392Y-397510D01*
G01X5475986Y-462534D02*
G01X5506974Y-397510D01*
G01X5519166Y-462534D02*
G01X5475986Y-462534D01*
G01X6258560Y-657111D02*
G01X6252210Y-660159D01*
G01X6246114Y-666509D01*
G01X6243066Y-672605D01*
G01X6243066Y-685051D01*
G01X6246114Y-691147D01*
G01X6252210Y-697497D01*
G01X6258560Y-700545D01*
G01X6267704Y-703593D01*
G01X6283198Y-703593D01*
G01X6292596Y-700545D01*
G01X6298692Y-697497D01*
G01X6305042Y-691147D01*
G01X6308090Y-685051D01*
G01X6308090Y-672605D01*
G01X6305042Y-666509D01*
G01X6298692Y-660159D01*
G01X6292596Y-657111D01*
G01X6258560Y-623837D02*
G01X6255512Y-623837D01*
G01X6249162Y-620789D01*
G01X6246114Y-617741D01*
G01X6243066Y-611645D01*
G01X6243066Y-599199D01*
G01X6246114Y-592849D01*
G01X6249162Y-589801D01*
G01X6255512Y-586753D01*
G01X6261608Y-586753D01*
G01X6267704Y-589801D01*
G01X6277102Y-596151D01*
G01X6308090Y-626885D01*
G01X6308090Y-583705D01*
G01X6243066Y-538239D02*
G01X6246114Y-547383D01*
G01X6252210Y-550431D01*
G01X6258560Y-550431D01*
G01X6264656Y-547383D01*
G01X6267704Y-541287D01*
G01X6270752Y-528841D01*
G01X6274054Y-519443D01*
G01X6280150Y-513347D01*
G01X6286246Y-510299D01*
G01X6295644Y-510299D01*
G01X6301740Y-513347D01*
G01X6305042Y-516395D01*
G01X6308090Y-525793D01*
G01X6308090Y-538239D01*
G01X6305042Y-547383D01*
G01X6301740Y-550431D01*
G01X6295644Y-553479D01*
G01X6286246Y-553479D01*
G01X6280150Y-550431D01*
G01X6274054Y-544335D01*
G01X6270752Y-534937D01*
G01X6267704Y-522745D01*
G01X6264656Y-516395D01*
G01X6258560Y-513347D01*
G01X6252210Y-513347D01*
G01X6246114Y-516395D01*
G01X6243066Y-525793D01*
G01X6243066Y-538239D01*
G01X3182620Y-661048D02*
G01X3176270Y-664096D01*
G01X3170174Y-670446D01*
G01X3167126Y-676542D01*
G01X3167126Y-688988D01*
G01X3170174Y-695084D01*
G01X3176270Y-701434D01*
G01X3182620Y-704482D01*
G01X3191764Y-707530D01*
G01X3207258Y-707530D01*
G01X3216656Y-704482D01*
G01X3222752Y-701434D01*
G01X3229102Y-695084D01*
G01X3232150Y-688988D01*
G01X3232150Y-676542D01*
G01X3229102Y-670446D01*
G01X3222752Y-664096D01*
G01X3216656Y-661048D01*
G01X3179572Y-630822D02*
G01X3176270Y-624726D01*
G01X3167126Y-615582D01*
G01X3232150Y-615582D01*
G01X3802634Y-1988820D02*
G01X3756152Y-1988820D01*
G01X3747008Y-1991868D01*
G01X3740658Y-1998218D01*
G01X3737610Y-2007362D01*
G01X3737610Y-2013712D01*
G01X3740658Y-2022856D01*
G01X3747008Y-2028952D01*
G01X3756152Y-2032254D01*
G01X3802634Y-2032254D01*
G01X3802634Y-2068576D02*
G01X3802634Y-2102612D01*
G01X3777996Y-2084070D01*
G01X3777996Y-2093214D01*
G01X3774948Y-2099564D01*
G01X3771646Y-2102612D01*
G01X3762502Y-2105660D01*
G01X3756152Y-2105660D01*
G01X3747008Y-2102612D01*
G01X3740658Y-2096516D01*
G01X3737610Y-2087118D01*
G01X3737610Y-2077720D01*
G01X3740658Y-2068576D01*
G01X3743960Y-2065528D01*
G01X3750056Y-2062480D01*
G01X6078220Y-2369566D02*
G01X6078220Y-2416048D01*
G01X6081268Y-2425192D01*
G01X6087618Y-2431542D01*
G01X6096762Y-2434590D01*
G01X6103112Y-2434590D01*
G01X6112256Y-2431542D01*
G01X6118352Y-2425192D01*
G01X6121654Y-2416048D01*
G01X6121654Y-2369566D01*
G01X6188964Y-2369566D02*
G01X6157976Y-2369566D01*
G01X6154928Y-2397252D01*
G01X6157976Y-2394204D01*
G01X6167120Y-2391156D01*
G01X6176518Y-2391156D01*
G01X6185916Y-2394204D01*
G01X6192012Y-2400554D01*
G01X6195060Y-2409698D01*
G01X6195060Y-2416048D01*
G01X6192012Y-2425192D01*
G01X6185916Y-2431542D01*
G01X6176518Y-2434590D01*
G01X6167120Y-2434590D01*
G01X6157976Y-2431542D01*
G01X6154928Y-2428240D01*
G01X6151880Y-2422144D01*
G01X1112266Y-1185672D02*
G01X1158748Y-1185672D01*
G01X1167892Y-1182624D01*
G01X1174242Y-1176274D01*
G01X1177290Y-1167130D01*
G01X1177290Y-1160780D01*
G01X1174242Y-1151636D01*
G01X1167892Y-1145540D01*
G01X1158748Y-1142238D01*
G01X1112266Y-1142238D01*
G01X1121410Y-1068832D02*
G01X1115314Y-1074928D01*
G01X1112266Y-1084326D01*
G01X1112266Y-1096772D01*
G01X1115314Y-1105916D01*
G01X1121410Y-1112012D01*
G01X1127760Y-1112012D01*
G01X1133856Y-1108964D01*
G01X1136904Y-1105916D01*
G01X1139952Y-1099820D01*
G01X1146302Y-1081278D01*
G01X1149350Y-1074928D01*
G01X1152398Y-1071880D01*
G01X1158748Y-1068832D01*
G01X1167892Y-1068832D01*
G01X1174242Y-1074928D01*
G01X1177290Y-1084326D01*
G01X1177290Y-1096772D01*
G01X1174242Y-1105916D01*
G01X1167892Y-1112012D01*
G01X1112266Y-1038606D02*
G01X1177290Y-1038606D01*
G01X1112266Y-1038606D02*
G01X1112266Y-1010920D01*
G01X1115314Y-1001522D01*
G01X1118362Y-998474D01*
G01X1124712Y-995426D01*
G01X1130808Y-995426D01*
G01X1136904Y-998474D01*
G01X1139952Y-1001522D01*
G01X1143254Y-1010920D01*
G01X1143254Y-1038606D02*
G01X1143254Y-1010920D01*
G01X1146302Y-1001522D01*
G01X1149350Y-998474D01*
G01X1155446Y-995426D01*
G01X1164844Y-995426D01*
G01X1170940Y-998474D01*
G01X1174242Y-1001522D01*
G01X1177290Y-1010920D01*
G01X1177290Y-1038606D01*
G01X1112266Y-959104D02*
G01X1112266Y-925068D01*
G01X1136904Y-943610D01*
G01X1136904Y-934466D01*
G01X1139952Y-928116D01*
G01X1143254Y-925068D01*
G01X1152398Y-922020D01*
G01X1158748Y-922020D01*
G01X1167892Y-925068D01*
G01X1174242Y-931164D01*
G01X1177290Y-940562D01*
G01X1177290Y-949960D01*
G01X1174242Y-959104D01*
G01X1170940Y-962152D01*
G01X1164844Y-965200D01*
G01X6408420Y-1562735D02*
G01X6402070Y-1565783D01*
G01X6395974Y-1572133D01*
G01X6392926Y-1578229D01*
G01X6392926Y-1590675D01*
G01X6395974Y-1596771D01*
G01X6402070Y-1603121D01*
G01X6408420Y-1606169D01*
G01X6417564Y-1609217D01*
G01X6433058Y-1609217D01*
G01X6442456Y-1606169D01*
G01X6448552Y-1603121D01*
G01X6454902Y-1596771D01*
G01X6457950Y-1590675D01*
G01X6457950Y-1578229D01*
G01X6454902Y-1572133D01*
G01X6448552Y-1565783D01*
G01X6442456Y-1562735D01*
G01X6408420Y-1529461D02*
G01X6405372Y-1529461D01*
G01X6399022Y-1526413D01*
G01X6395974Y-1523365D01*
G01X6392926Y-1517269D01*
G01X6392926Y-1504823D01*
G01X6395974Y-1498473D01*
G01X6399022Y-1495425D01*
G01X6405372Y-1492377D01*
G01X6411468Y-1492377D01*
G01X6417564Y-1495425D01*
G01X6426962Y-1501775D01*
G01X6457950Y-1532509D01*
G01X6457950Y-1489329D01*
G01X6408420Y-1456055D02*
G01X6405372Y-1456055D01*
G01X6399022Y-1453007D01*
G01X6395974Y-1449959D01*
G01X6392926Y-1443863D01*
G01X6392926Y-1431417D01*
G01X6395974Y-1425067D01*
G01X6399022Y-1422019D01*
G01X6405372Y-1418971D01*
G01X6411468Y-1418971D01*
G01X6417564Y-1422019D01*
G01X6426962Y-1428369D01*
G01X6457950Y-1459103D01*
G01X6457950Y-1415923D01*
G01X9014460Y-847598D02*
G01X9008110Y-850646D01*
G01X9002014Y-856996D01*
G01X8998966Y-863092D01*
G01X8998966Y-875538D01*
G01X9002014Y-881634D01*
G01X9008110Y-887984D01*
G01X9014460Y-891032D01*
G01X9023604Y-894080D01*
G01X9039098Y-894080D01*
G01X9048496Y-891032D01*
G01X9054592Y-887984D01*
G01X9060942Y-881634D01*
G01X9063990Y-875538D01*
G01X9063990Y-863092D01*
G01X9060942Y-856996D01*
G01X9054592Y-850646D01*
G01X9048496Y-847598D01*
G01X9014460Y-814324D02*
G01X9011412Y-814324D01*
G01X9005062Y-811276D01*
G01X9002014Y-808228D01*
G01X8998966Y-802132D01*
G01X8998966Y-789686D01*
G01X9002014Y-783336D01*
G01X9005062Y-780288D01*
G01X9011412Y-777240D01*
G01X9017508Y-777240D01*
G01X9023604Y-780288D01*
G01X9033002Y-786638D01*
G01X9063990Y-817372D01*
G01X9063990Y-774192D01*
G01X8998966Y-713232D02*
G01X9042146Y-743966D01*
G01X9042146Y-697738D01*
G01X8998966Y-713232D02*
G01X9063990Y-713232D01*
G04 Text End*

G04 PolygonModel Start*
G01X1841480Y-2617719D02*
G01X2019320Y-2617719D01*
G01X1841480Y-2309881D02*
G01X2019320Y-2309881D01*
G01X8102580Y-2617719D02*
G01X8280420Y-2617719D01*
G01X8102580Y-2309881D02*
G01X8280420Y-2309881D01*
G54D11*
G01X4539897Y-1943801D02*
G01X4838700Y-1943801D01*
G01X5289903Y-1943801D02*
G01X4991100Y-1943801D01*
G01X5289903Y-2983799D02*
G01X4539897Y-2983799D01*
G01X4539897Y-2920949D02*
G01X4539897Y-2983799D01*
G01X4539897Y-1943801D02*
G01X4539897Y-2006651D01*
G01X5289903Y-2920957D02*
G01X5289903Y-2983799D01*
G01X5289903Y-1943801D02*
G01X5289903Y-2006643D01*
G01X4838700Y-1943801D02*
G03X4991100Y-1943862I76200J-30D01*
G54D10*
G01X8427720Y-1221110D02*
G01X8427720Y-918731D01*
G01X7396480Y-1221110D02*
G01X7396480Y-918731D01*
G01X8427720Y-918731D02*
G01X7396480Y-918731D01*
G54D11*
G01X5726956Y-735500D02*
G01X6151400Y-735500D01*
G01X5218956Y-735500D02*
G01X5626844Y-735500D01*
G01X4710956Y-735500D02*
G01X5118844Y-735500D01*
G01X4507710Y-735500D02*
G01X4610844Y-735500D01*
G01X4186400Y-735500D02*
G01X4306090Y-735500D01*
G01X4186400Y-1440500D02*
G01X6151400Y-1440500D01*
G01X4186400Y-735500D02*
G01X4186400Y-1440500D01*
G01X6151400Y-735500D02*
G01X6151400Y-1440500D01*
G01X8863292Y-1241900D02*
G01X8724908Y-1241900D01*
G01X8724908Y-1241900D02*
G01X8724908Y-1448786D01*
G01X10244907Y-1241900D02*
G01X9459521Y-1241900D01*
G01X10244907Y-1241900D02*
G01X10244907Y-2491900D01*
G01X8724908Y-1448786D02*
G01X8724908Y-1358900D01*
G01X8724908Y-1698785D02*
G01X8724908Y-1585016D01*
G01X8724908Y-1898785D02*
G01X8724908Y-1835015D01*
G01X8724908Y-2148784D02*
G01X8724908Y-2035015D01*
G01X8863292Y-2491900D02*
G01X8724908Y-2491900D01*
G01X8724908Y-2491900D02*
G01X8724908Y-2285014D01*
G01X10244907Y-2491900D02*
G01X9459521Y-2491900D01*
G54D10*
G01X4190040Y-1991236D02*
G01X4190040Y-2028081D01*
G01X4268160Y-2028081D02*
G01X4268160Y-1991236D01*
G01X4252920Y-1975996D02*
G01X4205280Y-1975996D01*
G01X4190040Y-2098164D02*
G01X4190040Y-2061319D01*
G01X4268160Y-2061319D02*
G01X4268160Y-2098164D01*
G01X4252920Y-2113404D02*
G01X4205280Y-2113404D01*
G01X4268160Y-1991236D02*
G03X4252920Y-1975996I-15240J0D01*
G01X4205280Y-1975996D02*
G03X4190040Y-1991236I0J-15240D01*
G01X4268160Y-2098164D02*
G02X4252920Y-2113404I-15240J0D01*
G01X4205280Y-2113404D02*
G02X4190040Y-2098164I0J15240D01*
G01X4153860Y-2237864D02*
G01X4153860Y-2201019D01*
G01X4075740Y-2201019D02*
G01X4075740Y-2237864D01*
G01X4090980Y-2253104D02*
G01X4138620Y-2253104D01*
G01X4153860Y-2130936D02*
G01X4153860Y-2167781D01*
G01X4075740Y-2167781D02*
G01X4075740Y-2130936D01*
G01X4090980Y-2115696D02*
G01X4138620Y-2115696D01*
G01X4075740Y-2237864D02*
G03X4090980Y-2253104I15240J0D01*
G01X4138620Y-2253104D02*
G03X4153860Y-2237864I0J15240D01*
G01X4075740Y-2130936D02*
G02X4090980Y-2115696I15240J0D01*
G01X4138620Y-2115696D02*
G02X4153860Y-2130936I0J-15240D01*
G01X4268160Y-2237864D02*
G01X4268160Y-2201019D01*
G01X4190040Y-2201019D02*
G01X4190040Y-2237864D01*
G01X4205280Y-2253104D02*
G01X4252920Y-2253104D01*
G01X4268160Y-2130936D02*
G01X4268160Y-2167781D01*
G01X4190040Y-2167781D02*
G01X4190040Y-2130936D01*
G01X4205280Y-2115696D02*
G01X4252920Y-2115696D01*
G01X4190040Y-2237864D02*
G03X4205280Y-2253104I15240J0D01*
G01X4252920Y-2253104D02*
G03X4268160Y-2237864I0J15240D01*
G01X4190040Y-2130936D02*
G02X4205280Y-2115696I15240J0D01*
G01X4252920Y-2115696D02*
G02X4268160Y-2130936I0J-15240D01*
G01X4190040Y-2664336D02*
G01X4190040Y-2701181D01*
G01X4268160Y-2701181D02*
G01X4268160Y-2664336D01*
G01X4252920Y-2649096D02*
G01X4205280Y-2649096D01*
G01X4190040Y-2771264D02*
G01X4190040Y-2734419D01*
G01X4268160Y-2734419D02*
G01X4268160Y-2771264D01*
G01X4252920Y-2786504D02*
G01X4205280Y-2786504D01*
G01X4268160Y-2664336D02*
G03X4252920Y-2649096I-15240J0D01*
G01X4205280Y-2649096D02*
G03X4190040Y-2664336I0J-15240D01*
G01X4268160Y-2771264D02*
G02X4252920Y-2786504I-15240J0D01*
G01X4205280Y-2786504D02*
G02X4190040Y-2771264I0J15240D01*
G01X4075740Y-2664336D02*
G01X4075740Y-2701181D01*
G01X4153860Y-2701181D02*
G01X4153860Y-2664336D01*
G01X4138620Y-2649096D02*
G01X4090980Y-2649096D01*
G01X4075740Y-2771264D02*
G01X4075740Y-2734419D01*
G01X4153860Y-2734419D02*
G01X4153860Y-2771264D01*
G01X4138620Y-2786504D02*
G01X4090980Y-2786504D01*
G01X4153860Y-2664336D02*
G03X4138620Y-2649096I-15240J0D01*
G01X4090980Y-2649096D02*
G03X4075740Y-2664336I0J-15240D01*
G01X4153860Y-2771264D02*
G02X4138620Y-2786504I-15240J0D01*
G01X4090980Y-2786504D02*
G02X4075740Y-2771264I0J15240D01*
G01X3961440Y-2130936D02*
G01X3961440Y-2167781D01*
G01X4039560Y-2167781D02*
G01X4039560Y-2130936D01*
G01X4024320Y-2115696D02*
G01X3976680Y-2115696D01*
G01X3961440Y-2237864D02*
G01X3961440Y-2201019D01*
G01X4039560Y-2201019D02*
G01X4039560Y-2237864D01*
G01X4024320Y-2253104D02*
G01X3976680Y-2253104D01*
G01X4039560Y-2130936D02*
G03X4024320Y-2115696I-15240J0D01*
G01X3976680Y-2115696D02*
G03X3961440Y-2130936I0J-15240D01*
G01X4039560Y-2237864D02*
G02X4024320Y-2253104I-15240J0D01*
G01X3976680Y-2253104D02*
G02X3961440Y-2237864I0J15240D01*
G01X4039560Y-2771264D02*
G01X4039560Y-2734419D01*
G01X3961440Y-2734419D02*
G01X3961440Y-2771264D01*
G01X3976680Y-2786504D02*
G01X4024320Y-2786504D01*
G01X4039560Y-2664336D02*
G01X4039560Y-2701181D01*
G01X3961440Y-2701181D02*
G01X3961440Y-2664336D01*
G01X3976680Y-2649096D02*
G01X4024320Y-2649096D01*
G01X3961440Y-2771264D02*
G03X3976680Y-2786504I15240J0D01*
G01X4024320Y-2786504D02*
G03X4039560Y-2771264I0J15240D01*
G01X3961440Y-2664336D02*
G02X3976680Y-2649096I15240J0D01*
G01X4024320Y-2649096D02*
G02X4039560Y-2664336I0J-15240D01*
G01X3949670Y-1586560D02*
G01X4028679Y-1586560D01*
G01X4028679Y-1486840D02*
G01X3949670Y-1486840D01*
G01X3934430Y-1502080D02*
G01X3934430Y-1571320D01*
G01X4152930Y-1586560D02*
G01X4073921Y-1586560D01*
G01X4073921Y-1486840D02*
G01X4152930Y-1486840D01*
G01X4168170Y-1502080D02*
G01X4168170Y-1571320D01*
G01X3949670Y-1486840D02*
G03X3934430Y-1502080I0J-15240D01*
G01X3934430Y-1571320D02*
G03X3949670Y-1586560I15240J0D01*
G01X4152930Y-1486840D02*
G02X4168170Y-1502080I0J-15240D01*
G01X4168170Y-1571320D02*
G02X4152930Y-1586560I-15240J0D01*
G01X3505170Y-1827860D02*
G01X3584179Y-1827860D01*
G01X3584179Y-1728140D02*
G01X3505170Y-1728140D01*
G01X3489930Y-1743380D02*
G01X3489930Y-1812620D01*
G01X3708430Y-1827860D02*
G01X3629421Y-1827860D01*
G01X3629421Y-1728140D02*
G01X3708430Y-1728140D01*
G01X3723670Y-1743380D02*
G01X3723670Y-1812620D01*
G01X3505170Y-1728140D02*
G03X3489930Y-1743380I0J-15240D01*
G01X3489930Y-1812620D02*
G03X3505170Y-1827860I15240J0D01*
G01X3708430Y-1728140D02*
G02X3723670Y-1743380I0J-15240D01*
G01X3723670Y-1812620D02*
G02X3708430Y-1827860I-15240J0D01*
G01X4153860Y-2098164D02*
G01X4153860Y-2061319D01*
G01X4075740Y-2061319D02*
G01X4075740Y-2098164D01*
G01X4090980Y-2113404D02*
G01X4138620Y-2113404D01*
G01X4153860Y-1991236D02*
G01X4153860Y-2028081D01*
G01X4075740Y-2028081D02*
G01X4075740Y-1991236D01*
G01X4090980Y-1975996D02*
G01X4138620Y-1975996D01*
G01X4075740Y-2098164D02*
G03X4090980Y-2113404I15240J0D01*
G01X4138620Y-2113404D02*
G03X4153860Y-2098164I0J15240D01*
G01X4075740Y-1991236D02*
G02X4090980Y-1975996I15240J0D01*
G01X4138620Y-1975996D02*
G02X4153860Y-1991236I0J-15240D01*
G01X5754060Y-2123564D02*
G01X5754060Y-2086719D01*
G01X5675940Y-2086719D02*
G01X5675940Y-2123564D01*
G01X5691180Y-2138804D02*
G01X5738820Y-2138804D01*
G01X5754060Y-2016636D02*
G01X5754060Y-2053481D01*
G01X5675940Y-2053481D02*
G01X5675940Y-2016636D01*
G01X5691180Y-2001396D02*
G01X5738820Y-2001396D01*
G01X5675940Y-2123564D02*
G03X5691180Y-2138804I15240J0D01*
G01X5738820Y-2138804D02*
G03X5754060Y-2123564I0J15240D01*
G01X5675940Y-2016636D02*
G02X5691180Y-2001396I15240J0D01*
G01X5738820Y-2001396D02*
G02X5754060Y-2016636I0J-15240D01*
G01X6363640Y-2120870D02*
G01X6363640Y-2199879D01*
G01X6463360Y-2199879D02*
G01X6463360Y-2120870D01*
G01X6448120Y-2105630D02*
G01X6378880Y-2105630D01*
G01X6363640Y-2324130D02*
G01X6363640Y-2245121D01*
G01X6463360Y-2245121D02*
G01X6463360Y-2324130D01*
G01X6448120Y-2339370D02*
G01X6378880Y-2339370D01*
G01X6463360Y-2120870D02*
G03X6448120Y-2105630I-15240J0D01*
G01X6378880Y-2105630D02*
G03X6363640Y-2120870I0J-15240D01*
G01X6463360Y-2324130D02*
G02X6448120Y-2339370I-15240J0D01*
G01X6378880Y-2339370D02*
G02X6363640Y-2324130I0J15240D01*
G01X6211240Y-1765270D02*
G01X6211240Y-1844279D01*
G01X6310960Y-1844279D02*
G01X6310960Y-1765270D01*
G01X6295720Y-1750030D02*
G01X6226480Y-1750030D01*
G01X6211240Y-1968530D02*
G01X6211240Y-1889521D01*
G01X6310960Y-1889521D02*
G01X6310960Y-1968530D01*
G01X6295720Y-1983770D02*
G01X6226480Y-1983770D01*
G01X6310960Y-1765270D02*
G03X6295720Y-1750030I-15240J0D01*
G01X6226480Y-1750030D02*
G03X6211240Y-1765270I0J-15240D01*
G01X6310960Y-1968530D02*
G02X6295720Y-1983770I-15240J0D01*
G01X6226480Y-1983770D02*
G02X6211240Y-1968530I0J15240D01*
G01X5868360Y-2771264D02*
G01X5868360Y-2734419D01*
G01X5790240Y-2734419D02*
G01X5790240Y-2771264D01*
G01X5805480Y-2786504D02*
G01X5853120Y-2786504D01*
G01X5868360Y-2664336D02*
G01X5868360Y-2701181D01*
G01X5790240Y-2701181D02*
G01X5790240Y-2664336D01*
G01X5805480Y-2649096D02*
G01X5853120Y-2649096D01*
G01X5790240Y-2771264D02*
G03X5805480Y-2786504I15240J0D01*
G01X5853120Y-2786504D02*
G03X5868360Y-2771264I0J15240D01*
G01X5790240Y-2664336D02*
G02X5805480Y-2649096I15240J0D01*
G01X5853120Y-2649096D02*
G02X5868360Y-2664336I0J-15240D01*
G01X5790240Y-2156336D02*
G01X5790240Y-2193181D01*
G01X5868360Y-2193181D02*
G01X5868360Y-2156336D01*
G01X5853120Y-2141096D02*
G01X5805480Y-2141096D01*
G01X5790240Y-2263264D02*
G01X5790240Y-2226419D01*
G01X5868360Y-2226419D02*
G01X5868360Y-2263264D01*
G01X5853120Y-2278504D02*
G01X5805480Y-2278504D01*
G01X5868360Y-2156336D02*
G03X5853120Y-2141096I-15240J0D01*
G01X5805480Y-2141096D02*
G03X5790240Y-2156336I0J-15240D01*
G01X5868360Y-2263264D02*
G02X5853120Y-2278504I-15240J0D01*
G01X5805480Y-2278504D02*
G02X5790240Y-2263264I0J15240D01*
G01X5675940Y-2664336D02*
G01X5675940Y-2701181D01*
G01X5754060Y-2701181D02*
G01X5754060Y-2664336D01*
G01X5738820Y-2649096D02*
G01X5691180Y-2649096D01*
G01X5675940Y-2771264D02*
G01X5675940Y-2734419D01*
G01X5754060Y-2734419D02*
G01X5754060Y-2771264D01*
G01X5738820Y-2786504D02*
G01X5691180Y-2786504D01*
G01X5754060Y-2664336D02*
G03X5738820Y-2649096I-15240J0D01*
G01X5691180Y-2649096D02*
G03X5675940Y-2664336I0J-15240D01*
G01X5754060Y-2771264D02*
G02X5738820Y-2786504I-15240J0D01*
G01X5691180Y-2786504D02*
G02X5675940Y-2771264I0J15240D01*
G01X5561640Y-2664336D02*
G01X5561640Y-2701181D01*
G01X5639760Y-2701181D02*
G01X5639760Y-2664336D01*
G01X5624520Y-2649096D02*
G01X5576880Y-2649096D01*
G01X5561640Y-2771264D02*
G01X5561640Y-2734419D01*
G01X5639760Y-2734419D02*
G01X5639760Y-2771264D01*
G01X5624520Y-2786504D02*
G01X5576880Y-2786504D01*
G01X5639760Y-2664336D02*
G03X5624520Y-2649096I-15240J0D01*
G01X5576880Y-2649096D02*
G03X5561640Y-2664336I0J-15240D01*
G01X5639760Y-2771264D02*
G02X5624520Y-2786504I-15240J0D01*
G01X5576880Y-2786504D02*
G02X5561640Y-2771264I0J15240D01*
G01X5639760Y-2263264D02*
G01X5639760Y-2226419D01*
G01X5561640Y-2226419D02*
G01X5561640Y-2263264D01*
G01X5576880Y-2278504D02*
G01X5624520Y-2278504D01*
G01X5639760Y-2156336D02*
G01X5639760Y-2193181D01*
G01X5561640Y-2193181D02*
G01X5561640Y-2156336D01*
G01X5576880Y-2141096D02*
G01X5624520Y-2141096D01*
G01X5561640Y-2263264D02*
G03X5576880Y-2278504I15240J0D01*
G01X5624520Y-2278504D02*
G03X5639760Y-2263264I0J15240D01*
G01X5561640Y-2156336D02*
G02X5576880Y-2141096I15240J0D01*
G01X5624520Y-2141096D02*
G02X5639760Y-2156336I0J-15240D01*
G01X5754060Y-2263264D02*
G01X5754060Y-2226419D01*
G01X5675940Y-2226419D02*
G01X5675940Y-2263264D01*
G01X5691180Y-2278504D02*
G01X5738820Y-2278504D01*
G01X5754060Y-2156336D02*
G01X5754060Y-2193181D01*
G01X5675940Y-2193181D02*
G01X5675940Y-2156336D01*
G01X5691180Y-2141096D02*
G01X5738820Y-2141096D01*
G01X5675940Y-2263264D02*
G03X5691180Y-2278504I15240J0D01*
G01X5738820Y-2278504D02*
G03X5754060Y-2263264I0J15240D01*
G01X5675940Y-2156336D02*
G02X5691180Y-2141096I15240J0D01*
G01X5738820Y-2141096D02*
G02X5754060Y-2156336I0J-15240D01*
G01X5561640Y-2016636D02*
G01X5561640Y-2053481D01*
G01X5639760Y-2053481D02*
G01X5639760Y-2016636D01*
G01X5624520Y-2001396D02*
G01X5576880Y-2001396D01*
G01X5561640Y-2123564D02*
G01X5561640Y-2086719D01*
G01X5639760Y-2086719D02*
G01X5639760Y-2123564D01*
G01X5624520Y-2138804D02*
G01X5576880Y-2138804D01*
G01X5639760Y-2016636D02*
G03X5624520Y-2001396I-15240J0D01*
G01X5576880Y-2001396D02*
G03X5561640Y-2016636I0J-15240D01*
G01X5639760Y-2123564D02*
G02X5624520Y-2138804I-15240J0D01*
G01X5576880Y-2138804D02*
G02X5561640Y-2123564I0J15240D01*
G01X7823230Y-191440D02*
G01X7744221Y-191440D01*
G01X7744221Y-291160D02*
G01X7823230Y-291160D01*
G01X7838470Y-275920D02*
G01X7838470Y-206680D01*
G01X7619970Y-191440D02*
G01X7698979Y-191440D01*
G01X7698979Y-291160D02*
G01X7619970Y-291160D01*
G01X7604730Y-275920D02*
G01X7604730Y-206680D01*
G01X7823230Y-291160D02*
G03X7838470Y-275920I0J15240D01*
G01X7838470Y-206680D02*
G03X7823230Y-191440I-15240J0D01*
G01X7619970Y-291160D02*
G02X7604730Y-275920I0J15240D01*
G01X7604730Y-206680D02*
G02X7619970Y-191440I15240J0D01*
G01X1643339Y-1972219D02*
G01X1643339Y-2091230D01*
G01X1643339Y-1786979D02*
G01X1643339Y-1667970D01*
G01X1658579Y-2106470D02*
G01X1846621Y-2106470D01*
G01X1658579Y-1652730D02*
G01X1846621Y-1652730D01*
G01X1861861Y-2091230D02*
G01X1861861Y-1972219D01*
G01X1861861Y-1667970D02*
G01X1861861Y-1786979D01*
G54D12*
G01X1752600Y-1879600D02*
G02X1668104Y-1879600I-42248J73175D01*
G01X1752600Y-1879600D02*
G02X1837096Y-1879600I42248J-73175D01*
G54D13*
G01X1916064Y-1676232D02*
G01X1916064Y-1752432D01*
G01X1916064Y-1929234D02*
G01X1916064Y-1853034D01*
G01X2048185Y-1929234D02*
G01X2048185Y-1853034D01*
G54D10*
G01X2048185Y-1929234D02*
G01X2032942Y-1944464D01*
G01X2032942Y-1944464D02*
G01X1931299Y-1944464D01*
G01X1931299Y-1944464D02*
G01X1916064Y-1929234D01*
G54D13*
G01X2048185Y-1676232D02*
G01X2048185Y-1752432D01*
G54D10*
G01X1916064Y-1676232D02*
G01X1931299Y-1660990D01*
G01X1931299Y-1660990D02*
G01X2032942Y-1660990D01*
G01X2032942Y-1660990D02*
G01X2048185Y-1676232D01*
G01X8608040Y-690321D02*
G01X8608040Y-786209D01*
G01X8608040Y-786209D02*
G01X8740160Y-786209D01*
G01X8740160Y-786209D02*
G01X8740160Y-690321D01*
G01X8608040Y-605079D02*
G01X8608040Y-509191D01*
G01X8608040Y-509191D02*
G01X8740160Y-509191D01*
G01X8740160Y-509191D02*
G01X8740160Y-605079D01*
G01X8740160Y-249479D02*
G01X8740160Y-153591D01*
G01X8740160Y-153591D02*
G01X8608040Y-153591D01*
G01X8608040Y-153591D02*
G01X8608040Y-249479D01*
G01X8740160Y-334721D02*
G01X8740160Y-430609D01*
G01X8740160Y-430609D02*
G01X8608040Y-430609D01*
G01X8608040Y-430609D02*
G01X8608040Y-334721D01*
G54D11*
G01X5924550Y-1968497D02*
G01X6064247Y-1968503D01*
G01X5952155Y-1676403D02*
G01X6036633Y-1676403D01*
G01X5905497Y-1854197D02*
G01X5905497Y-1778003D01*
G01X4152897Y-1847850D02*
G01X4152903Y-1708153D01*
G01X3860803Y-1820245D02*
G01X3860803Y-1735767D01*
G01X4038597Y-1866903D02*
G01X3962403Y-1866903D01*
G54D10*
G01X3976040Y-558770D02*
G01X3976040Y-637779D01*
G01X4075760Y-637779D02*
G01X4075760Y-558770D01*
G01X4060520Y-543530D02*
G01X3991280Y-543530D01*
G01X3976040Y-762030D02*
G01X3976040Y-683021D01*
G01X4075760Y-683021D02*
G01X4075760Y-762030D01*
G01X4060520Y-777270D02*
G01X3991280Y-777270D01*
G01X4075760Y-558770D02*
G03X4060520Y-543530I-15240J0D01*
G01X3991280Y-543530D02*
G03X3976040Y-558770I0J-15240D01*
G01X4075760Y-762030D02*
G02X4060520Y-777270I-15240J0D01*
G01X3991280Y-777270D02*
G02X3976040Y-762030I0J15240D01*
G54D11*
G01X3009900Y-1450073D02*
G01X3009900Y-1602473D01*
G01X3086100Y-1526273D02*
G01X2933700Y-1526273D01*
G36*
G01X3263900Y-1780273D02*
G01X3213100Y-1958073D01*
G01X3162300Y-2085073D01*
G01X3035300Y-2186673D01*
G01X2908300Y-2262873D01*
G01X2806700Y-2288273D01*
G01X2552700Y-2237473D01*
G01X2451100Y-2161273D01*
G01X2349500Y-2059673D01*
G01X2298700Y-1958073D01*
G01X2273300Y-1856473D01*
G01X2247900Y-1780273D01*
G01X3263900Y-1780273D01*
G37*
G54D10*
G01X5511770Y-659460D02*
G01X5590779Y-659460D01*
G01X5590779Y-559740D02*
G01X5511770Y-559740D01*
G01X5496530Y-574980D02*
G01X5496530Y-644220D01*
G01X5715030Y-659460D02*
G01X5636021Y-659460D01*
G01X5636021Y-559740D02*
G01X5715030Y-559740D01*
G01X5730270Y-574980D02*
G01X5730270Y-644220D01*
G01X5511770Y-559740D02*
G03X5496530Y-574980I0J-15240D01*
G01X5496530Y-644220D02*
G03X5511770Y-659460I15240J0D01*
G01X5715030Y-559740D02*
G02X5730270Y-574980I0J-15240D01*
G01X5730270Y-644220D02*
G02X5715030Y-659460I-15240J0D01*
G54D11*
G01X6616700Y-1039127D02*
G01X6616700Y-886727D01*
G01X6540500Y-962927D02*
G01X6692900Y-962927D01*
G36*
G01X6362700Y-708927D02*
G01X6413500Y-531127D01*
G01X6464300Y-404127D01*
G01X6591300Y-302527D01*
G01X6718300Y-226327D01*
G01X6819900Y-200927D01*
G01X7073900Y-251727D01*
G01X7175500Y-327927D01*
G01X7277100Y-429527D01*
G01X7327900Y-531127D01*
G01X7353300Y-632727D01*
G01X7378700Y-708927D01*
G01X6362700Y-708927D01*
G37*
G01X3136900Y-1039127D02*
G01X3136900Y-886727D01*
G01X3060700Y-962927D02*
G01X3213100Y-962927D01*
G36*
G01X2882900Y-708927D02*
G01X2933700Y-531127D01*
G01X2984500Y-404127D01*
G01X3111500Y-302527D01*
G01X3238500Y-226327D01*
G01X3340100Y-200927D01*
G01X3594100Y-251727D01*
G01X3695700Y-327927D01*
G01X3797300Y-429527D01*
G01X3848100Y-531127D01*
G01X3873500Y-632727D01*
G01X3898900Y-708927D01*
G01X2882900Y-708927D01*
G37*
G01X3708397Y-2127250D02*
G01X3708403Y-1987553D01*
G01X3416303Y-2099645D02*
G01X3416303Y-2015167D01*
G01X3594097Y-2146303D02*
G01X3517903Y-2146303D01*
G01X6064250Y-2336797D02*
G01X6203947Y-2336803D01*
G01X6091855Y-2044703D02*
G01X6176333Y-2044703D01*
G01X6045197Y-2222497D02*
G01X6045197Y-2146303D01*
G01X382092Y-2476503D02*
G01X-250294Y-2476503D01*
G01X1358905Y-2112518D02*
G01X1358905Y-2476503D01*
G01X1358905Y-2476503D02*
G01X1033318Y-2476503D01*
G01X1358905Y-1987517D02*
G01X1358905Y-1996288D01*
G01X1358905Y-1862518D02*
G01X1358905Y-1871287D01*
G01X1358905Y-1737517D02*
G01X1358905Y-1746288D01*
G01X1033318Y-1266904D02*
G01X1358905Y-1266904D01*
G01X1358905Y-1266904D02*
G01X1358905Y-1621287D01*
G01X-250294Y-1266904D02*
G01X382092Y-1266904D01*
G01X-250294Y-2466901D02*
G01X-250294Y-1266904D01*
G54D10*
G01X6507439Y-1371780D02*
G01X6507439Y-1520279D01*
G01X6725961Y-1520279D02*
G01X6725961Y-1371780D01*
G01X6710721Y-1356540D02*
G01X6522679Y-1356540D01*
G01X6507439Y-1854020D02*
G01X6507439Y-1705521D01*
G01X6725961Y-1705521D02*
G01X6725961Y-1854020D01*
G01X6710721Y-1869260D02*
G01X6522679Y-1869260D01*
G01X6725961Y-1371780D02*
G03X6710721Y-1356540I-15240J0D01*
G01X6522679Y-1356540D02*
G03X6507439Y-1371780I0J-15240D01*
G01X6725961Y-1854020D02*
G02X6710721Y-1869260I-15240J0D01*
G01X6522679Y-1869260D02*
G02X6507439Y-1854020I0J15240D01*
G01X8916114Y-164506D02*
G01X8916114Y-313004D01*
G01X9134635Y-313004D02*
G01X9134635Y-164506D01*
G01X9119395Y-149266D02*
G01X8931354Y-149266D01*
G01X8916114Y-646745D02*
G01X8916114Y-498246D01*
G01X9134635Y-498246D02*
G01X9134635Y-646745D01*
G01X9119395Y-661985D02*
G01X8931354Y-661985D01*
G01X9134635Y-164506D02*
G03X9119395Y-149266I-15240J0D01*
G01X8931354Y-149266D02*
G03X8916114Y-164506I0J-15240D01*
G01X9134635Y-646745D02*
G02X9119395Y-661985I-15240J0D01*
G01X8931354Y-661985D02*
G02X8916114Y-646745I0J15240D01*

G04 Circle Start*
G54D14*
G01X1785239Y-2296973D02*
G03X1815262Y-2296973I15011J0D01*
G03X1785239Y-2296973I-15011J0D01*
G01X8046339Y-2296973D02*
G03X8076362Y-2296973I15011J0D01*
G03X8046339Y-2296973I-15011J0D01*
G01X4417294Y-1981215D02*
G03X4447316Y-1981215I15011J0D01*
G03X4417294Y-1981215I-15011J0D01*
G54D11*
G01X8238185Y-428338D02*
G03X8263585Y-428338I12700J0D01*
G03X8238185Y-428338I-12700J0D01*
G01X2255901Y-1780273D02*
G03X3255899Y-1780273I499999J0D01*
G03X2255901Y-1780273I-499999J0D01*
G01X6370701Y-708927D02*
G03X7370699Y-708927I499999J0D01*
G03X6370701Y-708927I-499999J0D01*
G01X2890901Y-708927D02*
G03X3890899Y-708927I499999J0D01*
G03X2890901Y-708927I-499999J0D01*
G01X1398676Y-2131898D02*
G03X1422705Y-2131898I12014J0D01*
G03X1398676Y-2131898I-12014J0D01*
G04 Circle End*

M02*

