G04 Layer: TopPasteMaskLayer*
G04 EasyEDA Pro v2.2.36.7, 2025-03-08 17:24:09*
G04 Gerber Generator version 0.3*
G04 Scale: 100 percent, Rotated: No, Reflected: No*
G04 Dimensions in millimeters*
G04 Leading zeros omitted, absolute positions, 4 integers and 5 decimals*
%FSLAX45Y45*%
%MOMM*%
%ADD10R,1.07201X0.532*%
%ADD11O,2.01549X0.36401*%
%ADD12R,1.13401X3.35854*%
%ADD13R,10.5664X7.18053*%
%ADD14R,5.49999X2.05001*%
%ADD15R,2.99999X0.9*%
%ADD16R,1.72799X1.19009*%
%ADD17R,1.0X0.6*%
%ADD18R,0.6001X1.0*%
%ADD19R,0.6X1.0*%
%ADD20R,2.99999X0.7*%
%ADD21R,6.05X3.39999*%
G75*


G04 PolygonModel Start*
G36*
G01X4242900Y-2036600D02*
G01X4215300Y-2036600D01*
G01X4212900Y-2034200D01*
G01X4212900Y-2001256D01*
G01X4215300Y-1998856D01*
G01X4242900Y-1998856D01*
G01X4245300Y-2001256D01*
G01X4245300Y-2034200D01*
G01X4242900Y-2036600D01*
G37*
G36*
G01X4242900Y-2052800D02*
G01X4215300Y-2052800D01*
G01X4212900Y-2055200D01*
G01X4212900Y-2088144D01*
G01X4215300Y-2090544D01*
G01X4242900Y-2090544D01*
G01X4245300Y-2088144D01*
G01X4245300Y-2055200D01*
G01X4242900Y-2052800D01*
G37*
G36*
G01X4101000Y-2192500D02*
G01X4128600Y-2192500D01*
G01X4131000Y-2194900D01*
G01X4131000Y-2227844D01*
G01X4128600Y-2230244D01*
G01X4101000Y-2230244D01*
G01X4098600Y-2227844D01*
G01X4098600Y-2194900D01*
G01X4101000Y-2192500D01*
G37*
G36*
G01X4101000Y-2176300D02*
G01X4128600Y-2176300D01*
G01X4131000Y-2173900D01*
G01X4131000Y-2140956D01*
G01X4128600Y-2138556D01*
G01X4101000Y-2138556D01*
G01X4098600Y-2140956D01*
G01X4098600Y-2173900D01*
G01X4101000Y-2176300D01*
G37*
G36*
G01X4215300Y-2192500D02*
G01X4242900Y-2192500D01*
G01X4245300Y-2194900D01*
G01X4245300Y-2227844D01*
G01X4242900Y-2230244D01*
G01X4215300Y-2230244D01*
G01X4212900Y-2227844D01*
G01X4212900Y-2194900D01*
G01X4215300Y-2192500D01*
G37*
G36*
G01X4215300Y-2176300D02*
G01X4242900Y-2176300D01*
G01X4245300Y-2173900D01*
G01X4245300Y-2140956D01*
G01X4242900Y-2138556D01*
G01X4215300Y-2138556D01*
G01X4212900Y-2140956D01*
G01X4212900Y-2173900D01*
G01X4215300Y-2176300D01*
G37*
G36*
G01X4242900Y-2709700D02*
G01X4215300Y-2709700D01*
G01X4212900Y-2707300D01*
G01X4212900Y-2674356D01*
G01X4215300Y-2671956D01*
G01X4242900Y-2671956D01*
G01X4245300Y-2674356D01*
G01X4245300Y-2707300D01*
G01X4242900Y-2709700D01*
G37*
G36*
G01X4242900Y-2725900D02*
G01X4215300Y-2725900D01*
G01X4212900Y-2728300D01*
G01X4212900Y-2761244D01*
G01X4215300Y-2763644D01*
G01X4242900Y-2763644D01*
G01X4245300Y-2761244D01*
G01X4245300Y-2728300D01*
G01X4242900Y-2725900D01*
G37*
G36*
G01X4128600Y-2709700D02*
G01X4101000Y-2709700D01*
G01X4098600Y-2707300D01*
G01X4098600Y-2674356D01*
G01X4101000Y-2671956D01*
G01X4128600Y-2671956D01*
G01X4131000Y-2674356D01*
G01X4131000Y-2707300D01*
G01X4128600Y-2709700D01*
G37*
G36*
G01X4128600Y-2725900D02*
G01X4101000Y-2725900D01*
G01X4098600Y-2728300D01*
G01X4098600Y-2761244D01*
G01X4101000Y-2763644D01*
G01X4128600Y-2763644D01*
G01X4131000Y-2761244D01*
G01X4131000Y-2728300D01*
G01X4128600Y-2725900D01*
G37*
G36*
G01X4014300Y-2176300D02*
G01X3986700Y-2176300D01*
G01X3984300Y-2173900D01*
G01X3984300Y-2140956D01*
G01X3986700Y-2138556D01*
G01X4014300Y-2138556D01*
G01X4016700Y-2140956D01*
G01X4016700Y-2173900D01*
G01X4014300Y-2176300D01*
G37*
G36*
G01X4014300Y-2192500D02*
G01X3986700Y-2192500D01*
G01X3984300Y-2194900D01*
G01X3984300Y-2227844D01*
G01X3986700Y-2230244D01*
G01X4014300Y-2230244D01*
G01X4016700Y-2227844D01*
G01X4016700Y-2194900D01*
G01X4014300Y-2192500D01*
G37*
G36*
G01X3986700Y-2725900D02*
G01X4014300Y-2725900D01*
G01X4016700Y-2728300D01*
G01X4016700Y-2761244D01*
G01X4014300Y-2763644D01*
G01X3986700Y-2763644D01*
G01X3984300Y-2761244D01*
G01X3984300Y-2728300D01*
G01X3986700Y-2725900D01*
G37*
G36*
G01X3986700Y-2709700D02*
G01X4014300Y-2709700D01*
G01X4016700Y-2707300D01*
G01X4016700Y-2674356D01*
G01X4014300Y-2671956D01*
G01X3986700Y-2671956D01*
G01X3984300Y-2674356D01*
G01X3984300Y-2707300D01*
G01X3986700Y-2709700D01*
G37*
G36*
G01X4069304Y-1559202D02*
G01X4069304Y-1514201D01*
G01X4076301Y-1509202D01*
G01X4124302Y-1509202D01*
G01X4129303Y-1514201D01*
G01X4129303Y-1559202D01*
G01X4124302Y-1564201D01*
G01X4076301Y-1564201D01*
G01X4069304Y-1559202D01*
G37*
G36*
G01X3973302Y-1559202D02*
G01X3973302Y-1514201D01*
G01X3978303Y-1509202D01*
G01X4026301Y-1509202D01*
G01X4033302Y-1514201D01*
G01X4033302Y-1559202D01*
G01X4026301Y-1564201D01*
G01X3978303Y-1564201D01*
G01X3973302Y-1559202D01*
G37*
G36*
G01X3624804Y-1800502D02*
G01X3624804Y-1755501D01*
G01X3631801Y-1750502D01*
G01X3679802Y-1750502D01*
G01X3684803Y-1755501D01*
G01X3684803Y-1800502D01*
G01X3679802Y-1805501D01*
G01X3631801Y-1805501D01*
G01X3624804Y-1800502D01*
G37*
G36*
G01X3528802Y-1800502D02*
G01X3528802Y-1755501D01*
G01X3533803Y-1750502D01*
G01X3581801Y-1750502D01*
G01X3588802Y-1755501D01*
G01X3588802Y-1800502D01*
G01X3581801Y-1805501D01*
G01X3533803Y-1805501D01*
G01X3528802Y-1800502D01*
G37*
G36*
G01X4101000Y-2052800D02*
G01X4128600Y-2052800D01*
G01X4131000Y-2055200D01*
G01X4131000Y-2088144D01*
G01X4128600Y-2090544D01*
G01X4101000Y-2090544D01*
G01X4098600Y-2088144D01*
G01X4098600Y-2055200D01*
G01X4101000Y-2052800D01*
G37*
G36*
G01X4101000Y-2036600D02*
G01X4128600Y-2036600D01*
G01X4131000Y-2034200D01*
G01X4131000Y-2001256D01*
G01X4128600Y-1998856D01*
G01X4101000Y-1998856D01*
G01X4098600Y-2001256D01*
G01X4098600Y-2034200D01*
G01X4101000Y-2036600D01*
G37*
G36*
G01X5701200Y-2078200D02*
G01X5728800Y-2078200D01*
G01X5731200Y-2080600D01*
G01X5731200Y-2113544D01*
G01X5728800Y-2115944D01*
G01X5701200Y-2115944D01*
G01X5698800Y-2113544D01*
G01X5698800Y-2080600D01*
G01X5701200Y-2078200D01*
G37*
G36*
G01X5701200Y-2062000D02*
G01X5728800Y-2062000D01*
G01X5731200Y-2059600D01*
G01X5731200Y-2026656D01*
G01X5728800Y-2024256D01*
G01X5701200Y-2024256D01*
G01X5698800Y-2026656D01*
G01X5698800Y-2059600D01*
G01X5701200Y-2062000D01*
G37*
G36*
G01X6390998Y-2240504D02*
G01X6435999Y-2240504D01*
G01X6440998Y-2247501D01*
G01X6440998Y-2295502D01*
G01X6435999Y-2300503D01*
G01X6390998Y-2300503D01*
G01X6385999Y-2295502D01*
G01X6385999Y-2247501D01*
G01X6390998Y-2240504D01*
G37*
G36*
G01X6390998Y-2144502D02*
G01X6435999Y-2144502D01*
G01X6440998Y-2149503D01*
G01X6440998Y-2197501D01*
G01X6435999Y-2204502D01*
G01X6390998Y-2204502D01*
G01X6385999Y-2197501D01*
G01X6385999Y-2149503D01*
G01X6390998Y-2144502D01*
G37*
G36*
G01X6238598Y-1884904D02*
G01X6283599Y-1884904D01*
G01X6288598Y-1891901D01*
G01X6288598Y-1939902D01*
G01X6283599Y-1944903D01*
G01X6238598Y-1944903D01*
G01X6233599Y-1939902D01*
G01X6233599Y-1891901D01*
G01X6238598Y-1884904D01*
G37*
G36*
G01X6238598Y-1788902D02*
G01X6283599Y-1788902D01*
G01X6288598Y-1793903D01*
G01X6288598Y-1841901D01*
G01X6283599Y-1848902D01*
G01X6238598Y-1848902D01*
G01X6233599Y-1841901D01*
G01X6233599Y-1793903D01*
G01X6238598Y-1788902D01*
G37*
G36*
G01X5815500Y-2725900D02*
G01X5843100Y-2725900D01*
G01X5845500Y-2728300D01*
G01X5845500Y-2761244D01*
G01X5843100Y-2763644D01*
G01X5815500Y-2763644D01*
G01X5813100Y-2761244D01*
G01X5813100Y-2728300D01*
G01X5815500Y-2725900D01*
G37*
G36*
G01X5815500Y-2709700D02*
G01X5843100Y-2709700D01*
G01X5845500Y-2707300D01*
G01X5845500Y-2674356D01*
G01X5843100Y-2671956D01*
G01X5815500Y-2671956D01*
G01X5813100Y-2674356D01*
G01X5813100Y-2707300D01*
G01X5815500Y-2709700D01*
G37*
G36*
G01X5843100Y-2201700D02*
G01X5815500Y-2201700D01*
G01X5813100Y-2199300D01*
G01X5813100Y-2166356D01*
G01X5815500Y-2163956D01*
G01X5843100Y-2163956D01*
G01X5845500Y-2166356D01*
G01X5845500Y-2199300D01*
G01X5843100Y-2201700D01*
G37*
G36*
G01X5843100Y-2217900D02*
G01X5815500Y-2217900D01*
G01X5813100Y-2220300D01*
G01X5813100Y-2253244D01*
G01X5815500Y-2255644D01*
G01X5843100Y-2255644D01*
G01X5845500Y-2253244D01*
G01X5845500Y-2220300D01*
G01X5843100Y-2217900D01*
G37*
G36*
G01X5728800Y-2709700D02*
G01X5701200Y-2709700D01*
G01X5698800Y-2707300D01*
G01X5698800Y-2674356D01*
G01X5701200Y-2671956D01*
G01X5728800Y-2671956D01*
G01X5731200Y-2674356D01*
G01X5731200Y-2707300D01*
G01X5728800Y-2709700D01*
G37*
G36*
G01X5728800Y-2725900D02*
G01X5701200Y-2725900D01*
G01X5698800Y-2728300D01*
G01X5698800Y-2761244D01*
G01X5701200Y-2763644D01*
G01X5728800Y-2763644D01*
G01X5731200Y-2761244D01*
G01X5731200Y-2728300D01*
G01X5728800Y-2725900D01*
G37*
G36*
G01X5614500Y-2709700D02*
G01X5586900Y-2709700D01*
G01X5584500Y-2707300D01*
G01X5584500Y-2674356D01*
G01X5586900Y-2671956D01*
G01X5614500Y-2671956D01*
G01X5616900Y-2674356D01*
G01X5616900Y-2707300D01*
G01X5614500Y-2709700D01*
G37*
G36*
G01X5614500Y-2725900D02*
G01X5586900Y-2725900D01*
G01X5584500Y-2728300D01*
G01X5584500Y-2761244D01*
G01X5586900Y-2763644D01*
G01X5614500Y-2763644D01*
G01X5616900Y-2761244D01*
G01X5616900Y-2728300D01*
G01X5614500Y-2725900D01*
G37*
G36*
G01X5586900Y-2217900D02*
G01X5614500Y-2217900D01*
G01X5616900Y-2220300D01*
G01X5616900Y-2253244D01*
G01X5614500Y-2255644D01*
G01X5586900Y-2255644D01*
G01X5584500Y-2253244D01*
G01X5584500Y-2220300D01*
G01X5586900Y-2217900D01*
G37*
G36*
G01X5586900Y-2201700D02*
G01X5614500Y-2201700D01*
G01X5616900Y-2199300D01*
G01X5616900Y-2166356D01*
G01X5614500Y-2163956D01*
G01X5586900Y-2163956D01*
G01X5584500Y-2166356D01*
G01X5584500Y-2199300D01*
G01X5586900Y-2201700D01*
G37*
G36*
G01X5701200Y-2217900D02*
G01X5728800Y-2217900D01*
G01X5731200Y-2220300D01*
G01X5731200Y-2253244D01*
G01X5728800Y-2255644D01*
G01X5701200Y-2255644D01*
G01X5698800Y-2253244D01*
G01X5698800Y-2220300D01*
G01X5701200Y-2217900D01*
G37*
G36*
G01X5701200Y-2201700D02*
G01X5728800Y-2201700D01*
G01X5731200Y-2199300D01*
G01X5731200Y-2166356D01*
G01X5728800Y-2163956D01*
G01X5701200Y-2163956D01*
G01X5698800Y-2166356D01*
G01X5698800Y-2199300D01*
G01X5701200Y-2201700D01*
G37*
G36*
G01X5614500Y-2062000D02*
G01X5586900Y-2062000D01*
G01X5584500Y-2059600D01*
G01X5584500Y-2026656D01*
G01X5586900Y-2024256D01*
G01X5614500Y-2024256D01*
G01X5616900Y-2026656D01*
G01X5616900Y-2059600D01*
G01X5614500Y-2062000D01*
G37*
G36*
G01X5614500Y-2078200D02*
G01X5586900Y-2078200D01*
G01X5584500Y-2080600D01*
G01X5584500Y-2113544D01*
G01X5586900Y-2115944D01*
G01X5614500Y-2115944D01*
G01X5616900Y-2113544D01*
G01X5616900Y-2080600D01*
G01X5614500Y-2078200D01*
G37*
G36*
G01X7703596Y-218798D02*
G01X7703596Y-263799D01*
G01X7696599Y-268798D01*
G01X7648598Y-268798D01*
G01X7643597Y-263799D01*
G01X7643597Y-218798D01*
G01X7648598Y-213799D01*
G01X7696599Y-213799D01*
G01X7703596Y-218798D01*
G37*
G36*
G01X7799598Y-218798D02*
G01X7799598Y-263799D01*
G01X7794597Y-268798D01*
G01X7746599Y-268798D01*
G01X7739598Y-263799D01*
G01X7739598Y-218798D01*
G01X7746599Y-213799D01*
G01X7794597Y-213799D01*
G01X7799598Y-218798D01*
G37*
G36*
G01X1995498Y-1778239D02*
G01X1967847Y-1778239D01*
G01X1938472Y-1750819D01*
G01X1938472Y-1700492D01*
G01X1944873Y-1694091D01*
G01X2018472Y-1694091D01*
G01X2024873Y-1700492D01*
G01X2024873Y-1750819D01*
G01X1995498Y-1778239D01*
G37*
G36*
G01X1996623Y-1829803D02*
G01X1968972Y-1829803D01*
G01X1939597Y-1857223D01*
G01X1939597Y-1907550D01*
G01X1945998Y-1913951D01*
G01X2019597Y-1913951D01*
G01X2025998Y-1907550D01*
G01X2025998Y-1857223D01*
G01X1996623Y-1829803D01*
G37*
G36*
G01X8719099Y-767202D02*
G01X8719099Y-687202D01*
G01X8714097Y-682201D01*
G01X8691301Y-682201D01*
G01X8691301Y-719201D01*
G01X8658301Y-719201D01*
G01X8658301Y-682201D01*
G01X8634098Y-682201D01*
G01X8629099Y-687202D01*
G01X8629099Y-767202D01*
G01X8634098Y-772201D01*
G01X8714097Y-772201D01*
G01X8719099Y-767202D01*
G37*
G36*
G01X8629101Y-528198D02*
G01X8629101Y-608198D01*
G01X8634103Y-613199D01*
G01X8656899Y-613199D01*
G01X8656899Y-576199D01*
G01X8689899Y-576199D01*
G01X8689899Y-613199D01*
G01X8714102Y-613199D01*
G01X8719101Y-608198D01*
G01X8719101Y-528198D01*
G01X8714102Y-523199D01*
G01X8634103Y-523199D01*
G01X8629101Y-528198D01*
G37*
G36*
G01X8629101Y-172598D02*
G01X8629101Y-252598D01*
G01X8634103Y-257599D01*
G01X8656899Y-257599D01*
G01X8656899Y-220599D01*
G01X8689899Y-220599D01*
G01X8689899Y-257599D01*
G01X8714102Y-257599D01*
G01X8719101Y-252598D01*
G01X8719101Y-172598D01*
G01X8714102Y-167599D01*
G01X8634103Y-167599D01*
G01X8629101Y-172598D01*
G37*
G36*
G01X8719099Y-411602D02*
G01X8719099Y-331602D01*
G01X8714097Y-326601D01*
G01X8691301Y-326601D01*
G01X8691301Y-363601D01*
G01X8658301Y-363601D01*
G01X8658301Y-326601D01*
G01X8634098Y-326601D01*
G01X8629099Y-331602D01*
G01X8629099Y-411602D01*
G01X8634098Y-416601D01*
G01X8714097Y-416601D01*
G01X8719099Y-411602D01*
G37*
G36*
G01X4003398Y-678404D02*
G01X4048399Y-678404D01*
G01X4053398Y-685401D01*
G01X4053398Y-733402D01*
G01X4048399Y-738403D01*
G01X4003398Y-738403D01*
G01X3998399Y-733402D01*
G01X3998399Y-685401D01*
G01X4003398Y-678404D01*
G37*
G36*
G01X4003398Y-582402D02*
G01X4048399Y-582402D01*
G01X4053398Y-587403D01*
G01X4053398Y-635401D01*
G01X4048399Y-642402D01*
G01X4003398Y-642402D01*
G01X3998399Y-635401D01*
G01X3998399Y-587403D01*
G01X4003398Y-582402D01*
G37*
G36*
G01X5631404Y-632102D02*
G01X5631404Y-587101D01*
G01X5638401Y-582102D01*
G01X5686402Y-582102D01*
G01X5691403Y-587101D01*
G01X5691403Y-632102D01*
G01X5686402Y-637101D01*
G01X5638401Y-637101D01*
G01X5631404Y-632102D01*
G37*
G36*
G01X5535402Y-632102D02*
G01X5535402Y-587101D01*
G01X5540403Y-582102D01*
G01X5588401Y-582102D01*
G01X5595402Y-587101D01*
G01X5595402Y-632102D01*
G01X5588401Y-637101D01*
G01X5540403Y-637101D01*
G01X5535402Y-632102D01*
G37*
G36*
G01X6693101Y-1527899D02*
G01X6656075Y-1527899D01*
G01X6646075Y-1517899D01*
G01X6646075Y-1487409D01*
G01X6636075Y-1477409D01*
G01X6597325Y-1477409D01*
G01X6587325Y-1487409D01*
G01X6587325Y-1517899D01*
G01X6577325Y-1527899D01*
G01X6540299Y-1527899D01*
G01X6530299Y-1517899D01*
G01X6530299Y-1389400D01*
G01X6540299Y-1379400D01*
G01X6693101Y-1379400D01*
G01X6703101Y-1389400D01*
G01X6703101Y-1517899D01*
G01X6693101Y-1527899D01*
G37*
G36*
G01X6693101Y-1697901D02*
G01X6656075Y-1697901D01*
G01X6646075Y-1707901D01*
G01X6646075Y-1738391D01*
G01X6636075Y-1748391D01*
G01X6597325Y-1748391D01*
G01X6587325Y-1738391D01*
G01X6587325Y-1707901D01*
G01X6577325Y-1697901D01*
G01X6540299Y-1697901D01*
G01X6530299Y-1707901D01*
G01X6530299Y-1836400D01*
G01X6540299Y-1846400D01*
G01X6693101Y-1846400D01*
G01X6703101Y-1836400D01*
G01X6703101Y-1707901D01*
G01X6693101Y-1697901D01*
G37*
G36*
G01X9101775Y-320624D02*
G01X9064749Y-320624D01*
G01X9054749Y-310624D01*
G01X9054749Y-280134D01*
G01X9044750Y-270134D01*
G01X9005999Y-270134D01*
G01X8995999Y-280134D01*
G01X8995999Y-310624D01*
G01X8985999Y-320624D01*
G01X8948974Y-320624D01*
G01X8938974Y-310624D01*
G01X8938974Y-182126D01*
G01X8948974Y-172126D01*
G01X9101775Y-172126D01*
G01X9111775Y-182126D01*
G01X9111775Y-310624D01*
G01X9101775Y-320624D01*
G37*
G36*
G01X9101775Y-490626D02*
G01X9064749Y-490626D01*
G01X9054749Y-500626D01*
G01X9054749Y-531117D01*
G01X9044750Y-541117D01*
G01X9005999Y-541117D01*
G01X8995999Y-531117D01*
G01X8995999Y-500626D01*
G01X8985999Y-490626D01*
G01X8948974Y-490626D01*
G01X8938974Y-500626D01*
G01X8938974Y-629125D01*
G01X8948974Y-639125D01*
G01X9101775Y-639125D01*
G01X9111775Y-629125D01*
G01X9111775Y-500626D01*
G01X9101775Y-490626D01*
G37*

G04 Pad Start*
G54D10*
G01X1815490Y-2368804D03*
G01X1815490Y-2463800D03*
G01X1815490Y-2558796D03*
G01X2045310Y-2558796D03*
G01X2045310Y-2463800D03*
G01X2045310Y-2368804D03*
G01X8076590Y-2368804D03*
G01X8076590Y-2463800D03*
G01X8076590Y-2558796D03*
G01X8306410Y-2558796D03*
G01X8306410Y-2463800D03*
G01X8306410Y-2368804D03*
G54D11*
G01X5394914Y-2886319D03*
G01X5394914Y-2821320D03*
G01X5394914Y-2756322D03*
G01X5394914Y-2691323D03*
G01X5394914Y-2626324D03*
G01X5394914Y-2561326D03*
G01X5394914Y-2496327D03*
G01X5394914Y-2431329D03*
G01X5394914Y-2366305D03*
G01X5394914Y-2301306D03*
G01X5394914Y-2236307D03*
G01X5394914Y-2171309D03*
G01X5394914Y-2106310D03*
G01X5394914Y-2041312D03*
G01X4434896Y-2886319D03*
G01X4434896Y-2821320D03*
G01X4434896Y-2756322D03*
G01X4434896Y-2691323D03*
G01X4434896Y-2626324D03*
G01X4434896Y-2561326D03*
G01X4434896Y-2496327D03*
G01X4434896Y-2431329D03*
G01X4434896Y-2366305D03*
G01X4434896Y-2301306D03*
G01X4434896Y-2236307D03*
G01X4434896Y-2171309D03*
G01X4434896Y-2106310D03*
G01X4434896Y-2041312D03*
G54D12*
G01X8166100Y-538218D03*
G01X7658100Y-538218D03*
G54D13*
G01X7912100Y-1595366D03*
G54D14*
G01X9161399Y-1164412D03*
G01X9161399Y-2569388D03*
G54D15*
G01X8796401Y-1516888D03*
G01X8796401Y-1766900D03*
G01X8796401Y-1966900D03*
G01X8796401Y-2216912D03*
G54D16*
G01X1752600Y-2024101D03*
G01X1752600Y-1735099D03*
G54D17*
G01X6104407Y-1816100D03*
G01X6104407Y-1721104D03*
G01X6104407Y-1911096D03*
G01X5884393Y-1721104D03*
G01X5884393Y-1911096D03*
G54D19*
G01X4000500Y-1667993D03*
G01X3905504Y-1667993D03*
G01X4095496Y-1667993D03*
G01X3905504Y-1888007D03*
G01X4095496Y-1888007D03*
G01X3556000Y-1947393D03*
G01X3461004Y-1947393D03*
G01X3650996Y-1947393D03*
G01X3461004Y-2167407D03*
G01X3650996Y-2167407D03*
G54D17*
G01X6244107Y-2184400D03*
G01X6244107Y-2089404D03*
G01X6244107Y-2279396D03*
G01X6024093Y-2089404D03*
G01X6024093Y-2279396D03*
G54D20*
G01X1349705Y-2054403D03*
G01X1349705Y-1804416D03*
G01X1349705Y-1679397D03*
G01X1349705Y-1929409D03*
G54D21*
G01X707695Y-1186891D03*
G01X707695Y-2546909D03*
G04 Pad End*

M02*

