G04 Layer: TopLayer*
G04 EasyEDA Pro v2.2.36.7, 2025-03-08 17:24:09*
G04 Gerber Generator version 0.3*
G04 Scale: 100 percent, Rotated: No, Reflected: No*
G04 Dimensions in millimeters*
G04 Leading zeros omitted, absolute positions, 4 integers and 5 decimals*
%FSLAX45Y45*%
%MOMM*%
%ADD10C,0.2032*%
%ADD11C,0.16708*%
%ADD12C,0.18929*%
%ADD13C,0.27508*%
%ADD14C,0.40013*%
%ADD15C,0.76708*%
%ADD16C,0.80508*%
%ADD17C,0.5191*%
%ADD18C,0.50508*%
%ADD19C,0.30508*%
%ADD20C,0.18708*%
%ADD21C,1.01282*%
%ADD22C,0.43708*%
%ADD23C,0.40508*%
%ADD24C,0.57208*%
%ADD25C,1.68435*%
%ADD26C,0.86907*%
%ADD27C,0.74759*%
%ADD28C,3.59534*%
%ADD29R,1.07201X0.532*%
%ADD30O,2.01549X0.36401*%
%ADD31R,1.13401X3.35854*%
%ADD32R,10.5664X7.18053*%
%ADD33R,1.6X1.6*%
%ADD34C,1.6*%
%ADD35R,5.49999X2.05001*%
%ADD36R,2.99999X0.9*%
%ADD37R,0.324X0.36843*%
%ADD38R,0.324X0.36843*%
%ADD39R,0.79009X0.54*%
%ADD40R,0.54X0.79009*%
%ADD41R,0.79009X0.54*%
%ADD42R,1.72799X1.19009*%
%ADD43R,0.86401X0.8*%
%ADD44R,0.86401X0.80648*%
%ADD45R,0.86401X0.80648*%
%ADD46R,1.0X0.6*%
%ADD47R,0.6X1.0*%
%ADD48C,1.524*%
%ADD49R,2.99999X0.7*%
%ADD50R,6.05X3.39999*%
%ADD51R,1.72799X1.48501*%
%ADD52C,0.6096*%
%ADD53C,0.15748*%
%ADD54C,0.381*%
%ADD55C,0.16002*%
%ADD56C,0.762*%
%ADD57C,0.635*%
%ADD58C,0.254*%
G75*


G04 Copper Start*
G36*
G01X3578860Y-2683908D02*
G01X3598308Y-2664460D01*
G01X3894692Y-2664460D01*
G01X3914140Y-2683908D01*
G01X3914140Y-2842892D01*
G01X3896992Y-2860040D01*
G01X3597348Y-2860040D01*
G01X3578860Y-2841552D01*
G01X3578860Y-2683908D01*
G37*
G36*
G01X3947160Y-2894365D02*
G01X3947160Y-2858742D01*
G01X3949246Y-2853087D01*
G01X3949954Y-2847100D01*
G01X3949954Y-2773802D01*
G01X3954908Y-2784117D01*
G01X3962862Y-2792342D01*
G01X3973004Y-2797639D01*
G01X3984300Y-2799467D01*
G01X4016700Y-2799467D01*
G01X4027767Y-2797714D01*
G01X4037751Y-2792627D01*
G01X4045674Y-2784704D01*
G01X4050761Y-2774720D01*
G01X4052514Y-2763653D01*
G01X4052514Y-2735072D01*
G01X4062786Y-2735072D01*
G01X4062786Y-2763653D01*
G01X4064539Y-2774720D01*
G01X4069626Y-2784704D01*
G01X4077549Y-2792627D01*
G01X4087533Y-2797714D01*
G01X4098600Y-2799467D01*
G01X4131000Y-2799467D01*
G01X4142067Y-2797714D01*
G01X4152051Y-2792627D01*
G01X4159974Y-2784704D01*
G01X4165061Y-2774720D01*
G01X4166814Y-2763653D01*
G01X4166814Y-2735072D01*
G01X4177086Y-2735072D01*
G01X4177086Y-2763653D01*
G01X4178839Y-2774720D01*
G01X4183926Y-2784704D01*
G01X4191849Y-2792627D01*
G01X4201833Y-2797714D01*
G01X4212900Y-2799467D01*
G01X4245300Y-2799467D01*
G01X4256367Y-2797714D01*
G01X4266351Y-2792627D01*
G01X4274274Y-2784704D01*
G01X4279361Y-2774720D01*
G01X4281114Y-2763653D01*
G01X4281114Y-2748096D01*
G01X4282440Y-2749422D01*
G01X4282440Y-2895705D01*
G01X4252592Y-2925553D01*
G01X3978348Y-2925553D01*
G01X3947160Y-2894365D01*
G37*
G36*
G01X2937852Y-683260D02*
G01X3963086Y-683260D01*
G01X3963086Y-754413D01*
G01X3964839Y-765480D01*
G01X3969926Y-775464D01*
G01X3977849Y-783387D01*
G01X3987833Y-788474D01*
G01X3998900Y-790227D01*
G01X4052900Y-790227D01*
G01X4063967Y-788474D01*
G01X4073951Y-783387D01*
G01X4081874Y-775464D01*
G01X4086961Y-765480D01*
G01X4088714Y-754413D01*
G01X4088714Y-683260D01*
G01X4460240Y-683260D01*
G01X4460240Y-709686D01*
G01X4326895Y-709686D01*
G01X4315828Y-711439D01*
G01X4305844Y-716526D01*
G01X4297921Y-724449D01*
G01X4292834Y-734433D01*
G01X4291081Y-745500D01*
G01X4291081Y-905500D01*
G01X4292834Y-916567D01*
G01X4297921Y-926551D01*
G01X4305844Y-934474D01*
G01X4315828Y-939561D01*
G01X4326895Y-941314D01*
G01X4460240Y-941314D01*
G01X4460240Y-955314D01*
G01X4282714Y-1132840D01*
G01X2997200Y-1132840D01*
G01X2993312Y-1133613D01*
G01X2990016Y-1135816D01*
G01X2736016Y-1389816D01*
G01X2733813Y-1393112D01*
G01X2733040Y-1397000D01*
G01X2733040Y-1399540D01*
G01X2207860Y-1399540D01*
G01X2665125Y-950864D01*
G01X3279364Y-950864D01*
G01X3279364Y-971535D01*
G01X3283162Y-991854D01*
G01X3290629Y-1011128D01*
G01X3301511Y-1028703D01*
G01X3315437Y-1043979D01*
G01X3331932Y-1056436D01*
G01X3350436Y-1065649D01*
G01X3370317Y-1071306D01*
G01X3390900Y-1073213D01*
G01X3390900Y-1073213D01*
G01X3411483Y-1071306D01*
G01X3431364Y-1065649D01*
G01X3449868Y-1056436D01*
G01X3466363Y-1043979D01*
G01X3480289Y-1028703D01*
G01X3491171Y-1011128D01*
G01X3498638Y-991854D01*
G01X3502436Y-971535D01*
G01X3502436Y-950864D01*
G01X3498638Y-930545D01*
G01X3491171Y-911271D01*
G01X3480289Y-893696D01*
G01X3466363Y-878420D01*
G01X3449868Y-865963D01*
G01X3431364Y-856750D01*
G01X3411483Y-851093D01*
G01X3390900Y-849185D01*
G01X3370317Y-851093D01*
G01X3350436Y-856750D01*
G01X3331932Y-865963D01*
G01X3315437Y-878420D01*
G01X3301511Y-893696D01*
G01X3290629Y-911271D01*
G01X3283162Y-930545D01*
G01X3279364Y-950864D01*
G01X2665125Y-950864D01*
G01X2937852Y-683260D01*
G37*
G36*
G01X3578860Y-2150508D02*
G01X3585182Y-2144186D01*
G01X3585182Y-2217407D01*
G01X3586935Y-2228474D01*
G01X3592022Y-2238458D01*
G01X3599945Y-2246381D01*
G01X3609929Y-2251468D01*
G01X3620996Y-2253221D01*
G01X3680996Y-2253221D01*
G01X3692063Y-2251468D01*
G01X3702047Y-2246381D01*
G01X3709970Y-2238458D01*
G01X3715057Y-2228474D01*
G01X3716810Y-2217407D01*
G01X3716810Y-2118360D01*
G01X3856592Y-2118360D01*
G01X3885946Y-2147714D01*
G01X3885946Y-2159000D01*
G01X3887899Y-2168817D01*
G01X3893460Y-2177140D01*
G01X3918860Y-2202540D01*
G01X3927183Y-2208101D01*
G01X3937000Y-2210054D01*
G01X3948486Y-2210054D01*
G01X3948486Y-2230253D01*
G01X3950239Y-2241320D01*
G01X3955326Y-2251304D01*
G01X3963249Y-2259227D01*
G01X3973233Y-2264314D01*
G01X3984300Y-2266067D01*
G01X4016700Y-2266067D01*
G01X4027767Y-2264314D01*
G01X4037751Y-2259227D01*
G01X4045674Y-2251304D01*
G01X4050761Y-2241320D01*
G01X4052514Y-2230253D01*
G01X4052514Y-2210054D01*
G01X4062786Y-2210054D01*
G01X4062786Y-2230253D01*
G01X4064539Y-2241320D01*
G01X4069626Y-2251304D01*
G01X4077549Y-2259227D01*
G01X4087533Y-2264314D01*
G01X4098600Y-2266067D01*
G01X4131000Y-2266067D01*
G01X4142067Y-2264314D01*
G01X4152051Y-2259227D01*
G01X4159974Y-2251304D01*
G01X4165061Y-2241320D01*
G01X4166814Y-2230253D01*
G01X4166814Y-2210054D01*
G01X4177086Y-2210054D01*
G01X4177086Y-2230253D01*
G01X4178839Y-2241320D01*
G01X4183926Y-2251304D01*
G01X4191849Y-2259227D01*
G01X4201833Y-2264314D01*
G01X4212900Y-2266067D01*
G01X4245300Y-2266067D01*
G01X4256367Y-2264314D01*
G01X4266351Y-2259227D01*
G01X4274274Y-2251304D01*
G01X4279361Y-2241320D01*
G01X4281114Y-2230253D01*
G01X4281114Y-2210025D01*
G01X4282573Y-2209914D01*
G01X4282573Y-2307059D01*
G01X4275692Y-2313940D01*
G01X3611008Y-2313940D01*
G01X3578860Y-2281792D01*
G01X3578860Y-2150508D01*
G37*
G36*
G01X5543198Y-2742979D02*
G01X5548686Y-2737491D01*
G01X5548686Y-2763653D01*
G01X5550439Y-2774720D01*
G01X5555526Y-2784704D01*
G01X5563449Y-2792627D01*
G01X5573433Y-2797714D01*
G01X5584500Y-2799467D01*
G01X5616900Y-2799467D01*
G01X5627967Y-2797714D01*
G01X5637951Y-2792627D01*
G01X5645874Y-2784704D01*
G01X5650961Y-2774720D01*
G01X5652714Y-2763653D01*
G01X5652714Y-2726811D01*
G01X5652564Y-2723530D01*
G01X5663136Y-2723530D01*
G01X5662986Y-2726811D01*
G01X5662986Y-2763653D01*
G01X5664739Y-2774720D01*
G01X5669826Y-2784704D01*
G01X5677749Y-2792627D01*
G01X5687733Y-2797714D01*
G01X5698800Y-2799467D01*
G01X5731200Y-2799467D01*
G01X5742267Y-2797714D01*
G01X5752251Y-2792627D01*
G01X5760174Y-2784704D01*
G01X5765261Y-2774720D01*
G01X5767014Y-2763653D01*
G01X5767014Y-2726811D01*
G01X5766864Y-2723530D01*
G01X5777436Y-2723530D01*
G01X5777286Y-2726811D01*
G01X5777286Y-2763653D01*
G01X5779039Y-2774720D01*
G01X5784126Y-2784704D01*
G01X5792049Y-2792627D01*
G01X5802033Y-2797714D01*
G01X5813100Y-2799467D01*
G01X5845500Y-2799467D01*
G01X5855828Y-2797946D01*
G01X5865279Y-2793510D01*
G01X5873049Y-2786538D01*
G01X5878478Y-2777621D01*
G01X5878478Y-2889262D01*
G01X5848630Y-2919110D01*
G01X5574386Y-2919110D01*
G01X5543198Y-2887922D01*
G01X5543198Y-2742979D01*
G37*
G36*
G01X5915660Y-2702958D02*
G01X5935108Y-2683510D01*
G01X6231492Y-2683510D01*
G01X6250940Y-2702958D01*
G01X6250940Y-2861942D01*
G01X6233792Y-2879090D01*
G01X5934148Y-2879090D01*
G01X5915660Y-2860602D01*
G01X5915660Y-2702958D01*
G37*
G36*
G01X5881314Y-2232660D02*
G01X5942430Y-2232660D01*
G01X5939332Y-2240774D01*
G01X5938279Y-2249396D01*
G01X5938279Y-2309396D01*
G01X5938568Y-2313940D01*
G01X5530004Y-2313940D01*
G01X5531496Y-2302152D01*
G01X5530374Y-2290323D01*
G01X5526694Y-2279026D01*
G01X5520632Y-2268807D01*
G01X5527072Y-2257733D01*
G01X5530723Y-2245454D01*
G01X5531379Y-2232660D01*
G01X5548686Y-2232660D01*
G01X5548686Y-2255653D01*
G01X5550439Y-2266720D01*
G01X5555526Y-2276704D01*
G01X5563449Y-2284627D01*
G01X5573433Y-2289714D01*
G01X5584500Y-2291467D01*
G01X5616900Y-2291467D01*
G01X5627967Y-2289714D01*
G01X5637951Y-2284627D01*
G01X5645874Y-2276704D01*
G01X5650961Y-2266720D01*
G01X5652714Y-2255653D01*
G01X5652714Y-2232660D01*
G01X5662986Y-2232660D01*
G01X5662986Y-2255653D01*
G01X5664739Y-2266720D01*
G01X5669826Y-2276704D01*
G01X5677749Y-2284627D01*
G01X5687733Y-2289714D01*
G01X5698800Y-2291467D01*
G01X5731200Y-2291467D01*
G01X5742267Y-2289714D01*
G01X5752251Y-2284627D01*
G01X5760174Y-2276704D01*
G01X5765261Y-2266720D01*
G01X5767014Y-2255653D01*
G01X5767014Y-2232660D01*
G01X5777286Y-2232660D01*
G01X5777286Y-2255653D01*
G01X5779039Y-2266720D01*
G01X5784126Y-2276704D01*
G01X5792049Y-2284627D01*
G01X5802033Y-2289714D01*
G01X5813100Y-2291467D01*
G01X5845500Y-2291467D01*
G01X5856567Y-2289714D01*
G01X5866551Y-2284627D01*
G01X5874474Y-2276704D01*
G01X5879561Y-2266720D01*
G01X5881314Y-2255653D01*
G01X5881314Y-2232660D01*
G37*
G36*
G01X5312340Y-1987297D02*
G01X5306060Y-1987664D01*
G01X5306060Y-1985408D01*
G01X5477908Y-1813560D01*
G01X5903010Y-1813560D01*
G01X5920740Y-1831290D01*
G01X5920740Y-1845282D01*
G01X5834393Y-1845282D01*
G01X5823326Y-1847035D01*
G01X5813342Y-1852122D01*
G01X5805419Y-1860045D01*
G01X5800332Y-1870029D01*
G01X5798579Y-1881096D01*
G01X5798579Y-1941096D01*
G01X5800332Y-1952163D01*
G01X5805419Y-1962147D01*
G01X5813342Y-1970070D01*
G01X5823326Y-1975157D01*
G01X5834393Y-1976910D01*
G01X5920740Y-1976885D01*
G01X5920740Y-1976992D01*
G01X5837792Y-2059940D01*
G01X5767014Y-2059940D01*
G01X5767014Y-2024247D01*
G01X5765261Y-2013180D01*
G01X5760174Y-2003196D01*
G01X5752251Y-1995273D01*
G01X5742267Y-1990186D01*
G01X5731200Y-1988433D01*
G01X5698800Y-1988433D01*
G01X5687733Y-1990186D01*
G01X5677749Y-1995273D01*
G01X5669826Y-2003196D01*
G01X5664739Y-2013180D01*
G01X5662986Y-2024247D01*
G01X5662986Y-2059940D01*
G01X5652714Y-2059940D01*
G01X5652714Y-2024247D01*
G01X5650961Y-2013180D01*
G01X5645874Y-2003196D01*
G01X5637951Y-1995273D01*
G01X5627967Y-1990186D01*
G01X5616900Y-1988433D01*
G01X5584500Y-1988433D01*
G01X5573433Y-1990186D01*
G01X5563449Y-1995273D01*
G01X5555526Y-2003196D01*
G01X5550439Y-2013180D01*
G01X5548686Y-2024247D01*
G01X5548686Y-2061089D01*
G01X5549740Y-2069713D01*
G01X5552838Y-2077828D01*
G01X5557800Y-2084959D01*
G01X5557429Y-2086302D01*
G01X5533353Y-2110378D01*
G01X5531349Y-2110378D01*
G01X5530770Y-2097441D01*
G01X5527127Y-2085014D01*
G01X5520632Y-2073811D01*
G01X5527253Y-2062313D01*
G01X5530871Y-2049547D01*
G01X5531268Y-2036285D01*
G01X5528420Y-2023326D01*
G01X5522499Y-2011452D01*
G01X5513862Y-2001380D01*
G01X5503030Y-1993718D01*
G01X5490656Y-1988927D01*
G01X5477488Y-1987297D01*
G01X5312340Y-1987297D01*
G37*
G36*
G01X3941208Y-2054860D02*
G01X4062786Y-2054860D01*
G01X4062786Y-2090553D01*
G01X4063853Y-2099232D01*
G01X4066992Y-2107393D01*
G01X4072014Y-2114550D01*
G01X4066992Y-2121707D01*
G01X4063853Y-2129868D01*
G01X4062786Y-2138547D01*
G01X4062786Y-2174240D01*
G01X4052514Y-2174240D01*
G01X4052514Y-2138547D01*
G01X4050761Y-2127480D01*
G01X4045674Y-2117496D01*
G01X4037751Y-2109573D01*
G01X4027767Y-2104486D01*
G01X4016700Y-2102733D01*
G01X3984300Y-2102733D01*
G01X3973233Y-2104486D01*
G01X3963249Y-2109573D01*
G01X3955326Y-2117496D01*
G01X3950239Y-2127480D01*
G01X3948486Y-2138547D01*
G01X3948486Y-2174240D01*
G01X3941208Y-2174240D01*
G01X3921760Y-2154792D01*
G01X3921760Y-2074308D01*
G01X3941208Y-2054860D01*
G37*
G36*
G01X4166814Y-2090553D02*
G01X4166814Y-2054860D01*
G01X4177086Y-2054860D01*
G01X4177086Y-2090553D01*
G01X4178153Y-2099232D01*
G01X4181292Y-2107393D01*
G01X4186314Y-2114550D01*
G01X4181292Y-2121707D01*
G01X4178153Y-2129868D01*
G01X4177086Y-2138547D01*
G01X4177086Y-2174240D01*
G01X4166814Y-2174240D01*
G01X4166814Y-2138547D01*
G01X4165747Y-2129868D01*
G01X4162608Y-2121707D01*
G01X4157586Y-2114550D01*
G01X4162608Y-2107393D01*
G01X4165747Y-2099232D01*
G01X4166814Y-2090553D01*
G37*
G36*
G01X4281114Y-2090553D02*
G01X4281114Y-2063242D01*
G01X4283400Y-2065528D01*
G01X4283400Y-2166531D01*
G01X4281114Y-2168817D01*
G01X4281114Y-2138547D01*
G01X4280047Y-2129868D01*
G01X4276908Y-2121707D01*
G01X4271886Y-2114550D01*
G01X4276908Y-2107393D01*
G01X4280047Y-2099232D01*
G01X4281114Y-2090553D01*
G37*
G36*
G01X4161310Y-1838007D02*
G01X4160193Y-1829131D01*
G01X4156910Y-1820809D01*
G01X4151668Y-1813560D01*
G01X4389992Y-1813560D01*
G01X4536440Y-1960008D01*
G01X4536440Y-1990738D01*
G01X4527110Y-1988164D01*
G01X4517470Y-1987297D01*
G01X4352322Y-1987297D01*
G01X4340049Y-1988710D01*
G01X4328419Y-1992874D01*
G01X4318039Y-1999572D01*
G01X4309452Y-2008452D01*
G01X4303107Y-2019052D01*
G01X4299337Y-2030816D01*
G01X4295081Y-2026560D01*
G01X4288660Y-2021879D01*
G01X4281114Y-2019388D01*
G01X4281114Y-1998847D01*
G01X4279361Y-1987780D01*
G01X4274274Y-1977796D01*
G01X4266351Y-1969873D01*
G01X4256367Y-1964786D01*
G01X4245300Y-1963033D01*
G01X4212900Y-1963033D01*
G01X4201833Y-1964786D01*
G01X4191849Y-1969873D01*
G01X4183926Y-1977796D01*
G01X4178839Y-1987780D01*
G01X4177086Y-1998847D01*
G01X4177086Y-2019046D01*
G01X4166814Y-2019046D01*
G01X4166814Y-1998847D01*
G01X4165440Y-1989021D01*
G01X4161423Y-1979950D01*
G01X4155071Y-1972328D01*
G01X4146873Y-1966742D01*
G01X4154628Y-1958840D01*
G01X4159598Y-1948946D01*
G01X4161310Y-1938007D01*
G01X4161310Y-1838007D01*
G37*
G36*
G01X1915160Y-2002392D02*
G01X1915160Y-1940988D01*
G01X1922067Y-1945477D01*
G01X1929817Y-1948269D01*
G01X1938000Y-1949216D01*
G01X2024400Y-1949216D01*
G01X2035467Y-1947463D01*
G01X2045451Y-1942376D01*
G01X2053374Y-1934453D01*
G01X2058461Y-1924469D01*
G01X2060214Y-1913402D01*
G01X2060214Y-1833402D01*
G01X2058549Y-1822646D01*
G01X2053731Y-1812887D01*
G01X2053763Y-1812887D01*
G01X2057400Y-1813560D01*
G01X2070100Y-1813560D01*
G01X2073988Y-1812787D01*
G01X2077284Y-1810584D01*
G01X2128084Y-1759784D01*
G01X2130287Y-1756488D01*
G01X2131060Y-1752600D01*
G01X2131060Y-1517665D01*
G01X2644364Y-1517665D01*
G01X2644364Y-1538336D01*
G01X2648162Y-1558655D01*
G01X2655629Y-1577929D01*
G01X2666511Y-1595504D01*
G01X2680437Y-1610780D01*
G01X2696932Y-1623237D01*
G01X2715436Y-1632450D01*
G01X2735317Y-1638107D01*
G01X2755900Y-1640014D01*
G01X2776483Y-1638107D01*
G01X2796364Y-1632450D01*
G01X2814868Y-1623237D01*
G01X2831363Y-1610780D01*
G01X2845289Y-1595504D01*
G01X2856171Y-1577929D01*
G01X2863638Y-1558655D01*
G01X2867436Y-1538336D01*
G01X2867436Y-1517665D01*
G01X2863638Y-1497346D01*
G01X2856171Y-1478072D01*
G01X2845289Y-1460497D01*
G01X2831363Y-1445221D01*
G01X2814868Y-1432764D01*
G01X2796364Y-1423551D01*
G01X2776483Y-1417894D01*
G01X2755900Y-1415986D01*
G01X2755900Y-1415986D01*
G01X2735317Y-1417894D01*
G01X2715436Y-1423551D01*
G01X2696932Y-1432764D01*
G01X2680437Y-1445221D01*
G01X2666511Y-1460497D01*
G01X2655629Y-1478072D01*
G01X2648162Y-1497346D01*
G01X2644364Y-1517665D01*
G01X2131060Y-1517665D01*
G01X2131060Y-1464708D01*
G01X2197100Y-1398668D01*
G01X2204986Y-1406554D01*
G01X2208282Y-1408757D01*
G01X2212170Y-1409530D01*
G01X3009900Y-1409530D01*
G01X3013788Y-1408757D01*
G01X3017084Y-1406554D01*
G01X3118079Y-1305560D01*
G01X4085192Y-1305560D01*
G01X4117340Y-1337708D01*
G01X4117340Y-1430892D01*
G01X4085192Y-1463040D01*
G01X3875917Y-1463040D01*
G01X3872066Y-1463798D01*
G01X3868789Y-1465960D01*
G01X3739373Y-1593356D01*
G01X3737129Y-1596672D01*
G01X3736340Y-1600597D01*
G01X3736340Y-1681711D01*
G01X3710884Y-1704340D01*
G01X3302000Y-1704340D01*
G01X3298112Y-1705113D01*
G01X3294816Y-1707316D01*
G01X3234292Y-1767840D01*
G01X2491449Y-1767840D01*
G01X2487561Y-1768613D01*
G01X2484265Y-1770816D01*
G01X2220541Y-2034540D01*
G01X1947308Y-2034540D01*
G01X1915160Y-2002392D01*
G37*
G36*
G01X5607182Y-719087D02*
G01X5631189Y-719087D01*
G01X5612645Y-729142D01*
G01X5596233Y-742394D01*
G01X5582497Y-758404D01*
G01X5571893Y-776639D01*
G01X5564772Y-796495D01*
G01X5561371Y-817314D01*
G01X5561802Y-838404D01*
G01X5566052Y-859065D01*
G01X5573979Y-878614D01*
G01X5585320Y-896400D01*
G01X5599699Y-911834D01*
G01X5616639Y-924404D01*
G01X5635578Y-933693D01*
G01X5655888Y-939393D01*
G01X5676895Y-941314D01*
G01X5697902Y-939393D01*
G01X5718212Y-933693D01*
G01X5737151Y-924404D01*
G01X5754091Y-911834D01*
G01X5768470Y-896400D01*
G01X5779811Y-878614D01*
G01X5787738Y-859065D01*
G01X5791988Y-838404D01*
G01X5792419Y-817314D01*
G01X5789018Y-796495D01*
G01X5781897Y-776639D01*
G01X5771293Y-758404D01*
G01X5757557Y-742394D01*
G01X5741145Y-729142D01*
G01X5722601Y-719087D01*
G01X7151767Y-719087D01*
G01X7155655Y-718313D01*
G01X7158951Y-716111D01*
G01X7534487Y-340575D01*
G01X7581410Y-340575D01*
G01X7572941Y-348548D01*
G01X7567474Y-358814D01*
G01X7565586Y-370291D01*
G01X7565586Y-706145D01*
G01X7567338Y-717213D01*
G01X7572425Y-727196D01*
G01X7580349Y-735120D01*
G01X7590332Y-740207D01*
G01X7601400Y-741959D01*
G01X7714800Y-741959D01*
G01X7726450Y-740012D01*
G01X7736833Y-734381D01*
G01X7744819Y-725679D01*
G01X7749540Y-714852D01*
G01X7749540Y-732392D01*
G01X7361792Y-1120140D01*
G01X5757308Y-1120140D01*
G01X5588033Y-950864D01*
G01X6759164Y-950864D01*
G01X6759164Y-971535D01*
G01X6762962Y-991854D01*
G01X6770429Y-1011128D01*
G01X6781311Y-1028703D01*
G01X6795237Y-1043979D01*
G01X6811732Y-1056436D01*
G01X6830236Y-1065649D01*
G01X6850117Y-1071306D01*
G01X6870700Y-1073213D01*
G01X6870700Y-1073213D01*
G01X6891283Y-1071306D01*
G01X6911164Y-1065649D01*
G01X6929668Y-1056436D01*
G01X6946163Y-1043979D01*
G01X6960089Y-1028703D01*
G01X6970971Y-1011128D01*
G01X6978438Y-991854D01*
G01X6982236Y-971535D01*
G01X6982236Y-950864D01*
G01X6978438Y-930545D01*
G01X6970971Y-911271D01*
G01X6960089Y-893696D01*
G01X6946163Y-878420D01*
G01X6929668Y-865963D01*
G01X6911164Y-856750D01*
G01X6891283Y-851093D01*
G01X6870700Y-849185D01*
G01X6850117Y-851093D01*
G01X6830236Y-856750D01*
G01X6811732Y-865963D01*
G01X6795237Y-878420D01*
G01X6781311Y-893696D01*
G01X6770429Y-911271D01*
G01X6762962Y-930545D01*
G01X6759164Y-950864D01*
G01X5588033Y-950864D01*
G01X5560060Y-922892D01*
G01X5560060Y-766208D01*
G01X5607182Y-719087D01*
G37*
G36*
G01X6429355Y-1699260D02*
G01X6494487Y-1699260D01*
G01X6494487Y-1846409D01*
G01X6496239Y-1857476D01*
G01X6501326Y-1867459D01*
G01X6509250Y-1875383D01*
G01X6519233Y-1880470D01*
G01X6530301Y-1882223D01*
G01X6703099Y-1882223D01*
G01X6714167Y-1880470D01*
G01X6724150Y-1875383D01*
G01X6732074Y-1867459D01*
G01X6737161Y-1857476D01*
G01X6738913Y-1846409D01*
G01X6738913Y-1697907D01*
G01X6738841Y-1695628D01*
G01X7174625Y-1259844D01*
G01X7347966Y-1259844D01*
G01X7347966Y-1954393D01*
G01X7349719Y-1965460D01*
G01X7354806Y-1975444D01*
G01X7362729Y-1983367D01*
G01X7372713Y-1988454D01*
G01X7383780Y-1990207D01*
G01X8422125Y-1990207D01*
G01X8365092Y-2047240D01*
G01X7404100Y-2047240D01*
G01X7400212Y-2048013D01*
G01X7396916Y-2050216D01*
G01X7120492Y-2326640D01*
G01X6532008Y-2326640D01*
G01X6499860Y-2294492D01*
G01X6499860Y-2135478D01*
G01X6499151Y-2131748D01*
G01X6497122Y-2128539D01*
G01X6347460Y-1968463D01*
G01X6347460Y-1765183D01*
G01X6429355Y-1699260D01*
G37*
G54D10*
G01X3578860Y-2683908D02*
G01X3598308Y-2664460D01*
G01X3894692Y-2664460D01*
G01X3914140Y-2683908D01*
G01X3914140Y-2842892D01*
G01X3896992Y-2860040D01*
G01X3597348Y-2860040D01*
G01X3578860Y-2841552D01*
G01X3578860Y-2683908D01*
G01X3947160Y-2894365D02*
G01X3947160Y-2858742D01*
G03X3949954Y-2847100I-22860J11643D01*
G01X3949954Y-2773802D01*
G03X3984300Y-2799467I34346J10149D01*
G01X4016700Y-2799467D01*
G03X4052514Y-2763653I0J35814D01*
G01X4052514Y-2735072D01*
G01X4062786Y-2735072D01*
G01X4062786Y-2763653D01*
G03X4098600Y-2799467I35814J0D01*
G01X4131000Y-2799467D01*
G03X4166814Y-2763653I0J35814D01*
G01X4166814Y-2735072D01*
G01X4177086Y-2735072D01*
G01X4177086Y-2763653D01*
G03X4212900Y-2799467I35814J0D01*
G01X4245300Y-2799467D01*
G03X4281114Y-2763653I0J35814D01*
G01X4281114Y-2748096D01*
G01X4282440Y-2749422D01*
G01X4282440Y-2895705D01*
G01X4252592Y-2925553D01*
G01X3978348Y-2925553D01*
G01X3947160Y-2894365D01*
G01X2937852Y-683260D02*
G01X3963086Y-683260D01*
G01X3963086Y-754413D01*
G03X3998900Y-790227I35814J0D01*
G01X4052900Y-790227D01*
G03X4088714Y-754413I0J35814D01*
G01X4088714Y-683260D01*
G01X4460240Y-683260D01*
G01X4460240Y-709686D01*
G01X4326895Y-709686D01*
G03X4291081Y-745500I0J-35814D01*
G01X4291081Y-905500D01*
G03X4326895Y-941314I35814J0D01*
G01X4460240Y-941314D01*
G01X4460240Y-955314D01*
G01X4282714Y-1132840D01*
G01X2997200Y-1132840D01*
G03X2990016Y-1135816I0J-10160D01*
G01X2736016Y-1389816D01*
G03X2733040Y-1397000I7184J-7184D01*
G01X2733040Y-1399540D01*
G01X2207860Y-1399540D01*
G01X2937852Y-683260D01*
G01X3390900Y-1073213D02*
G03X3390900Y-849185I0J112014D01*
G03X3390900Y-1073213I0J-112014D01*
G01X3578860Y-2150508D02*
G01X3585182Y-2144186D01*
G01X3585182Y-2217407D01*
G03X3620996Y-2253221I35814J0D01*
G01X3680996Y-2253221D01*
G03X3716810Y-2217407I0J35814D01*
G01X3716810Y-2118360D01*
G01X3856592Y-2118360D01*
G01X3885946Y-2147714D01*
G01X3885946Y-2159000D01*
G03X3893460Y-2177140I25654J0D01*
G01X3918860Y-2202540D01*
G03X3937000Y-2210054I18140J18140D01*
G01X3948486Y-2210054D01*
G01X3948486Y-2230253D01*
G03X3984300Y-2266067I35814J0D01*
G01X4016700Y-2266067D01*
G03X4052514Y-2230253I0J35814D01*
G01X4052514Y-2210054D01*
G01X4062786Y-2210054D01*
G01X4062786Y-2230253D01*
G03X4098600Y-2266067I35814J0D01*
G01X4131000Y-2266067D01*
G03X4166814Y-2230253I0J35814D01*
G01X4166814Y-2210054D01*
G01X4177086Y-2210054D01*
G01X4177086Y-2230253D01*
G03X4212900Y-2266067I35814J0D01*
G01X4245300Y-2266067D01*
G03X4281114Y-2230253I0J35814D01*
G01X4281114Y-2210025D01*
G01X4282573Y-2209914D01*
G01X4282573Y-2307059D01*
G01X4275692Y-2313940D01*
G01X3611008Y-2313940D01*
G01X3578860Y-2281792D01*
G01X3578860Y-2150508D01*
G01X5543198Y-2742979D02*
G01X5548686Y-2737491D01*
G01X5548686Y-2763653D01*
G03X5584500Y-2799467I35814J0D01*
G01X5616900Y-2799467D01*
G03X5652714Y-2763653I0J35814D01*
G01X5652714Y-2726811D01*
G03X5652564Y-2723530I-35814J0D01*
G01X5663136Y-2723530D01*
G03X5662986Y-2726811I35663J-3280D01*
G01X5662986Y-2763653D01*
G03X5698800Y-2799467I35814J0D01*
G01X5731200Y-2799467D01*
G03X5767014Y-2763653I0J35814D01*
G01X5767014Y-2726811D01*
G03X5766864Y-2723530I-35814J0D01*
G01X5777436Y-2723530D01*
G03X5777286Y-2726811I35663J-3280D01*
G01X5777286Y-2763653D01*
G03X5813100Y-2799467I35814J0D01*
G01X5845500Y-2799467D01*
G03X5878478Y-2777621I0J35814D01*
G01X5878478Y-2889262D01*
G01X5848630Y-2919110D01*
G01X5574386Y-2919110D01*
G01X5543198Y-2887922D01*
G01X5543198Y-2742979D01*
G01X5915660Y-2702958D02*
G01X5935108Y-2683510D01*
G01X6231492Y-2683510D01*
G01X6250940Y-2702958D01*
G01X6250940Y-2861942D01*
G01X6233792Y-2879090D01*
G01X5934148Y-2879090D01*
G01X5915660Y-2860602D01*
G01X5915660Y-2702958D01*
G01X5881314Y-2232660D02*
G01X5942430Y-2232660D01*
G03X5938279Y-2249396I31663J-16736D01*
G01X5938279Y-2309396D01*
G03X5938568Y-2313940I35814J0D01*
G01X5530004Y-2313940D01*
G03X5520632Y-2268807I-52516J12634D01*
G03X5531379Y-2232660I-43143J32499D01*
G01X5548686Y-2232660D01*
G01X5548686Y-2255653D01*
G03X5584500Y-2291467I35814J0D01*
G01X5616900Y-2291467D01*
G03X5652714Y-2255653I0J35814D01*
G01X5652714Y-2232660D01*
G01X5662986Y-2232660D01*
G01X5662986Y-2255653D01*
G03X5698800Y-2291467I35814J0D01*
G01X5731200Y-2291467D01*
G03X5767014Y-2255653I0J35814D01*
G01X5767014Y-2232660D01*
G01X5777286Y-2232660D01*
G01X5777286Y-2255653D01*
G03X5813100Y-2291467I35814J0D01*
G01X5845500Y-2291467D01*
G03X5881314Y-2255653I0J35814D01*
G01X5881314Y-2232660D01*
G01X5312340Y-1987297D02*
G03X5306060Y-1987664I0J-54014D01*
G01X5306060Y-1985408D01*
G01X5477908Y-1813560D01*
G01X5903010Y-1813560D01*
G01X5920740Y-1831290D01*
G01X5920740Y-1845282D01*
G01X5834393Y-1845282D01*
G03X5798579Y-1881096I0J-35814D01*
G01X5798579Y-1941096D01*
G03X5834393Y-1976910I35814J0D01*
G01X5920740Y-1976885D01*
G01X5920740Y-1976992D01*
G01X5837792Y-2059940D01*
G01X5767014Y-2059940D01*
G01X5767014Y-2024247D01*
G03X5731200Y-1988433I-35814J0D01*
G01X5698800Y-1988433D01*
G03X5662986Y-2024247I0J-35814D01*
G01X5662986Y-2059940D01*
G01X5652714Y-2059940D01*
G01X5652714Y-2024247D01*
G03X5616900Y-1988433I-35814J0D01*
G01X5584500Y-1988433D01*
G03X5548686Y-2024247I0J-35814D01*
G01X5548686Y-2061089D01*
G03X5557800Y-2084959I35814J0D01*
G01X5557429Y-2086302D01*
G01X5533353Y-2110378D01*
G01X5531349Y-2110378D01*
G03X5520632Y-2073811I-53861J4068D01*
G03X5477488Y-1987297I-43143J32499D01*
G01X5312340Y-1987297D01*
G01X3941208Y-2054860D02*
G01X4062786Y-2054860D01*
G01X4062786Y-2090553D01*
G03X4072014Y-2114550I35814J0D01*
G03X4062786Y-2138547I26586J-23997D01*
G01X4062786Y-2174240D01*
G01X4052514Y-2174240D01*
G01X4052514Y-2138547D01*
G03X4016700Y-2102733I-35814J0D01*
G01X3984300Y-2102733D01*
G03X3948486Y-2138547I0J-35814D01*
G01X3948486Y-2174240D01*
G01X3941208Y-2174240D01*
G01X3921760Y-2154792D01*
G01X3921760Y-2074308D01*
G01X3941208Y-2054860D01*
G01X4166814Y-2090553D02*
G01X4166814Y-2054860D01*
G01X4177086Y-2054860D01*
G01X4177086Y-2090553D01*
G03X4186314Y-2114550I35814J0D01*
G03X4177086Y-2138547I26586J-23997D01*
G01X4177086Y-2174240D01*
G01X4166814Y-2174240D01*
G01X4166814Y-2138547D01*
G03X4157586Y-2114550I-35814J0D01*
G03X4166814Y-2090553I-26586J23997D01*
G01X4281114Y-2090553D02*
G01X4281114Y-2063242D01*
G01X4283400Y-2065528D01*
G01X4283400Y-2166531D01*
G01X4281114Y-2168817D01*
G01X4281114Y-2138547D01*
G03X4271886Y-2114550I-35814J0D01*
G03X4281114Y-2090553I-26586J23997D01*
G01X4161310Y-1838007D02*
G03X4151668Y-1813560I-35814J0D01*
G01X4389992Y-1813560D01*
G01X4536440Y-1960008D01*
G01X4536440Y-1990738D01*
G03X4517470Y-1987297I-18970J-50574D01*
G01X4352322Y-1987297D01*
G03X4299337Y-2030816I0J-54014D01*
G01X4295081Y-2026560D01*
G03X4281114Y-2019388I-18140J-18140D01*
G01X4281114Y-1998847D01*
G03X4245300Y-1963033I-35814J0D01*
G01X4212900Y-1963033D01*
G03X4177086Y-1998847I0J-35814D01*
G01X4177086Y-2019046D01*
G01X4166814Y-2019046D01*
G01X4166814Y-1998847D01*
G03X4146873Y-1966742I-35814J0D01*
G03X4161310Y-1938007I-21377J28735D01*
G01X4161310Y-1838007D01*
G01X1915160Y-2002392D02*
G01X1915160Y-1940988D01*
G03X1938000Y-1949216I22840J27586D01*
G01X2024400Y-1949216D01*
G03X2060214Y-1913402I0J35814D01*
G01X2060214Y-1833402D01*
G03X2053731Y-1812887I-35827J-40D01*
G01X2053763Y-1812887D01*
G03X2057400Y-1813560I3637J9487D01*
G01X2070100Y-1813560D01*
G03X2077284Y-1810584I0J10160D01*
G01X2128084Y-1759784D01*
G03X2131060Y-1752600I-7184J7184D01*
G01X2131060Y-1464708D01*
G01X2197100Y-1398668D01*
G01X2204986Y-1406554D01*
G03X2212170Y-1409530I7184J7184D01*
G01X3009900Y-1409530D01*
G03X3017084Y-1406554I0J10160D01*
G01X3118079Y-1305560D01*
G01X4085192Y-1305560D01*
G01X4117340Y-1337708D01*
G01X4117340Y-1430892D01*
G01X4085192Y-1463040D01*
G01X3875917Y-1463040D01*
G03X3868789Y-1465960I0J-10160D01*
G01X3739373Y-1593356D01*
G03X3736340Y-1600597I7127J-7240D01*
G01X3736340Y-1681711D01*
G01X3710884Y-1704340D01*
G01X3302000Y-1704340D01*
G03X3294816Y-1707316I0J-10160D01*
G01X3234292Y-1767840D01*
G01X2491449Y-1767840D01*
G03X2484265Y-1770816I0J-10160D01*
G01X2220541Y-2034540D01*
G01X1947308Y-2034540D01*
G01X1915160Y-2002392D01*
G01X2755900Y-1415986D02*
G03X2755900Y-1640014I0J-112014D01*
G03X2755900Y-1415986I0J112014D01*
G01X5607182Y-719087D02*
G01X5631189Y-719087D01*
G03X5676895Y-941314I45706J-106413D01*
G03X5722601Y-719087I0J115814D01*
G01X7151767Y-719087D01*
G03X7158951Y-716111I0J10160D01*
G01X7534487Y-340575D01*
G01X7581410Y-340575D01*
G03X7565586Y-370291I19990J-29716D01*
G01X7565586Y-706145D01*
G03X7601400Y-741959I35814J0D01*
G01X7714800Y-741959D01*
G03X7749540Y-714852I0J35814D01*
G01X7749540Y-732392D01*
G01X7361792Y-1120140D01*
G01X5757308Y-1120140D01*
G01X5560060Y-922892D01*
G01X5560060Y-766208D01*
G01X5607182Y-719087D01*
G01X6870700Y-1073213D02*
G03X6870700Y-849185I0J112014D01*
G03X6870700Y-1073213I0J-112014D01*
G01X6429355Y-1699260D02*
G01X6494487Y-1699260D01*
G01X6494487Y-1846409D01*
G03X6530301Y-1882223I35814J0D01*
G01X6703099Y-1882223D01*
G03X6738913Y-1846409I0J35814D01*
G01X6738913Y-1697907D01*
G01X6738841Y-1695628D01*
G01X7174625Y-1259844D01*
G01X7347966Y-1259844D01*
G01X7347966Y-1954393D01*
G03X7383780Y-1990207I35814J0D01*
G01X8422125Y-1990207D01*
G01X8365092Y-2047240D01*
G01X7404100Y-2047240D01*
G03X7396916Y-2050216I0J-10160D01*
G01X7120492Y-2326640D01*
G01X6532008Y-2326640D01*
G01X6499860Y-2294492D01*
G01X6499860Y-2135478D01*
G03X6497122Y-2128539I-10160J0D01*
G01X6347460Y-1968463D01*
G01X6347460Y-1765183D01*
G01X6429355Y-1699260D01*
G54D11*
G01X4000500Y-2763399D02*
G01X4000500Y-2789307D01*
G54D12*
G01X4016446Y-2745232D02*
G01X4042354Y-2745232D01*
G54D11*
G01X4114800Y-2763399D02*
G01X4114800Y-2789307D01*
G54D12*
G01X4098854Y-2745232D02*
G01X4072946Y-2745232D01*
G01X4130746Y-2745232D02*
G01X4156654Y-2745232D01*
G54D11*
G01X4229100Y-2763399D02*
G01X4229100Y-2789307D01*
G54D12*
G01X4213154Y-2745232D02*
G01X4187246Y-2745232D01*
G54D13*
G01X4025900Y-754159D02*
G01X4025900Y-780067D01*
G54D14*
G01X3999154Y-714908D02*
G01X3973246Y-714908D01*
G01X4052646Y-714908D02*
G01X4078554Y-714908D01*
G54D15*
G01X3390900Y-1037145D02*
G01X3390900Y-1063053D01*
G01X3390900Y-885253D02*
G01X3390900Y-859345D01*
G01X3314954Y-961199D02*
G01X3289046Y-961199D01*
G01X3466846Y-961199D02*
G01X3492754Y-961199D01*
G54D16*
G01X4327149Y-825500D02*
G01X4301241Y-825500D01*
G01X4406895Y-745754D02*
G01X4406895Y-719846D01*
G01X4406895Y-905246D02*
G01X4406895Y-931154D01*
G54D11*
G01X4114800Y-2229999D02*
G01X4114800Y-2255907D01*
G54D12*
G01X4130746Y-2211832D02*
G01X4156654Y-2211832D01*
G01X4098854Y-2211832D02*
G01X4072946Y-2211832D01*
G54D11*
G01X4229100Y-2229999D02*
G01X4229100Y-2255907D01*
G54D12*
G01X4245046Y-2211832D02*
G01X4270954Y-2211832D01*
G01X4213154Y-2211832D02*
G01X4187246Y-2211832D01*
G54D18*
G01X3680742Y-2167407D02*
G01X3706650Y-2167407D01*
G01X3621250Y-2167407D02*
G01X3595342Y-2167407D01*
G54D19*
G01X3650996Y-2217153D02*
G01X3650996Y-2243061D01*
G54D11*
G01X4000500Y-2229999D02*
G01X4000500Y-2255907D01*
G54D12*
G01X3984554Y-2211832D02*
G01X3958646Y-2211832D01*
G01X4016446Y-2211832D02*
G01X4042354Y-2211832D01*
G54D11*
G01X5829300Y-2763399D02*
G01X5829300Y-2789307D01*
G54D12*
G01X5813354Y-2745232D02*
G01X5787446Y-2745232D01*
G54D11*
G01X5600700Y-2763399D02*
G01X5600700Y-2789307D01*
G54D12*
G01X5584754Y-2745232D02*
G01X5558846Y-2745232D01*
G01X5616646Y-2745232D02*
G01X5642554Y-2745232D01*
G54D11*
G01X5715000Y-2763399D02*
G01X5715000Y-2789307D01*
G54D12*
G01X5699054Y-2745232D02*
G01X5673146Y-2745232D01*
G01X5730946Y-2745232D02*
G01X5756854Y-2745232D01*
G54D20*
G01X5495435Y-2301306D02*
G01X5521343Y-2301306D01*
G54D19*
G01X5974347Y-2279396D02*
G01X5948439Y-2279396D01*
G54D11*
G01X5600700Y-2255399D02*
G01X5600700Y-2281307D01*
G54D12*
G01X5616646Y-2237232D02*
G01X5642554Y-2237232D01*
G01X5584754Y-2237232D02*
G01X5558846Y-2237232D01*
G54D11*
G01X5715000Y-2255399D02*
G01X5715000Y-2281307D01*
G54D12*
G01X5730946Y-2237232D02*
G01X5756854Y-2237232D01*
G01X5699054Y-2237232D02*
G01X5673146Y-2237232D01*
G54D11*
G01X5829300Y-2255399D02*
G01X5829300Y-2281307D01*
G54D12*
G01X5813354Y-2237232D02*
G01X5787446Y-2237232D01*
G01X5845246Y-2237232D02*
G01X5871154Y-2237232D01*
G54D20*
G01X5495435Y-2236307D02*
G01X5521343Y-2236307D01*
G54D11*
G01X5600700Y-2024501D02*
G01X5600700Y-1998593D01*
G54D12*
G01X5584754Y-2042668D02*
G01X5558846Y-2042668D01*
G01X5616646Y-2042668D02*
G01X5642554Y-2042668D01*
G54D11*
G01X5715000Y-2024501D02*
G01X5715000Y-1998593D01*
G54D12*
G01X5730946Y-2042668D02*
G01X5756854Y-2042668D01*
G01X5699054Y-2042668D02*
G01X5673146Y-2042668D01*
G54D21*
G01X5394914Y-2023365D02*
G01X5394914Y-1997457D01*
G54D20*
G01X5495435Y-2041312D02*
G01X5521343Y-2041312D01*
G54D18*
G01X5884393Y-1940842D02*
G01X5884393Y-1966750D01*
G01X5884393Y-1881350D02*
G01X5884393Y-1855442D01*
G54D19*
G01X5834647Y-1911096D02*
G01X5808739Y-1911096D01*
G54D20*
G01X5495435Y-2106310D02*
G01X5521343Y-2106310D01*
G54D11*
G01X4000500Y-2138801D02*
G01X4000500Y-2112893D01*
G54D12*
G01X3984554Y-2156968D02*
G01X3958646Y-2156968D01*
G01X4016446Y-2156968D02*
G01X4042354Y-2156968D01*
G01X4213154Y-2072132D02*
G01X4187246Y-2072132D01*
G01X4245046Y-2072132D02*
G01X4270954Y-2072132D01*
G01X4245046Y-2156968D02*
G01X4270954Y-2156968D01*
G01X4213154Y-2156968D02*
G01X4187246Y-2156968D01*
G01X4130746Y-2156968D02*
G01X4156654Y-2156968D01*
G01X4098854Y-2156968D02*
G01X4072946Y-2156968D01*
G01X4130746Y-2072132D02*
G01X4156654Y-2072132D01*
G01X4098854Y-2072132D02*
G01X4072946Y-2072132D01*
G01X4130746Y-2017268D02*
G01X4156654Y-2017268D01*
G01X4245046Y-2017268D02*
G01X4270954Y-2017268D01*
G01X4213154Y-2017268D02*
G01X4187246Y-2017268D01*
G54D11*
G01X4229100Y-1999101D02*
G01X4229100Y-1973193D01*
G54D18*
G01X4125242Y-1888007D02*
G01X4151150Y-1888007D01*
G54D22*
G01X1981200Y-1913148D02*
G01X1981200Y-1939056D01*
G54D23*
G01X2024146Y-1873402D02*
G01X2050054Y-1873402D01*
G54D15*
G01X2755900Y-1603946D02*
G01X2755900Y-1629854D01*
G01X2831846Y-1528000D02*
G01X2857754Y-1528000D01*
G01X2679954Y-1528000D02*
G01X2654046Y-1528000D01*
G54D24*
G01X7658100Y-705891D02*
G01X7658100Y-731799D01*
G54D25*
G01X7601654Y-538218D02*
G01X7575746Y-538218D01*
G54D16*
G01X5756641Y-825500D02*
G01X5782549Y-825500D01*
G01X5676895Y-905246D02*
G01X5676895Y-931154D01*
G54D15*
G01X6870700Y-1037145D02*
G01X6870700Y-1063053D01*
G01X6870700Y-885253D02*
G01X6870700Y-859345D01*
G01X6794754Y-961199D02*
G01X6768846Y-961199D01*
G01X6946646Y-961199D02*
G01X6972554Y-961199D01*
G54D26*
G01X6616700Y-1846155D02*
G01X6616700Y-1872063D01*
G54D27*
G01X6530555Y-1772158D02*
G01X6504647Y-1772158D01*
G01X6702845Y-1772158D02*
G01X6728753Y-1772158D01*
G54D28*
G01X7384034Y-1595366D02*
G01X7358126Y-1595366D01*
G04 Copper End*

G04 Rect Start*
G36*
G01X4356105Y-2120900D02*
G01X4356105Y-2037425D01*
G01X4521200Y-2037425D01*
G01X4521200Y-2120900D01*
G01X4356105Y-2120900D01*
G37*
G36*
G01X4359102Y-2315114D02*
G01X4359102Y-2231639D01*
G01X4524197Y-2231639D01*
G01X4524197Y-2315114D01*
G01X4359102Y-2315114D01*
G37*
G36*
G01X4356105Y-2044678D02*
G01X4356105Y-1961204D01*
G01X4521200Y-1961204D01*
G01X4521200Y-2044678D01*
G01X4356105Y-2044678D01*
G37*
G36*
G01X5314953Y-2111837D02*
G01X5314953Y-2028363D01*
G01X5480047Y-2028363D01*
G01X5480047Y-2111837D01*
G01X5314953Y-2111837D01*
G37*
G36*
G01X5314953Y-2315037D02*
G01X5314953Y-2231563D01*
G01X5480047Y-2231563D01*
G01X5480047Y-2315037D01*
G01X5314953Y-2315037D01*
G37*
G36*
G01X5314953Y-2047663D02*
G01X5314953Y-1964188D01*
G01X5480047Y-1964188D01*
G01X5480047Y-2047663D01*
G01X5314953Y-2047663D01*
G37*
G36*
G01X7340600Y-2006600D02*
G01X7340600Y-1257300D01*
G01X7404100Y-1257300D01*
G01X7404100Y-2006600D01*
G01X7340600Y-2006600D01*
G37*
G36*
G01X7372350Y-2006600D02*
G01X7372350Y-1892300D01*
G01X8420100Y-1892300D01*
G01X8420100Y-2006600D01*
G01X7372350Y-2006600D01*
G37*
G04 Rect End*

G04 Pad Start*
G54D29*
G01X1815490Y-2368804D03*
G01X1815490Y-2463800D03*
G01X1815490Y-2558796D03*
G01X2045310Y-2558796D03*
G01X2045310Y-2463800D03*
G01X2045310Y-2368804D03*
G01X8076590Y-2368804D03*
G01X8076590Y-2463800D03*
G01X8076590Y-2558796D03*
G01X8306410Y-2558796D03*
G01X8306410Y-2463800D03*
G01X8306410Y-2368804D03*
G54D30*
G01X5394914Y-2886319D03*
G01X5394914Y-2821320D03*
G01X5394914Y-2756322D03*
G01X5394914Y-2691323D03*
G01X5394914Y-2626324D03*
G01X5394914Y-2561326D03*
G01X5394914Y-2496327D03*
G01X5394914Y-2431329D03*
G01X5394914Y-2366305D03*
G01X5394914Y-2301306D03*
G01X5394914Y-2236307D03*
G01X5394914Y-2171309D03*
G01X5394914Y-2106310D03*
G01X5394914Y-2041312D03*
G01X4434896Y-2886319D03*
G01X4434896Y-2821320D03*
G01X4434896Y-2756322D03*
G01X4434896Y-2691323D03*
G01X4434896Y-2626324D03*
G01X4434896Y-2561326D03*
G01X4434896Y-2496327D03*
G01X4434896Y-2431329D03*
G01X4434896Y-2366305D03*
G01X4434896Y-2301306D03*
G01X4434896Y-2236307D03*
G01X4434896Y-2171309D03*
G01X4434896Y-2106310D03*
G01X4434896Y-2041312D03*
G54D31*
G01X8166100Y-538218D03*
G01X7658100Y-538218D03*
G54D32*
G01X7912100Y-1595366D03*
G54D33*
G01X4406895Y-825500D03*
G54D34*
G01X4660895Y-825500D03*
G01X5168895Y-825500D03*
G01X5676895Y-825500D03*
G54D35*
G01X9161399Y-1164412D03*
G01X9161399Y-2569388D03*
G54D36*
G01X8796401Y-1516888D03*
G01X8796401Y-1766900D03*
G01X8796401Y-1966900D03*
G01X8796401Y-2216912D03*
G54D37*
G01X4229100Y-2017268D03*
G01X4229100Y-2072132D03*
G54D38*
G01X4114800Y-2211832D03*
G01X4114800Y-2156968D03*
G01X4229100Y-2211832D03*
G01X4229100Y-2156968D03*
G54D37*
G01X4229100Y-2690368D03*
G01X4229100Y-2745232D03*
G01X4114800Y-2690368D03*
G01X4114800Y-2745232D03*
G01X4000500Y-2156968D03*
G01X4000500Y-2211832D03*
G54D38*
G01X4000500Y-2745232D03*
G01X4000500Y-2690368D03*
G54D39*
G01X3996792Y-1536700D03*
G01X4105808Y-1536700D03*
G01X3552292Y-1778000D03*
G01X3661308Y-1778000D03*
G54D38*
G01X4114800Y-2072132D03*
G01X4114800Y-2017268D03*
G01X5715000Y-2097532D03*
G01X5715000Y-2042668D03*
G54D40*
G01X6413500Y-2167992D03*
G01X6413500Y-2277008D03*
G01X6261100Y-1812392D03*
G01X6261100Y-1921408D03*
G54D38*
G01X5829300Y-2745232D03*
G01X5829300Y-2690368D03*
G54D37*
G01X5829300Y-2182368D03*
G01X5829300Y-2237232D03*
G01X5715000Y-2690368D03*
G01X5715000Y-2745232D03*
G01X5600700Y-2690368D03*
G01X5600700Y-2745232D03*
G54D38*
G01X5600700Y-2237232D03*
G01X5600700Y-2182368D03*
G01X5715000Y-2237232D03*
G01X5715000Y-2182368D03*
G54D37*
G01X5600700Y-2042668D03*
G01X5600700Y-2097532D03*
G54D41*
G01X7776108Y-241300D03*
G01X7667092Y-241300D03*
G54D42*
G01X1752600Y-2024101D03*
G01X1752600Y-1735099D03*
G54D43*
G01X1981200Y-1733398D03*
G01X1981200Y-1873402D03*
G54D44*
G01X8674100Y-723036D03*
G01X8674100Y-572364D03*
G54D45*
G01X8674100Y-216764D03*
G01X8674100Y-367436D03*
G54D46*
G01X6104407Y-1816100D03*
G01X6104407Y-1721104D03*
G01X6104407Y-1911096D03*
G01X5884393Y-1721104D03*
G01X5884393Y-1911096D03*
G54D47*
G01X4000500Y-1667993D03*
G01X3905504Y-1667993D03*
G01X4095496Y-1667993D03*
G01X3905504Y-1888007D03*
G01X4095496Y-1888007D03*
G54D40*
G01X4025900Y-605892D03*
G01X4025900Y-714908D03*
G54D48*
G01X2755900Y-1528000D03*
G01X2755900Y-2027999D03*
G54D39*
G01X5558892Y-609600D03*
G01X5667908Y-609600D03*
G54D48*
G01X6870700Y-961199D03*
G01X6870700Y-461200D03*
G01X3390900Y-961199D03*
G01X3390900Y-461200D03*
G54D47*
G01X3556000Y-1947393D03*
G01X3461004Y-1947393D03*
G01X3650996Y-1947393D03*
G01X3461004Y-2167407D03*
G01X3650996Y-2167407D03*
G54D46*
G01X6244107Y-2184400D03*
G01X6244107Y-2089404D03*
G01X6244107Y-2279396D03*
G01X6024093Y-2089404D03*
G01X6024093Y-2279396D03*
G54D49*
G01X1349705Y-2054403D03*
G01X1349705Y-1804416D03*
G01X1349705Y-1679397D03*
G01X1349705Y-1929409D03*
G54D50*
G01X707695Y-1186891D03*
G01X707695Y-2546909D03*
G54D51*
G01X6616700Y-1453642D03*
G01X6616700Y-1772158D03*
G01X9025374Y-246367D03*
G01X9025374Y-564883D03*
G04 Pad End*

G04 Via Start*
G54D52*
G01X1815490Y-2463800D03*
G01X4029608Y-596900D03*
G01X5546192Y-609600D03*
G01X2045310Y-2463800D03*
G01X4038600Y-2120509D03*
G01X3962400Y-2120900D03*
G01X4035962Y-2057400D03*
G01X3962400Y-2057400D03*
G01X3162300Y-2023008D03*
G01X3369793Y-2019300D03*
G01X3260146Y-2025647D03*
G01X4229100Y-2832643D03*
G01X4114568Y-2832643D03*
G01X4000500Y-2832100D03*
G01X3911600Y-2247900D03*
G01X3835400Y-2247900D03*
G01X3835400Y-2171700D03*
G01X3632200Y-2705100D03*
G01X3632200Y-2819400D03*
G01X3708400Y-2819400D03*
G01X3784600Y-2819400D03*
G01X3860800Y-2819400D03*
G01X3708400Y-2705100D03*
G01X3784600Y-2705100D03*
G01X3860800Y-2705100D03*
G01X3759200Y-2171700D03*
G01X3759200Y-2247900D03*
G01X4000500Y-2901306D03*
G01X4114568Y-2901306D03*
G01X4229100Y-2901306D03*
G01X1349705Y-1929409D03*
G01X1250873Y-1929409D03*
G01X1445181Y-1929409D03*
G01X1701373Y-2024101D03*
G01X1799371Y-2024101D03*
G01X3552292Y-1778000D03*
G01X3556000Y-1947393D03*
G01X3556000Y-1878881D03*
G01X5600700Y-2832100D03*
G01X5600700Y-2900484D03*
G01X5715000Y-2832100D03*
G01X5829958Y-2832100D03*
G01X5715000Y-2900484D03*
G01X5829958Y-2900484D03*
G01X5822197Y-2171309D03*
G01X5715000Y-2171309D03*
G01X5600700Y-2171309D03*
G01X6244107Y-2184400D03*
G01X6413500Y-2167992D03*
G01X6261100Y-1812392D03*
G01X6104407Y-1816100D03*
G01X8796401Y-1516888D03*
G01X8697277Y-1516913D03*
G01X8889896Y-1516913D03*
G01X8076590Y-2463800D03*
G01X8306410Y-2463800D03*
G01X8102600Y-1943100D03*
G01X6024093Y-2279396D03*
G01X5907067Y-2279396D03*
G01X6197600Y-2730500D03*
G01X6121400Y-2730500D03*
G01X6045200Y-2730500D03*
G01X5969000Y-2730500D03*
G01X5969000Y-2832100D03*
G01X6045200Y-2832100D03*
G01X6121400Y-2832100D03*
G01X6197600Y-2832100D03*
G01X7776108Y-241300D03*
G01X8674100Y-216764D03*
G01X6558550Y-1453650D03*
G01X6671192Y-1453642D03*
G01X8966518Y-246375D03*
G01X9084793Y-246375D03*
G01X6921500Y-1676400D03*
G01X6997700Y-1676400D03*
G01X7073900Y-1676400D03*
G01X7150100Y-1676400D03*
G01X7226300Y-1676400D03*
G01X6921500Y-1752600D03*
G01X6997700Y-1752600D03*
G01X7073900Y-1752600D03*
G01X7150100Y-1752600D03*
G01X7226300Y-1752600D03*
G01X6921500Y-1828800D03*
G01X6921500Y-1905000D03*
G01X6921500Y-1981200D03*
G01X6921500Y-2057400D03*
G01X6997700Y-1828800D03*
G01X7073900Y-1828800D03*
G01X6997700Y-1905000D03*
G01X7073900Y-1905000D03*
G01X6997700Y-1981200D03*
G01X7073900Y-1981200D03*
G01X6997700Y-2057400D03*
G01X7073900Y-2057400D03*
G01X7150100Y-2057400D03*
G01X7150100Y-1981200D03*
G01X7150100Y-1905000D03*
G01X7150100Y-1828800D03*
G01X7226300Y-1828800D03*
G01X7226300Y-1905000D03*
G01X7226300Y-1981200D03*
G01X7226300Y-2057400D03*
G01X6843876Y-1676400D03*
G01X6843876Y-1752600D03*
G01X6843876Y-1828800D03*
G01X6843876Y-1905000D03*
G01X6843876Y-1981200D03*
G01X6843876Y-2057400D03*
G01X707695Y-1074524D03*
G01X707695Y-1176904D03*
G01X707695Y-1292487D03*
G01X806693Y-1074524D03*
G01X806693Y-1176904D03*
G01X806693Y-1292487D03*
G01X915674Y-1074524D03*
G01X915674Y-1176904D03*
G01X915674Y-1292487D03*
G01X618355Y-1292487D03*
G01X707695Y-1176904D03*
G01X618355Y-1176904D03*
G01X707695Y-1074524D03*
G01X618355Y-1074524D03*
G01X618355Y-1074524D03*
G01X525368Y-1074524D03*
G01X525368Y-1176904D03*
G01X525368Y-1292487D03*
G01X707695Y-2556896D03*
G01X707695Y-2445665D03*
G01X707695Y-2663628D03*
G01X809227Y-2663628D03*
G01X809227Y-2556896D03*
G01X809227Y-2443130D03*
G01X918209Y-2443130D03*
G01X918209Y-2556896D03*
G01X918209Y-2663628D03*
G01X618355Y-2663628D03*
G01X707695Y-2556896D03*
G01X618355Y-2556896D03*
G01X618355Y-2445665D03*
G01X618355Y-2445665D03*
G01X525368Y-2445665D03*
G01X525368Y-2556896D03*
G01X525368Y-2663628D03*
G01X9161399Y-1109391D03*
G01X9161399Y-1212459D03*
G01X9065284Y-1212459D03*
G01X8970665Y-1212459D03*
G01X9065284Y-1109391D03*
G01X8970665Y-1109391D03*
G01X9261282Y-1109391D03*
G01X9261282Y-1212459D03*
G01X9354212Y-1109391D03*
G01X9354212Y-1212459D03*
G01X9161399Y-2528265D03*
G01X9161399Y-2622885D03*
G01X9067800Y-2628900D03*
G01X9067800Y-2528265D03*
G01X8972847Y-2528265D03*
G01X8972847Y-2628900D03*
G01X9263465Y-2528265D03*
G01X9263465Y-2622885D03*
G01X9364843Y-2528265D03*
G01X9364843Y-2622885D03*
G04 Via End*

G04 Track Start*
G54D53*
G01X5394914Y-2431329D02*
G01X5511437Y-2431329D01*
G01X5394914Y-2496327D02*
G01X5511437Y-2496327D01*
G01X5511437Y-2431329D02*
G01X5525902Y-2445794D01*
G01X5511437Y-2496327D02*
G01X5525902Y-2481862D01*
G01X8058698Y-2558796D02*
G01X8076590Y-2558796D01*
G01X7981764Y-2481862D02*
G01X8058698Y-2558796D01*
G01X8058698Y-2368804D02*
G01X8076590Y-2368804D01*
G01X8058698Y-2368804D02*
G01X7981708Y-2445794D01*
G01X5525902Y-2481862D02*
G01X7981764Y-2481862D01*
G01X5525902Y-2445794D02*
G01X7981708Y-2445794D01*
G54D54*
G01X4434896Y-2691323D02*
G01X4230055Y-2691323D01*
G01X4229100Y-2690368D01*
G01X4434896Y-2756322D02*
G01X4240190Y-2756322D01*
G01X4229100Y-2745232D01*
G54D53*
G01X2063382Y-2558796D02*
G01X2045310Y-2558796D01*
G01X2140217Y-2481961D02*
G01X2063382Y-2558796D01*
G01X4434896Y-2496327D02*
G01X4420530Y-2481961D01*
G01X2140217Y-2481961D01*
G01X2063382Y-2368804D02*
G01X2045310Y-2368804D01*
G01X4434896Y-2431329D02*
G01X4420586Y-2445639D01*
G01X2140217Y-2445639D02*
G01X2063382Y-2368804D01*
G01X4420586Y-2445639D02*
G01X2140217Y-2445639D01*
G54D54*
G01X4229100Y-2690368D02*
G01X4114800Y-2690368D01*
G01X4000500Y-2690368D01*
G01X3848100Y-2690368D01*
G01X4434896Y-2171309D02*
G01X4330309Y-2171309D01*
G01X4267200Y-2108200D01*
G01X4434896Y-2236307D02*
G01X4267200Y-2236307D01*
G54D55*
G01X1738649Y-2500027D02*
G01X1738649Y-2497957D01*
G01X1722653Y-2481961D01*
G01X1312994Y-2481961D01*
G01X1815490Y-2558796D02*
G01X1797418Y-2558796D01*
G01X1738649Y-2500027D01*
G01X1005078Y-1902655D02*
G01X1183987Y-1723746D01*
G01X1305357Y-1723746D02*
G01X1349705Y-1679397D01*
G01X1183987Y-1723746D02*
G01X1305357Y-1723746D01*
G01X1312994Y-2481961D02*
G01X1005078Y-2174045D01*
G01X1005078Y-1902655D01*
G54D56*
G01X1349705Y-2054403D02*
G01X1722298Y-2054403D01*
G01X1752600Y-2024101D01*
G01X1752600Y-1735099D02*
G01X1979498Y-1735099D01*
G01X1981200Y-1733398D01*
G54D57*
G01X3661308Y-1752600D02*
G01X3661308Y-1638300D01*
G01X3661308Y-1937080D02*
G01X3661308Y-1752600D01*
G01X3650996Y-1947393D02*
G01X3661308Y-1937080D01*
G01X3556000Y-1947393D02*
G01X3556000Y-2006600D01*
G01X3606800Y-2057400D01*
G01X3556000Y-1878881D02*
G01X3556000Y-1947393D01*
G01X3552292Y-1778000D02*
G01X3552292Y-1875173D01*
G01X3556000Y-1878881D01*
G54D54*
G01X5394914Y-2691323D02*
G01X5956300Y-2691323D01*
G01X5394914Y-2756322D02*
G01X5538241Y-2756322D01*
G01X6231016Y-2171309D02*
G01X6244107Y-2184400D01*
G01X5715000Y-2097532D02*
G01X5715000Y-2171309D01*
G01X5715000Y-2182368D01*
G01X5600700Y-2097532D02*
G01X5600700Y-2171309D01*
G01X5600700Y-2182368D01*
G01X5394914Y-2171309D02*
G01X5600700Y-2171309D01*
G01X5715000Y-2171309D01*
G01X6104407Y-1816100D02*
G01X6057900Y-1816100D01*
G01X5994400Y-1879600D02*
G01X5994400Y-1968500D01*
G01X5803900Y-2159000D01*
G01X6057900Y-1816100D02*
G01X5994400Y-1879600D01*
G01X6104407Y-1816100D02*
G01X6257392Y-1816100D01*
G01X6261100Y-1812392D01*
G01X6244107Y-2184400D02*
G01X6397092Y-2184400D01*
G01X6413500Y-2167992D01*
G01X5715000Y-2171309D02*
G01X5822197Y-2171309D01*
G01X6231016Y-2171309D01*
G54D57*
G01X3606800Y-2057400D02*
G01X3962400Y-2057400D01*
G54D54*
G01X3996792Y-1536700D02*
G01X4000500Y-1540408D01*
G01X4000500Y-1667993D01*
G01X4000500Y-2021938D01*
G01X4035962Y-2057400D01*
G01X4095496Y-1667993D02*
G01X4095496Y-1547012D01*
G01X4105808Y-1536700D01*
G01X4105808Y-1476908D01*
G01X4064000Y-1435100D01*
G01X3905504Y-1667993D02*
G01X3905504Y-1435100D01*
G01X3461004Y-1947393D02*
G01X3467100Y-1941297D01*
G01X3467100Y-1625600D01*
G01X6244107Y-2279396D02*
G01X6411112Y-2279396D01*
G01X6413500Y-2277008D01*
G01X6104407Y-1911096D02*
G01X6250788Y-1911096D01*
G01X6261100Y-1921408D01*
G54D55*
G01X8757539Y-2481961D02*
G01X8851900Y-2387600D01*
G01X8306410Y-2558796D02*
G01X8324482Y-2558796D01*
G01X8851900Y-2387600D02*
G01X8978900Y-2387600D01*
G01X9065739Y-1940755D02*
G01X8973722Y-1848739D01*
G01X8878240Y-1848739D02*
G01X8796401Y-1766900D01*
G01X8973722Y-1848739D02*
G01X8878240Y-1848739D01*
G01X8978900Y-2387600D02*
G01X9065739Y-2300761D01*
G01X9065739Y-1940755D01*
G54D58*
G01X6413500Y-2277008D02*
G01X6536792Y-2277008D01*
G01X6540500Y-2273300D01*
G01X6244107Y-2089404D02*
G01X6502400Y-2089404D01*
G01X6104407Y-1721104D02*
G01X6426200Y-1721104D01*
G01X6261100Y-1921408D02*
G01X6422492Y-1921408D01*
G01X6438900Y-1905000D01*
G54D57*
G01X7667092Y-241300D02*
G01X7667092Y-529227D01*
G01X7658100Y-538218D01*
G01X5667908Y-609600D02*
G01X5667908Y-816513D01*
G01X5676895Y-825500D01*
G01X8674100Y-367436D02*
G01X8674100Y-572364D01*
G01X8639955Y-538218D01*
G01X8166100Y-538218D01*
G01X9025374Y-564883D02*
G01X9017894Y-572364D01*
G01X8674100Y-572364D01*
G01X9025374Y-246367D02*
G01X8995771Y-216764D01*
G01X8674100Y-216764D01*
G01X8674100Y-723036D02*
G01X7912100Y-1485036D01*
G01X7912100Y-1595366D01*
G54D56*
G01X8796401Y-2216912D02*
G01X8533646Y-2216912D01*
G01X7912100Y-1595366D01*
G54D55*
G01X8401317Y-2481961D02*
G01X8757539Y-2481961D01*
G01X8324482Y-2558796D02*
G01X8401317Y-2481961D01*
G01X1349705Y-1804416D02*
G01X1305357Y-1760068D01*
G01X1199032Y-1760068D01*
G01X1041400Y-1917700D01*
G01X1041400Y-2159000D01*
G01X1328039Y-2445639D01*
G01X1432144Y-2445639D01*
G01X1443459Y-2434324D01*
G01X1443459Y-2386215D01*
G01X1454774Y-2374900D01*
G01X1584544Y-2374900D01*
G01X1595859Y-2386215D01*
G01X1595859Y-2434324D01*
G01X1607174Y-2445639D01*
G01X1722653Y-2445639D02*
G01X1738649Y-2429643D01*
G01X1738649Y-2427573D01*
G01X1797418Y-2368804D01*
G01X1815490Y-2368804D01*
G01X1607174Y-2445639D02*
G01X1722653Y-2445639D01*
G01X8306410Y-2368804D02*
G01X8324482Y-2368804D01*
G01X8401317Y-2445639D01*
G01X8504194Y-2445639D01*
G01X8515509Y-2434324D01*
G01X8515509Y-2386215D01*
G01X8526824Y-2374900D01*
G01X8656594Y-2374900D01*
G01X8667909Y-2386215D01*
G01X8667909Y-2434324D01*
G01X8679224Y-2445639D01*
G01X8742494Y-2445639D01*
G01X8836855Y-2351278D01*
G01X8963855Y-2351278D01*
G01X9029417Y-2285717D01*
G01X9029417Y-1955800D01*
G01X8958678Y-1885061D01*
G01X8878240Y-1885061D01*
G01X8796401Y-1966900D01*
G04 Track End*

M02*

